SplineFontDB: 3.2
FontName: CMUOSerif-RomanSlanted
FullName: CMUO Serif Roman Slanted
FamilyName: CMUO Serif
Weight: Medium
Copyright: Modified by Jihu S. Kim from CMU fonts.\n\nConverted by Andrey V. Panov from TeX fonts. Some glyphs are copied from Blue Sky fonts released by AMS.
Version: 1.0
ItalicAngle: -9.46001
UnderlinePosition: -150
UnderlineWidth: 50
Ascent: 800
Descent: 200
InvalidEm: 0
LayerCount: 2
Layer: 0 0 "+tLe6dAAA" 1
Layer: 1 0 "+xV66dAAA" 0
XUID: [1021 774 1001095470 7912448]
StyleMap: 0x0001
FSType: 0
OS2Version: 3
OS2_WeightWidthSlopeOnly: 0
OS2_UseTypoMetrics: 0
CreationTime: 1245311624
ModificationTime: 1591045062
PfmFamily: 17
TTFWeight: 500
TTFWidth: 5
LineGap: 200
VLineGap: 0
Panose: 2 0 6 3 0 0 0 0 0 0
OS2TypoAscent: 800
OS2TypoAOffset: 0
OS2TypoDescent: -200
OS2TypoDOffset: 0
OS2TypoLinegap: 200
OS2WinAscent: 935
OS2WinAOffset: 0
OS2WinDescent: 250
OS2WinDOffset: 0
HheadAscent: 935
HheadAOffset: 0
HheadDescent: -250
HheadDOffset: 0
OS2SubXSize: 650
OS2SubYSize: 700
OS2SubXOff: 23
OS2SubYOff: 140
OS2SupXSize: 650
OS2SupYSize: 700
OS2SupXOff: -78
OS2SupYOff: 480
OS2StrikeYSize: 49
OS2StrikeYPos: 258
OS2CapHeight: 678
OS2XHeight: 430
OS2Vendor: 'PfEd'
OS2CodePages: 0000011f.00000000
OS2UnicodeRanges: e10002ff.5201e9eb.00020004.00000000
Lookup: 1 0 0 "'case' +swDBjK1svYQA +x5DWFQAA lookup 0" { "'case' +swDBjK1svYQA +x5DWFQAA lookup 0 subtable"  } ['case' ('cyrl' <'dflt' > 'grek' <'dflt' > 'latn' <'dflt' > ) ]
Lookup: 1 0 0 "'smcp' +wYy7OMeQxdDBHAAA +wYzWFQAA +swC7OMeQuFwA lookup 1" { "'smcp' +wYy7OMeQxdDBHAAA +wYzWFQAA +swC7OMeQuFwA lookup 1 subtable"  } ['smcp' ('cyrl' <'dflt' > 'latn' <'dflt' > ) ]
Lookup: 1 0 0 "'c2sc' +swC7OMeQxdDBHAAA +wYzWFbMAuzjHkLhc lookup 2" { "'c2sc' +swC7OMeQxdDBHAAA +wYzWFbMAuzjHkLhc lookup 2 subtable"  } ['c2sc' ('cyrl' <'dflt' > 'latn' <'dflt' > ) ]

StartChar: .notdef
Encoding: 0 0 0
Width: 760
Flags: MW
TeX: 765 -10
HStem: 10 60<105 655 105 750> 705 60<105 105 105 655>
VStem: 10 60<112 112 112 663> 690 60<112 663 663 663>
LayerCount: 2
Fore
SplineSet
10 10 m 1
 10 765 l 1
 750 765 l 1
 750 10 l 1
 10 10 l 1
70 112 m 1
 346 388 l 1
 70 663 l 1
 70 112 l 1
105 70 m 1
 655 70 l 1
 380 346 l 1
 105 70 l 1
105 705 m 1
 380 429 l 1
 655 705 l 1
 105 705 l 1
414 388 m 1
 690 112 l 1
 690 663 l 1
 414 388 l 1
EndSplineSet
EndChar

StartChar: exclam
Encoding: 33 33 2
Width: 278
GlyphClass: 2
Flags: MW
TeX: 688 0
ItalicCorrection: 57
HStem: 0 105<139 157.5> 696 20G<249 268.5>
VStem: 95 106<44 62.5> 160 28<210 210 210 216 210 216> 195 108<651 686>
LayerCount: 2
Fore
SplineSet
95 46 m 0xe0
 95 79 124 105 154 105 c 0
 182 105 201 83 201 59 c 0
 201 29 174 0 141 0 c 0
 117 0 95 19 95 46 c 0xe0
160 205 m 2xd8
 160 216 l 1
 195 651 l 2
 200 710 242 716 256 716 c 0
 281 716 303 699 303 673 c 0
 303 666 302 659 300 652 c 2
 188 210 l 2
 186 201 183 189 172 188 c 0
 163 188 160 194 160 205 c 2xd8
EndSplineSet
EndChar

StartChar: quotedbl
Encoding: 34 34 3
Width: 500
GlyphClass: 2
Flags: MW
TeX: 688 0
ItalicCorrection: 22
HStem: 690 20G<283 284 284 294 451 452 452 462>
VStem: 212 278
LayerCount: 2
Fore
SplineSet
212 347 m 1
 212 357 228 647 230 663 c 0
 235 695 260 710 283 710 c 2
 284 710 l 2
 304 710 323 698 323 674 c 0
 323 654 267 470 235 347 c 1
 212 347 l 1
379 347 m 1
 399 662 391 668 409 690 c 0
 419 703 435 710 451 710 c 2
 452 710 l 2
 472 710 490 698 490 674 c 0
 490 658 402 347 402 347 c 1
 379 347 l 1
EndSplineSet
EndChar

StartChar: numbersign
Encoding: 35 35 4
Width: 833
GlyphClass: 2
Flags: MW
TeX: 688 194
ItalicCorrection: 33
HStem: 141 23<105 106 106 277 312 515 105 302 551 776> 336 23<132.5 374 139 363 139 388 399 602 637 808 808 810> 672 20G<524 532.5 763 771.5>
LayerCount: 2
Fore
SplineSet
82 153 m 0
 82 161 91 164 105 164 c 2
 288 164 l 1
 363 336 l 1
 138 336 l 2
 127 336 115 337 115 347 c 0
 115 358 128 359 139 359 c 2
 374 359 l 1
 505 656 l 2
 514 677 519 692 529 692 c 0
 536 692 538 688 538 682 c 0
 538 671 530 654 527 648 c 2
 399 359 l 1
 612 359 l 1
 744 656 l 2
 753 677 758 692 768 692 c 0
 775 692 777 688 777 682 c 0
 777 671 768 654 765 648 c 2
 637 359 l 1
 808 359 l 2
 819 359 832 357 832 347 c 0
 832 337 820 336 810 336 c 2
 627 336 l 1
 551 164 l 1
 776 164 l 2
 787 164 800 163 800 153 c 0
 800 143 790 141 776 141 c 2
 540 141 l 1
 399 -179 l 1
 392 -190 l 1
 388 -192 l 1
 384 -192 l 2
 379 -191 376 -188 375 -182 c 2
 379 -170 l 1
 515 141 l 1
 302 141 l 1
 161 -179 l 1
 153 -190 l 1
 150 -192 l 1
 145 -192 l 2
 140 -191 138 -188 137 -182 c 2
 140 -170 l 1
 277 141 l 1
 106 141 l 2
 95 141 82 143 82 153 c 0
312 164 m 1
 526 164 l 1
 602 336 l 1
 388 336 l 1
 312 164 l 1
EndSplineSet
EndChar

StartChar: dollar
Encoding: 36 36 5
Width: 500
GlyphClass: 2
Flags: MW
TeX: 749 55
ItalicCorrection: 79
HStem: -10 30<232 238 238 263> 138 90<129.5 140> 311 92<317 332> 480 90<475 494.5 475 506.5> 673 32<347 352>
VStem: 82 96<117.5 200> 138 58<473 530> 422 57<182 242.5> 439 95<507 585>
LayerCount: 2
Fore
SplineSet
82 144 m 0xfd
 82 182 89 197 96 207 c 0
 106 221 121 228 138 228 c 0xfa
 162 228 178 211 178 189 c 0xfc
 178 159 155 138 125 138 c 0
 119 138 114 139 108 140 c 1
 112 98 127 28 238 20 c 1
 287 319 l 1
 276 322 138 342 138 483 c 0
 138 577 216 692 352 705 c 1
 359 750 l 1
 390 750 l 1
 382 705 l 1
 512 694 534 611 534 559 c 0xfa80
 534 539 534 480 479 480 c 0xf9
 457 480 439 495 439 519 c 0xf880
 439 545 458 570 492 570 c 0
 497 570 502 570 508 569 c 1
 500 640 447 669 377 674 c 1
 332 403 l 1
 337 402 479 382 479 230 c 0
 479 134 407 6 263 -10 c 1
 256 -55 l 1
 225 -55 l 1
 232 -10 l 1
 102 2 82 91 82 144 c 0xfd
196 521 m 0
 196 425 300 411 303 410 c 1
 347 673 l 1
 247 659 196 582 196 521 c 0
269 21 m 1
 360 33 422 114 422 191 c 0xf9
 422 294 322 310 317 311 c 1
 269 21 l 1
EndSplineSet
EndChar

StartChar: percent
Encoding: 37 37 6
Width: 833
GlyphClass: 2
Flags: MW
TeX: 749 55
ItalicCorrection: 69
HStem: -56 22<618 673.5 618 683> 325 22<682.5 727> 347 22<245.5 297.5 245.5 306.5> 619 22<547 577.5> 728 22<307 343.5 282 351>
VStem: 144 57<451.5 485.5 441 571.5> 404 25<540 610 537 634.5> 519 58<58 81 44 164> 780 25<137.5 230.5>
LayerCount: 2
Fore
SplineSet
133 -36 m 0
 133 -32 133 -28 144 -15 c 2
 701 650 l 1
 701 651 l 1
 637 619 587 619 568 619 c 0
 526 619 475 627 421 663 c 1
 427 642 429 621 429 599 c 0
 429 475 351 347 262 347 c 0
 206 347 144 398 144 505 c 0
 144 638 238 750 326 750 c 0
 361 750 380 733 396 715 c 0
 436 670 493 641 568 641 c 0
 677 641 747 704 771 733 c 0
 780 745 785 750 795 750 c 0
 805 750 815 741 815 730 c 0
 815 726 814 721 803 708 c 2
 175 -42 l 2
 164 -55 157 -56 153 -56 c 0
 142 -56 133 -47 133 -36 c 0
201 472 m 0
 201 410 227 369 264 369 c 0
 331 369 404 480 404 600 c 0
 404 669 375 728 327 728 c 0
 287 728 251 684 232 638 c 0
 211 585 201 499 201 472 c 0
519 101 m 0
 519 227 609 347 702 347 c 0
 772 347 805 269 805 196 c 0
 805 74 728 -56 638 -56 c 0
 567 -56 519 15 519 101 c 0
577 69 m 0
 577 19 596 -34 640 -34 c 0
 707 -34 780 78 780 197 c 0
 780 264 751 325 703 325 c 0
 662 325 625 280 606 231 c 0
 587 179 577 93 577 69 c 0
EndSplineSet
EndChar

StartChar: ampersand
Encoding: 38 38 7
Width: 777
GlyphClass: 2
Flags: MW
TeX: 688 0
ItalicCorrection: 49
HStem: -22 31<189.5 237 189.5 261 569 613.5> 401 30<574 580> 694 22<407 436>
VStem: 62 86<113 126.5 113 136> 249 67<492.5 523> 462 25<600.5 640> 716 25<121 121>
LayerCount: 2
Fore
SplineSet
62 108 m 0
 62 164 95 202 116 221 c 2
 263 354 l 1
 249 411 249 463 249 474 c 0
 249 572 269 610 283 633 c 0
 310 677 361 716 417 716 c 0
 473 716 487 663 487 621 c 0
 487 571 476 529 382 435 c 0
 370 424 340 396 328 384 c 1
 356 259 446 121 448 118 c 1
 500 165 591 287 630 340 c 0
 633 343 638 350 638 362 c 0
 638 400 578 401 574 401 c 1
 580 431 l 1
 610 429 696 428 702 428 c 0
 708 428 762 429 799 431 c 1
 797 421 796 410 794 400 c 1
 752 400 719 392 684 364 c 0
 651 338 580 217 462 96 c 1
 515 23 553 9 585 9 c 0
 642 9 705 54 716 121 c 1
 741 121 l 1
 725 34 650 -22 578 -22 c 0
 549 -22 484 -17 414 54 c 1
 369 17 301 -22 221 -22 c 0
 135 -22 62 28 62 108 c 0
148 120 m 0
 148 106 148 9 231 9 c 0
 243 9 316 9 397 75 c 1
 364 116 296 226 269 329 c 1
 250 313 206 276 188 251 c 0
 151 198 148 133 148 120 c 0
316 497 m 0
 316 488 316 456 323 409 c 1
 456 532 462 577 462 624 c 0
 462 656 454 694 418 694 c 0
 396 694 316 679 316 497 c 0
EndSplineSet
EndChar

StartChar: quotesingle
Encoding: 39 39 8
Width: 278
GlyphClass: 2
Flags: MW
TeX: 688 0
ItalicCorrection: 50
HStem: 690 20G<248 267.5>
VStem: 185 111
LayerCount: 2
Fore
SplineSet
185 347 m 1
 201 571 195 663 211 686 c 0
 221 701 239 710 257 710 c 0
 278 710 296 698 296 674 c 0
 296 657 208 347 208 347 c 1
 185 347 l 1
EndSplineSet
EndChar

StartChar: parenleft
Encoding: 40 40 9
Width: 388
GlyphClass: 2
Flags: MW
TeX: 749 249
ItalicCorrection: 97
VStem: 129 55<86 115.5 -8.5 230.5>
LayerCount: 2
Fore
SplineSet
129 119 m 0
 129 342 228 551 331 657 c 0
 386 713 434 750 444 750 c 0
 450 750 454 747 454 740 c 0
 454 736 453 735 441 724 c 0
 193 512 184 143 184 88 c 0
 184 -105 257 -195 281 -225 c 0
 291 -236 291 -238 291 -240 c 0
 291 -246 287 -250 281 -250 c 0
 267 -250 208 -187 175 -113 c 0
 139 -33 129 53 129 119 c 0
EndSplineSet
EndChar

StartChar: parenright
Encoding: 41 41 10
Width: 388
GlyphClass: 2
Flags: MW
TeX: 749 249
ItalicCorrection: 13
VStem: 287 55<342 402.5 319 472>
LayerCount: 2
Fore
SplineSet
17 -240 m 0
 17 -237 18 -236 31 -223 c 0
 245 -45 287 273 287 411 c 0
 287 533 260 643 188 727 c 0
 181 735 180 737 180 740 c 0
 180 747 185 750 191 750 c 0
 202 750 270 687 308 585 c 0
 338 503 342 425 342 380 c 0
 342 258 307 18 128 -170 c 0
 106 -192 41 -250 27 -250 c 0
 21 -250 17 -247 17 -240 c 0
EndSplineSet
EndChar

StartChar: asterisk
Encoding: 42 42 11
Width: 500
GlyphClass: 2
Flags: MW
TeX: 749 0
ItalicCorrection: 83
HStem: 413 56<473.5 488> 600 56<189 204>
VStem: 280 55<335.5 357> 342 56<712 732.5>
LayerCount: 2
Fore
SplineSet
138 437 m 0
 138 456 152 462 166 468 c 2
 317 535 l 1
 189 600 l 2
 177 606 169 611 169 623 c 0
 169 639 184 656 201 656 c 0
 207 656 210 656 223 645 c 2
 331 555 l 1
 342 712 l 2
 343 720 345 750 374 750 c 0
 392 750 398 737 398 728 c 0
 398 723 396 717 395 713 c 2
 353 555 l 1
 494 646 l 2
 508 656 510 656 516 656 c 0
 529 656 539 645 539 632 c 0
 539 613 524 606 512 601 c 2
 361 534 l 1
 488 469 l 2
 499 463 508 459 508 446 c 0
 508 428 490 413 476 413 c 0
 471 413 467 413 454 424 c 2
 347 514 l 1
 335 357 l 2
 334 347 332 319 303 319 c 0
 287 319 280 331 280 340 c 0
 280 346 281 351 282 355 c 2
 324 514 l 1
 183 423 l 2
 169 413 167 413 161 413 c 0
 147 413 138 425 138 437 c 0
EndSplineSet
EndChar

StartChar: plus
Encoding: 43 43 12
Width: 778
GlyphClass: 2
Flags: MW
TeX: 583 83
ItalicCorrection: 13
HStem: 239 22<135.5 421 137 417 443 723 137 440>
VStem: 471 23<566 566>
LayerCount: 2
Fore
SplineSet
99 250 m 0
 99 260 112 262 123 262 c 0
 129 262 134 261 137 261 c 2
 421 261 l 1
 422 268 469 558 471 566 c 0
 472 572 476 581 483 581 c 0
 491 581 494 574 494 566 c 0
 494 562 443 261 443 261 c 1
 724 261 l 2
 727 261 733 262 738 262 c 0
 749 262 761 260 761 250 c 0
 761 240 748 238 737 238 c 0
 731 238 726 239 723 239 c 2
 440 239 l 1
 392 -45 l 2
 390 -54 390 -81 377 -81 c 0
 369 -81 366 -74 366 -66 c 0
 366 -57 369 -46 370 -41 c 2
 417 239 l 1
 137 239 l 2
 134 239 127 238 122 238 c 0
 111 238 99 240 99 250 c 0
EndSplineSet
EndChar

StartChar: comma
Encoding: 44 44 13
Width: 277
GlyphClass: 2
Flags: MW
TeX: 105 194
HStem: 0 106<136 150.5>
VStem: 94 112<35.5 39 -28.5 59.5>
LayerCount: 2
Fore
SplineSet
71 -182 m 0
 71 -178 74 -175 77 -173 c 0
 124 -132 173 -72 183 17 c 1
 176 9 160 0 141 0 c 0
 106 0 94 26 94 45 c 0
 94 74 117 106 155 106 c 0
 206 106 206 45 206 33 c 0
 206 -90 96 -193 82 -193 c 0
 76 -193 71 -188 71 -182 c 0
EndSplineSet
EndChar

StartChar: hyphen
Encoding: 45 45 14
Width: 333
GlyphClass: 2
Flags: MW
TeX: 430 0
ItalicCorrection: 8
HStem: 186 59<41 317 51 307>
VStem: 41 276<186 245>
LayerCount: 2
Fore
SplineSet
41 186 m 1
 51 245 l 1
 317 245 l 1
 307 186 l 1
 41 186 l 1
EndSplineSet
EndChar

StartChar: period
Encoding: 46 46 15
Width: 278
GlyphClass: 2
Flags: MW
TeX: 105 0
HStem: 0 105<137.5 157.5>
VStem: 95 106<44.5 60.5>
LayerCount: 2
Fore
SplineSet
95 46 m 0
 95 75 121 105 154 105 c 0
 182 105 201 84 201 59 c 0
 201 30 174 0 141 0 c 0
 110 0 95 25 95 46 c 0
EndSplineSet
EndChar

StartChar: slash
Encoding: 47 47 16
Width: 500
GlyphClass: 2
Flags: W
TeX: 749 249
ItalicCorrection: 97
LayerCount: 2
Fore
SplineSet
17 -237 m 0
 17 -231 22 -224 25 -218 c 2
 521 700 l 2
 546 745 548 748 556 748 c 0
 559 748 565 746 565 737 c 0
 565 731 561 726 559 721 c 2
 49 -221 l 2
 41 -235 36 -248 27 -248 c 0
 21 -248 17 -243 17 -237 c 0
EndSplineSet
EndChar

StartChar: zero
Encoding: 48 48 17
Width: 500
GlyphClass: 2
Flags: MW
TeX: 641 0
ItalicCorrection: 79
HStem: -22 22<233.5 264 233.5 286> 644 22<342.5 370.5>
VStem: 79 74<158.5 164.5 73 222.5> 455 72<482.5 495.5 439 575.5>
LayerCount: 2
Fore
SplineSet
79 190 m 0
 79 255 102 420 144 505 c 0
 164 545 224 666 360 666 c 0
 500 666 527 539 527 452 c 0
 527 426 517 259 463 140 c 0
 411 23 326 -22 246 -22 c 0
 93 -22 79 127 79 190 c 0
153 129 m 0
 153 17 217 0 250 0 c 0
 278 0 348 12 388 125 c 0
 414 202 455 446 455 519 c 0
 455 632 384 644 357 644 c 0
 328 644 264 631 225 541 c 0
 193 465 153 200 153 129 c 0
EndSplineSet
Substitution2: "'onum' +xiy03MKk0MDHfMIrx5AA lookup 16 subtable" zerooldstyle
EndChar

StartChar: one
Encoding: 49 49 18
Width: 500
GlyphClass: 2
Flags: MW
TeX: 641 0
ItalicCorrection: 79
HStem: 0 31<95 131> 571 31<190 198> 646 20G<382 388>
VStem: 95 329<0 31>
LayerCount: 2
Fore
SplineSet
95 0 m 1
 100 31 l 1
 131 31 l 2
 225 31 227 44 232 75 c 2
 319 597 l 1
 261 571 211 571 185 571 c 1
 187 581 188 592 190 602 c 1
 221 602 311 602 382 666 c 1
 394 666 403 666 403 653 c 0
 403 650 403 648 401 639 c 2
 308 84 l 2
 305 68 305 66 305 61 c 0
 305 39 316 31 394 31 c 2
 424 31 l 1
 423 22 420 8 419 0 c 1
 384 3 297 3 257 3 c 0
 217 3 130 3 95 0 c 1
EndSplineSet
Substitution2: "'onum' +xiy03MKk0MDHfMIrx5AA lookup 16 subtable" oneoldstyle
EndChar

StartChar: two
Encoding: 50 50 19
Width: 500
GlyphClass: 2
Flags: MW
TeX: 641 0
ItalicCorrection: 79
HStem: 0 77<142 318 318 338 142 421> 429 105<187 191> 635 31<302.5 369.5>
VStem: 130 106<471.5 503.5 471.5 507> 440 90<474.5 545> 453 25<174 174>
LayerCount: 2
Fore
SplineSet
50 0 m 1xf4
 50 14 55 27 65 37 c 2
 279 237 l 2
 407 357 440 438 440 511 c 0
 440 579 407 635 332 635 c 0
 273 635 212 598 179 533 c 1
 183 534 184 534 190 534 c 0
 218 534 236 517 236 490 c 0
 236 453 206 429 176 429 c 0
 165 429 130 434 130 474 c 0
 130 540 211 666 347 666 c 0
 441 666 530 614 530 503 c 0xf8
 530 412 470 347 416 300 c 0
 374 263 272 191 142 77 c 1
 318 77 l 2
 358 77 401 80 404 80 c 0
 409 81 413 82 417 86 c 0
 431 103 451 167 453 174 c 1
 478 174 l 1
 421 0 l 1
 50 0 l 1xf4
EndSplineSet
Substitution2: "'onum' +xiy03MKk0MDHfMIrx5AA lookup 16 subtable" twooldstyle
EndChar

StartChar: three
Encoding: 51 51 20
Width: 500
GlyphClass: 2
Flags: MW
TeX: 641 0
ItalicCorrection: 79
HStem: -22 28<223.5 290 223.5 311> 82 111 337 21<241.5 251 251 291> 478 101<207 213.5 207 221> 641 25<342 372>
VStem: 63 115<128 149.5> 156 104<523.5 550.5> 388 100<176.5 232 143.5 242> 429 91<549 576.5 518 589>
LayerCount: 2
Fore
SplineSet
63 116 m 0xfd
 63 183 110 193 128 193 c 0
 163 193 178 169 178 146 c 0
 178 110 145 75 101 82 c 1
 128 18 206 6 241 6 c 0
 339 6 388 127 388 226 c 0xfd
 388 258 381 286 363 308 c 0
 339 337 311 337 291 337 c 2
 251 337 l 2
 232 337 225 337 225 347 c 0
 225 353 228 357 234 358 c 0
 240 360 243 360 262 361 c 0
 306 364 341 366 379 417 c 0
 419 470 429 537 429 561 c 0
 429 617 394 641 350 641 c 0
 334 641 255 637 207 579 c 1
 220 579 260 579 260 536 c 0
 260 511 241 478 201 478 c 0
 168 478 156 502 156 521 c 0
 156 580 230 666 355 666 c 0
 455 666 520 608 520 545 c 0xfa80
 520 491 471 389 349 352 c 1
 436 333 488 268 488 196 c 0
 488 91 380 -22 242 -22 c 0
 145 -22 63 31 63 116 c 0xfd
EndSplineSet
Substitution2: "'onum' +xiy03MKk0MDHfMIrx5AA lookup 16 subtable" threeoldstyle
EndChar

StartChar: four
Encoding: 52 52 21
Width: 500
GlyphClass: 2
Flags: MW
TeX: 641 0
ItalicCorrection: 79
HStem: 0 31<197 221> 165 31<88 321 404 499> 657 20G<461.5 470>
LayerCount: 2
Fore
SplineSet
56 165 m 1
 56 180 59 195 68 206 c 2
 444 662 l 2
 455 676 456 677 467 677 c 0
 473 677 482 677 482 666 c 0
 482 663 482 661 480 652 c 2
 404 196 l 1
 504 196 l 1
 499 165 l 1
 399 165 l 1
 397 153 381 63 381 59 c 0
 381 37 393 31 454 31 c 2
 473 31 l 1
 471 21 470 10 468 0 c 1
 427 3 375 3 333 3 c 0
 293 3 236 3 197 0 c 1
 202 31 l 1
 221 31 l 2
 280 31 296 37 303 58 c 0
 305 65 317 142 321 165 c 1
 56 165 l 1
88 196 m 1
 333 196 l 1
 395 569 l 1
 88 196 l 1
EndSplineSet
Substitution2: "'onum' +xiy03MKk0MDHfMIrx5AA lookup 16 subtable" fouroldstyle
EndChar

StartChar: five
Encoding: 53 53 22
Width: 500
GlyphClass: 2
Flags: MW
TeX: 641 0
ItalicCorrection: 79
HStem: -22 28<200.5 256 200.5 293> 116 98<117.5 140.5> 398 22<301.5 348.5> 551 83<341.5 371> 645 20G<216 221 509 511>
VStem: 75 102<90.5 182> 403 83<278 290 167.5 323>
LayerCount: 2
Fore
SplineSet
75 135 m 0
 75 150 75 214 133 214 c 0
 165 214 177 192 177 172 c 0
 177 151 161 116 120 116 c 0
 115 116 106 117 101 119 c 1
 112 40 172 6 229 6 c 0
 283 6 332 43 358 89 c 0
 395 153 403 268 403 288 c 0
 403 358 372 398 325 398 c 0
 271 398 220 371 185 329 c 0
 178 321 177 319 170 319 c 0
 159 319 156 325 156 331 c 0
 156 335 156 337 158 346 c 2
 208 643 l 2
 210 657 212 665 220 665 c 0
 222 665 224 665 236 660 c 0
 281 640 323 634 360 634 c 0
 399 634 446 641 497 661 c 0
 506 665 508 665 510 665 c 0
 512 665 519 664 519 655 c 0
 519 641 431 551 311 551 c 0
 291 551 264 553 227 565 c 1
 194 370 l 1
 231 402 276 420 327 420 c 0
 426 420 486 339 486 241 c 0
 486 94 357 -22 229 -22 c 0
 137 -22 75 46 75 135 c 0
EndSplineSet
Substitution2: "'onum' +xiy03MKk0MDHfMIrx5AA lookup 16 subtable" fiveoldstyle
EndChar

StartChar: six
Encoding: 54 54 23
Width: 500
GlyphClass: 2
Flags: MW
TeX: 641 0
ItalicCorrection: 79
HStem: -22 28<231 279> 404 22<292.5 361> 510 92<470.5 475.5> 641 25<382 426>
VStem: 84 78<78 351> 412 83<219.5 318.5> 432 94<542.5 564>
LayerCount: 2
Fore
SplineSet
84 202 m 0xfc
 84 500 269 666 414 666 c 0
 470 666 526 643 526 575 c 0
 526 510 478 510 473 510 c 0
 451 510 432 525 432 549 c 0xfa
 432 579 456 602 485 602 c 0
 491 602 493 602 496 601 c 1
 480 637 437 641 415 641 c 0
 349 641 299 594 271 559 c 0
 214 488 199 398 188 332 c 1
 211 373 258 426 327 426 c 0
 447 426 495 322 495 249 c 0
 495 190 478 115 414 52 c 0
 359 -1 309 -22 249 -22 c 0
 116 -22 84 106 84 202 c 0xfc
162 124 m 0
 162 32 211 6 251 6 c 0
 330 6 367 81 373 92 c 0
 399 152 412 275 412 298 c 0xfc
 412 339 398 404 324 404 c 0
 250 404 210 335 194 300 c 0
 162 230 162 127 162 124 c 0
EndSplineSet
Substitution2: "'onum' +xiy03MKk0MDHfMIrx5AA lookup 16 subtable" sixoldstyle
EndChar

StartChar: seven
Encoding: 55 55 24
Width: 500
GlyphClass: 2
Flags: MW
TeX: 641 0
ItalicCorrection: 79
HStem: -22 21G<206 242.5> 567 77<286 592 352 504>
VStem: 179 96
LayerCount: 2
Fore
SplineSet
134 470 m 1
 202 676 l 1
 227 676 l 1
 227 657 226 644 352 644 c 2
 592 644 l 1
 592 624 586 617 579 609 c 2
 402 406 l 2
 321 313 292 138 275 40 c 0
 271 18 265 -22 220 -22 c 0
 192 -22 179 -1 179 17 c 0
 179 27 193 115 238 210 c 0
 260 254 292 315 350 389 c 0
 387 436 461 517 504 567 c 1
 301 567 l 2
 271 567 233 567 210 564 c 0
 198 562 189 561 159 470 c 1
 134 470 l 1
EndSplineSet
Substitution2: "'onum' +xiy03MKk0MDHfMIrx5AA lookup 16 subtable" sevenoldstyle
EndChar

StartChar: eight
Encoding: 56 56 25
Width: 500
GlyphClass: 2
Flags: MW
TeX: 641 0
ItalicCorrection: 79
HStem: -22 28<210.5 296.5 210.5 309> 641 25<315 392>
VStem: 65 50<92.5 164.5 92.5 190.5> 150 51<503 525> 431 56<136 175.5> 474 44<505 567>
LayerCount: 2
Fore
SplineSet
65 127 m 0xf8
 65 254 206 319 243 336 c 1
 207 362 l 2
 166 392 150 437 150 475 c 0
 150 575 248 666 359 666 c 0
 443 666 518 618 518 537 c 0xf4
 518 435 407 381 369 362 c 1
 378 355 401 338 411 332 c 0
 437 313 487 276 487 195 c 0
 487 77 371 -22 247 -22 c 0
 150 -22 65 36 65 127 c 0xf8
115 127 m 0
 115 58 171 6 250 6 c 0
 343 6 431 72 431 151 c 0xf8
 431 200 399 223 371 244 c 2
 265 320 l 1
 177 280 115 202 115 127 c 0
201 523 m 0
 201 483 226 465 261 440 c 2
 347 377 l 1
 419 413 474 472 474 538 c 0xf4
 474 596 427 641 357 641 c 0
 273 641 201 585 201 523 c 0
EndSplineSet
Substitution2: "'onum' +xiy03MKk0MDHfMIrx5AA lookup 16 subtable" eightoldstyle
EndChar

StartChar: nine
Encoding: 57 57 26
Width: 500
GlyphClass: 2
Flags: MW
TeX: 641 0
ItalicCorrection: 79
HStem: -22 28<188.5 235.5 188.5 246.5> 42 92<127.5 134.5> 218 23<252 312.5> 641 25<324.5 388.5>
VStem: 80 94<78.5 99> 111 84<316.5 473> 446 77<422 560.5>
LayerCount: 2
Fore
SplineSet
80 70 m 0xfa
 80 128 121 134 134 134 c 0
 151 134 174 124 174 95 c 0xfa
 174 62 147 42 122 42 c 0
 120 42 115 42 112 43 c 1
 131 12 173 6 204 6 c 0
 267 6 316 50 349 99 c 0
 395 166 409 255 419 315 c 1
 393 268 345 218 280 218 c 0
 153 218 111 334 111 395 c 0xf6
 111 551 238 666 362 666 c 0
 462 666 523 587 523 446 c 0
 523 398 517 248 434 125 c 0
 373 34 289 -22 204 -22 c 0
 150 -22 80 -3 80 70 c 0xfa
195 348 m 0xf6
 195 285 222 241 282 241 c 0
 353 241 397 304 420 363 c 0
 442 422 446 512 446 528 c 0
 446 593 416 641 361 641 c 0
 288 641 248 579 236 556 c 0
 211 507 195 381 195 348 c 0xf6
EndSplineSet
Substitution2: "'onum' +xiy03MKk0MDHfMIrx5AA lookup 16 subtable" nineoldstyle
EndChar

StartChar: colon
Encoding: 58 58 27
Width: 277
GlyphClass: 2
Flags: MW
TeX: 430 0
ItalicCorrection: 13
HStem: 0 106<138 155.5> 325 106<192.5 211.5>
VStem: 94 107<43 61> 148 108<370 386>
LayerCount: 2
Fore
SplineSet
94 46 m 0xe0
 94 76 121 106 155 106 c 0
 176 106 201 92 201 60 c 0
 201 26 170 0 141 0 c 0
 111 0 94 23 94 46 c 0xe0
148 371 m 0xd0
 148 401 176 431 209 431 c 0
 240 431 256 407 256 385 c 0
 256 355 228 325 195 325 c 0
 164 325 148 349 148 371 c 0xd0
EndSplineSet
EndChar

StartChar: semicolon
Encoding: 59 59 28
Width: 278
GlyphClass: 2
Flags: MW
TeX: 430 194
ItalicCorrection: 13
HStem: 0 106<136 150.5> 325 105<191.5 211.5>
VStem: 94 112<35.5 39 -28.5 59.5> 149 106<369.5 385.5>
LayerCount: 2
Fore
SplineSet
149 371 m 0x50
 149 400 175 430 208 430 c 0
 236 430 255 409 255 384 c 0
 255 355 228 325 195 325 c 0
 164 325 149 350 149 371 c 0x50
71 -182 m 0xa0
 71 -178 74 -175 77 -173 c 0
 124 -132 173 -72 183 17 c 1
 176 9 160 0 141 0 c 0
 106 0 94 26 94 45 c 0
 94 74 117 106 155 106 c 0
 206 106 206 45 206 33 c 0
 206 -90 96 -193 82 -193 c 0
 76 -193 71 -188 71 -182 c 0xa0
EndSplineSet
EndChar

StartChar: less
Encoding: 60 60 29
Width: 778
GlyphClass: 2
Flags: W
TeX: 533 39
ItalicCorrection: 34
LayerCount: 2
Fore
SplineSet
127 250 m 0
 127 259 140 264 156 271 c 2
 752 524 l 2
 753 525 761 529 767 529 c 0
 772 529 778 525 778 519 c 0
 778 511 773 508 751 499 c 2
 164 249 l 1
 671 -2 l 2
 684 -9 689 -15 689 -20 c 0
 689 -25 683 -29 678 -29 c 0
 672 -29 667 -25 662 -23 c 2
 144 234 l 2
 134 239 127 243 127 250 c 0
EndSplineSet
EndChar

StartChar: equal
Encoding: 61 61 30
Width: 778
GlyphClass: 2
Flags: MW
TeX: 366 -133
ItalicCorrection: 33
HStem: 141 23<105 109 109 715 715 717> 336 23<126 747 135 747 747 751>
LayerCount: 2
Fore
SplineSet
82 152 m 0
 82 165 96 164 105 164 c 2
 715 164 l 2
 723 164 732 165 738 162 c 0
 742 160 745 156 745 153 c 0
 745 147 737 141 717 141 c 2
 109 141 l 2
 99 141 82 142 82 152 c 0
115 347 m 0
 115 352 117 359 135 359 c 2
 747 359 l 2
 759 359 776 360 776 347 c 0
 776 336 762 336 751 336 c 2
 135 336 l 2
 117 336 115 343 115 347 c 0
EndSplineSet
EndChar

StartChar: greater
Encoding: 62 62 31
Width: 778
GlyphClass: 2
Flags: W
TeX: 533 39
LayerCount: 2
Fore
SplineSet
82 -19 m 0
 82 -9 94 -6 109 1 c 2
 697 251 l 1
 190 502 l 2
 176 509 172 515 172 520 c 0
 172 526 178 529 182 529 c 0
 188 529 194 525 199 523 c 2
 716 267 l 2
 721 264 733 259 733 250 c 0
 733 240 717 234 705 229 c 2
 108 -24 l 2
 107 -25 99 -29 93 -29 c 0
 88 -29 82 -25 82 -19 c 0
EndSplineSet
EndChar

StartChar: question
Encoding: 63 63 32
Width: 472
GlyphClass: 2
Flags: MW
TeX: 688 0
ItalicCorrection: 92
HStem: 0 106<221.5 238.5> 524 91<196 202 196 209.5> 683 22<306.5 354 278 367.5>
VStem: 150 94<566 588.5> 177 107<42 61.5> 243 29 432 80<612.5 639.5>
LayerCount: 2
Fore
SplineSet
150 563 m 0xf2
 150 614 214 705 342 705 c 0
 366 705 512 705 512 588 c 0
 512 567 506 511 439 467 c 0
 297 374 281 277 272 224 c 0
 267 194 266 193 264 191 c 0
 262 188 259 187 255 187 c 0
 251 187 243 188 243 198 c 0xe6
 243 218 258 284 265 306 c 0
 280 354 316 426 379 482 c 0
 391 493 406 507 418 536 c 0
 430 567 432 610 432 615 c 0
 432 664 396 683 339 683 c 0
 274 683 221 651 196 615 c 1
 208 615 244 615 244 576 c 0
 244 556 228 524 191 524 c 0
 162 524 150 545 150 563 c 0xf2
177 46 m 0xea
 177 77 206 106 237 106 c 0
 260 106 284 92 284 59 c 0
 284 25 253 0 224 0 c 0
 194 0 177 24 177 46 c 0xea
EndSplineSet
EndChar

StartChar: at
Encoding: 64 64 33
Width: 777
GlyphClass: 2
Flags: MW
TeX: 688 0
ItalicCorrection: 53
HStem: -11 22<315.5 424.5 315.5 433> 128 22<380.5 430 380.5 435 636.5 674.5> 544 22<438.5 500 422 508.5> 683 22<410.5 576.5>
VStem: 109 25<206 391.5 206 398> 244 67<258 360 258 379.5> 759 25<381.5 490>
LayerCount: 2
Fore
SplineSet
109 285 m 0
 109 511 304 705 504 705 c 0
 664 705 784 582 784 409 c 0
 784 346 763 262 750 226 c 0
 736 188 708 128 642 128 c 0
 605 128 556 146 552 198 c 1
 513 153 460 128 410 128 c 0
 325 128 244 193 244 309 c 0
 244 450 364 566 480 566 c 0
 520 566 576 549 608 481 c 1
 641 481 l 2
 660 481 666 481 666 471 c 0
 666 467 646 345 643 329 c 2
 630 251 l 2
 627 230 621 197 621 189 c 0
 621 166 627 150 646 150 c 0
 703 150 724 217 731 242 c 0
 740 268 759 354 759 409 c 0
 759 571 649 683 504 683 c 0
 317 683 134 498 134 285 c 0
 134 127 238 11 393 11 c 0
 456 11 552 22 669 71 c 0
 683 78 685 78 704 78 c 0
 726 78 731 78 731 68 c 0
 731 62 726 59 718 56 c 0
 587 3 472 -11 394 -11 c 0
 216 -11 109 122 109 285 c 0
311 297 m 0
 311 219 348 150 413 150 c 0
 447 150 499 167 544 224 c 0
 559 242 559 244 562 262 c 2
 594 451 l 1
 578 504 535 544 482 544 c 0
 395 544 311 423 311 297 c 0
EndSplineSet
EndChar

StartChar: A
Encoding: 65 65 34
Width: 750
GlyphClass: 2
Flags: MW
TeX: 688 0
HStem: 0 31 228 31<276 501 276 507 260 501> 696 20G<467 502>
AnchorPoint: "Anchor-5" 492 705 basechar 0
AnchorPoint: "Anchor-4" 374 0 basechar 0
AnchorPoint: "Anchor-1" 593 0 basechar 0
LayerCount: 2
Fore
SplineSet
32 0 m 1
 34 10 35 21 37 31 c 1
 104 31 139 57 161 99 c 2
 467 696 l 2
 475 712 479 716 494 716 c 0
 510 716 511 712 514 693 c 2
 626 75 l 2
 632 41 634 31 706 31 c 2
 722 31 l 1
 721 23 718 9 717 0 c 1
 675 2 629 3 586 3 c 0
 548 3 477 3 442 0 c 1
 443 9 446 23 447 31 c 1
 472 31 536 31 536 64 c 0
 536 67 535 76 534 79 c 2
 507 228 l 1
 260 228 l 1
 244 200 220 151 200 112 c 0
 187 86 187 84 187 76 c 0
 187 34 245 30 254 30 c 1
 248 0 l 1
 220 1 154 3 134 3 c 0
 94 3 53 1 32 0 c 1
276 259 m 1
 501 259 l 1
 443 584 l 1
 276 259 l 1
EndSplineSet
Substitution2: "'c2sc' +swC7OMeQxdDBHAAA +wYzWFbMAuzjHkLhc lookup 2 subtable" A.sc
EndChar

StartChar: B
Encoding: 66 66 35
Width: 708
GlyphClass: 2
Flags: MW
TeX: 688 0
ItalicCorrection: 57
HStem: 0 31<36 51 41 51 278 399 399 427> 344 22<283 426 426 465 280 426> 652 31<150 152 356 381 381 501>
VStem: 584 99<169 235> 614 97<498 557>
AnchorPoint: "Anchor-5" 439 705 basechar 0
AnchorPoint: "Anchor-4" 321 0 basechar 0
LayerCount: 2
Fore
SplineSet
36 0 m 1xf0
 41 31 l 1
 61 31 95 31 114 34 c 0
 144 39 147 51 151 75 c 2
 239 600 l 2
 240 608 242 617 242 624 c 0
 242 646 226 648 204 651 c 0
 188 652 159 652 145 652 c 1
 150 683 l 1
 513 683 l 2
 635 683 711 616 711 534 c 0xe8
 711 445 618 376 517 357 c 1
 604 348 683 294 683 205 c 0
 683 106 574 0 427 0 c 2
 36 0 l 1xf0
231 52 m 0
 231 31 250 31 278 31 c 2
 399 31 l 2
 511 31 584 123 584 215 c 0xf0
 584 255 567 344 465 344 c 2
 280 344 l 1
 234 72 l 2
 231 57 231 55 231 52 c 0
283 366 m 1
 426 366 l 2
 543 366 614 457 614 539 c 0xe8
 614 575 598 652 501 652 c 2
 381 652 l 2
 331 652 330 644 325 615 c 2
 283 366 l 1
EndSplineSet
Substitution2: "'c2sc' +swC7OMeQxdDBHAAA +wYzWFbMAuzjHkLhc lookup 2 subtable" B.sc
EndChar

StartChar: C
Encoding: 67 67 36
Width: 722
GlyphClass: 2
Flags: MW
TeX: 688 0
ItalicCorrection: 86
HStem: -22 31<372 440> 674 31<481.5 549 416 589>
VStem: 108 99<189.5 253 155.5 395.5> 680 25 706 29<423 434.5>
AnchorPoint: "Anchor-5" 519 705 basechar 0
AnchorPoint: "Anchor-4" 406 0 basechar 0
LayerCount: 2
Fore
SplineSet
108 281 m 0
 108 510 313 705 519 705 c 0
 579 705 636 685 681 629 c 0
 688 622 689 621 690 621 c 0
 691 621 691 622 699 630 c 2
 753 692 l 2
 755 694 758 699 760 700 c 0
 762 703 765 705 769 705 c 0
 775 705 781 702 781 694 c 2
 735 423 l 2
 731 420 723 420 721 420 c 0
 715 420 707 420 706 430 c 0
 706 439 707 447 707 455 c 0
 707 566 649 674 529 674 c 0
 434 674 346 616 298 551 c 0
 207 427 207 260 207 246 c 0
 207 65 327 9 417 9 c 0
 469 9 526 26 586 77 c 0
 657 137 673 211 680 241 c 0
 682 250 690 250 693 250 c 0
 698 250 705 249 705 239 c 0
 705 238 693 139 603 58 c 0
 548 9 478 -22 402 -22 c 0
 241 -22 108 98 108 281 c 0
EndSplineSet
Substitution2: "'c2sc' +swC7OMeQxdDBHAAA +wYzWFbMAuzjHkLhc lookup 2 subtable" C.sc
EndChar

StartChar: D
Encoding: 68 68 37
Width: 763
GlyphClass: 2
Flags: MW
TeX: 688 0
ItalicCorrection: 51
HStem: 0 31<35 50 40 50 280 377 377 399> 652 31<149 151 358 383 383 480>
VStem: 673 95<433.5 480.5 292 519.5>
AnchorPoint: "Anchor-5" 466 705 basechar 0
AnchorPoint: "Anchor-4" 349 0 basechar 0
LayerCount: 2
Fore
SplineSet
35 0 m 1
 40 31 l 1
 60 31 94 31 113 34 c 0
 143 39 146 51 150 75 c 2
 238 600 l 2
 239 608 241 617 241 624 c 0
 241 646 225 648 203 651 c 0
 187 652 158 652 144 652 c 1
 149 683 l 1
 512 683 l 2
 668 683 768 560 768 401 c 0
 768 183 590 0 399 0 c 2
 35 0 l 1
233 52 m 0
 233 31 252 31 280 31 c 2
 377 31 l 2
 478 31 550 84 591 139 c 0
 669 245 673 425 673 442 c 0
 673 597 577 652 480 652 c 2
 383 652 l 2
 333 652 332 644 327 615 c 2
 236 72 l 2
 233 57 233 55 233 52 c 0
EndSplineSet
Substitution2: "'c2sc' +swC7OMeQxdDBHAAA +wYzWFbMAuzjHkLhc lookup 2 subtable" D.sc
EndChar

StartChar: E
Encoding: 69 69 38
Width: 680
GlyphClass: 2
Flags: MW
TeX: 688 0
ItalicCorrection: 58
HStem: 0 31<33 60 38 60 60 100.5 281 411 411 489.5> 338 31<287 369 282 375> 649 31<146 163 141 709 360.5 384 384 509>
VStem: 676 24
AnchorPoint: "Anchor-5" 460 705 basechar 0
AnchorPoint: "Anchor-4" 342 0 basechar 0
AnchorPoint: "Anchor-1" 342 0 basechar 0
LayerCount: 2
Fore
SplineSet
33 0 m 1
 35 10 36 21 38 31 c 1
 60 31 l 2
 141 31 143 43 148 75 c 2
 237 607 l 2
 239 616 239 618 239 621 c 0
 239 642 227 649 163 649 c 2
 141 649 l 1
 146 680 l 1
 709 680 l 1
 700 455 l 1
 675 455 l 1
 676 467 676 485 676 498 c 0
 676 607 647 649 509 649 c 2
 384 649 l 2
 337 649 332 643 327 611 c 2
 287 369 l 1
 375 369 l 2
 462 369 490 390 504 486 c 1
 529 486 l 1
 485 221 l 1
 460 221 l 1
 463 238 466 253 466 273 c 0
 466 326 436 338 369 338 c 2
 282 338 l 1
 237 72 l 2
 234 57 234 55 234 52 c 0
 234 31 253 31 281 31 c 2
 411 31 l 2
 568 31 617 85 670 258 c 1
 695 258 l 1
 610 0 l 1
 33 0 l 1
EndSplineSet
Substitution2: "'c2sc' +swC7OMeQxdDBHAAA +wYzWFbMAuzjHkLhc lookup 2 subtable" E.sc
EndChar

StartChar: F
Encoding: 70 70 39
Width: 652
GlyphClass: 2
Flags: MW
TeX: 688 0
ItalicCorrection: 72
HStem: 0 31<33 60 354 354> 325 31<285 363 279 369> 649 31<146 163 141 695 360.5 384 384 500>
VStem: 662 24
AnchorPoint: "Anchor-5" 439 705 basechar 0
AnchorPoint: "Anchor-4" 321 0 basechar 0
LayerCount: 2
Fore
SplineSet
33 0 m 1
 38 31 l 1
 60 31 l 2
 141 31 143 43 148 75 c 2
 237 607 l 2
 239 616 239 618 239 621 c 0
 239 642 227 649 163 649 c 2
 141 649 l 1
 146 680 l 1
 695 680 l 1
 686 455 l 1
 661 455 l 1
 662 467 662 486 662 499 c 0
 662 605 637 649 500 649 c 2
 384 649 l 2
 337 649 332 643 327 611 c 2
 285 356 l 1
 369 356 l 2
 461 356 481 382 496 473 c 1
 521 473 l 1
 477 208 l 1
 452 208 l 1
 455 226 458 243 458 261 c 0
 458 313 428 325 363 325 c 2
 279 325 l 1
 239 84 l 2
 236 68 236 66 236 61 c 0
 236 39 248 31 327 31 c 2
 359 31 l 1
 354 0 l 1
 316 3 228 3 185 3 c 0
 146 3 68 3 33 0 c 1
EndSplineSet
Substitution2: "'c2sc' +swC7OMeQxdDBHAAA +wYzWFbMAuzjHkLhc lookup 2 subtable" F.sc
EndChar

StartChar: G
Encoding: 71 71 40
Width: 784
GlyphClass: 2
Flags: MW
TeX: 688 0
ItalicCorrection: 23
HStem: -22 31<375 446> 1 21G<652.5 662> 242 31<497 497 497 523 492 497> 674 31<488.5 565.5 416 588>
VStem: 108 99<191.5 250 157.5 394.5> 707 29<423 454>
AnchorPoint: "Anchor-5" 519 705 basechar 0
AnchorPoint: "Anchor-4" 408 0 basechar 0
LayerCount: 2
Fore
SplineSet
108 281 m 0xbc
 108 508 312 705 520 705 c 0
 611 705 660 659 691 619 c 1
 754 692 l 2
 765 704 766 705 770 705 c 0
 776 705 782 702 782 694 c 2
 736 423 l 2
 732 420 724 420 722 420 c 0
 715 420 708 420 707 431 c 2
 707 454 l 2
 707 571 646 674 530 674 c 0
 447 674 355 629 293 544 c 0
 207 425 207 253 207 247 c 0
 207 68 328 9 422 9 c 0xbc
 494 9 569 44 592 102 c 0
 595 112 603 156 607 183 c 0
 609 193 612 211 612 213 c 0
 612 235 595 242 523 242 c 2
 492 242 l 1
 497 273 l 1
 518 271 554 271 575 271 c 0
 603 271 630 270 658 270 c 0
 694 270 735 271 781 273 c 1
 780 265 777 251 776 242 c 1
 711 242 706 237 700 202 c 2
 669 20 l 2
 666 4 666 1 658 1 c 0x7c
 647 1 615 41 604 63 c 1
 568 12 488 -22 404 -22 c 0
 237 -22 108 102 108 281 c 0xbc
EndSplineSet
Substitution2: "'c2sc' +swC7OMeQxdDBHAAA +wYzWFbMAuzjHkLhc lookup 2 subtable" G.sc
EndChar

StartChar: H
Encoding: 72 72 41
Width: 750
GlyphClass: 2
Flags: MW
TeX: 688 0
ItalicCorrection: 108
HStem: 0 31<33 60> 340 31<287 580 282 586> 652 31<374.5 442 415 442>
AnchorPoint: "Anchor-5" 492 705 basechar 0
AnchorPoint: "Anchor-4" 374 0 basechar 0
LayerCount: 2
Fore
SplineSet
33 0 m 1
 38 31 l 1
 60 31 l 2
 141 31 143 43 148 75 c 2
 236 600 l 2
 237 608 239 617 239 624 c 0
 239 645 229 652 163 652 c 2
 142 652 l 1
 143 661 146 675 147 683 c 1
 183 680 255 680 294 680 c 0
 332 680 407 680 442 683 c 1
 437 652 l 1
 415 652 l 2
 334 652 332 640 327 609 c 2
 287 371 l 1
 586 371 l 1
 624 600 l 2
 625 608 627 617 627 624 c 0
 627 645 617 652 551 652 c 2
 530 652 l 1
 531 661 534 675 535 683 c 1
 571 680 643 680 682 680 c 0
 720 680 795 680 830 683 c 1
 825 652 l 1
 803 652 l 2
 724 652 720 641 715 609 c 2
 626 76 l 2
 625 68 624 62 624 59 c 0
 624 37 637 31 700 31 c 2
 721 31 l 1
 720 23 717 9 716 0 c 1
 680 3 608 3 569 3 c 0
 531 3 456 3 421 0 c 1
 426 31 l 1
 448 31 l 2
 529 31 531 43 536 75 c 2
 580 340 l 1
 282 340 l 1
 238 76 l 2
 237 68 236 62 236 59 c 0
 236 37 249 31 312 31 c 2
 333 31 l 1
 332 23 329 9 328 0 c 1
 292 3 220 3 181 3 c 0
 143 3 68 3 33 0 c 1
EndSplineSet
Substitution2: "'c2sc' +swC7OMeQxdDBHAAA +wYzWFbMAuzjHkLhc lookup 2 subtable" H.sc
EndChar

StartChar: I
Encoding: 73 73 42
Width: 361
GlyphClass: 2
Flags: MW
TeX: 688 0
ItalicCorrection: 99
HStem: 0 31<28 57> 652 31<376 447 418 447>
AnchorPoint: "Anchor-5" 298 705 basechar 0
AnchorPoint: "Anchor-4" 180 0 basechar 0
AnchorPoint: "Anchor-1" 181 0 basechar 0
LayerCount: 2
Fore
SplineSet
28 0 m 1
 33 31 l 1
 57 31 l 2
 137 31 143 41 148 74 c 2
 236 600 l 2
 237 608 239 617 239 624 c 0
 239 645 228 652 160 652 c 2
 137 652 l 1
 138 661 141 675 142 683 c 1
 177 680 255 680 294 680 c 0
 333 680 411 680 447 683 c 1
 442 652 l 1
 418 652 l 2
 334 652 332 640 327 608 c 2
 239 84 l 2
 238 76 236 67 236 60 c 0
 236 39 243 31 315 31 c 2
 338 31 l 1
 337 22 334 8 333 0 c 1
 298 3 220 3 181 3 c 0
 142 3 64 3 28 0 c 1
EndSplineSet
EndChar

StartChar: J
Encoding: 74 74 43
Width: 513
GlyphClass: 2
Flags: MW
TeX: 688 0
ItalicCorrection: 82
HStem: -22 22<186.5 221.5 186.5 247> 58 112<112.5 127.5> 652 31<541.5 579>
VStem: 58 115<106 125.5>
AnchorPoint: "Anchor-5" 462 705 basechar 0
AnchorPoint: "Anchor-4" 253 0 basechar 0
LayerCount: 2
Fore
SplineSet
58 96 m 0
 58 155 102 170 123 170 c 0
 153 170 173 149 173 123 c 0
 173 89 146 58 109 58 c 0
 104 58 101 58 97 59 c 1
 120 7 176 0 197 0 c 0
 246 0 309 49 326 148 c 2
 402 600 l 2
 405 616 405 618 405 622 c 0
 405 652 364 652 311 652 c 2
 277 652 l 1
 278 660 281 674 282 683 c 1
 305 681 342 681 366 681 c 0
 394 681 421 680 449 680 c 0
 493 680 535 681 579 683 c 1
 574 652 l 1
 509 652 497 652 490 610 c 2
 413 147 l 2
 396 44 294 -22 200 -22 c 0
 114 -22 58 32 58 96 c 0
EndSplineSet
EndChar

StartChar: K
Encoding: 75 75 44
Width: 777
GlyphClass: 2
Flags: MW
TeX: 688 0
ItalicCorrection: 86
HStem: 0 31<33 60 735 735> 652 31<374.5 442 415 442>
AnchorPoint: "Anchor-5" 502 705 basechar 0
AnchorPoint: "Anchor-4" 384 0 basechar 0
LayerCount: 2
Fore
SplineSet
33 0 m 1
 38 31 l 1
 60 31 l 2
 141 31 143 43 148 75 c 2
 236 600 l 2
 237 608 239 617 239 624 c 0
 239 645 229 652 163 652 c 2
 142 652 l 1
 143 661 146 675 147 683 c 1
 183 680 255 680 294 680 c 0
 332 680 407 680 442 683 c 1
 437 652 l 1
 415 652 l 2
 334 652 332 640 327 609 c 2
 273 288 l 1
 637 587 l 2
 645 593 659 605 659 623 c 0
 659 652 620 653 619 653 c 1
 625 683 l 1
 660 680 714 680 750 680 c 0
 777 680 808 680 835 683 c 1
 830 652 l 1
 807 651 751 650 679 591 c 2
 470 420 l 1
 643 80 l 2
 668 32 694 31 741 31 c 1
 735 0 l 1
 693 1 649 3 621 3 c 2
 551 2 l 2
 532 2 496 2 478 0 c 1
 483 31 l 1
 502 31 547 31 547 65 c 0
 547 77 541 91 536 100 c 2
 401 363 l 1
 268 253 l 1
 238 76 l 2
 237 68 236 62 236 59 c 0
 236 37 249 31 312 31 c 2
 333 31 l 1
 332 23 329 9 328 0 c 1
 292 3 220 3 181 3 c 0
 143 3 68 3 33 0 c 1
EndSplineSet
Substitution2: "'c2sc' +swC7OMeQxdDBHAAA +wYzWFbMAuzjHkLhc lookup 2 subtable" K.sc
EndChar

StartChar: L
Encoding: 76 76 45
Width: 625
GlyphClass: 2
Flags: MW
TeX: 688 0
HStem: 0 31<33 60 38 60 60 100.5 281 360 360 448> 652 31<430 467>
AnchorPoint: "Anchor-5" 425 705 basechar 0
AnchorPoint: "Anchor-4" 307 0 basechar 0
LayerCount: 2
Fore
SplineSet
33 0 m 1
 35 10 36 21 38 31 c 1
 60 31 l 2
 141 31 143 43 148 75 c 2
 236 600 l 2
 237 608 239 617 239 624 c 0
 239 645 229 652 163 652 c 2
 142 652 l 1
 143 661 146 675 147 683 c 1
 183 680 259 680 298 680 c 0
 339 680 431 680 467 683 c 1
 462 652 l 1
 430 652 l 2
 334 652 332 639 327 608 c 2
 237 72 l 2
 234 57 234 55 234 52 c 0
 234 31 253 31 281 31 c 2
 360 31 l 2
 536 31 569 150 600 258 c 1
 625 258 l 1
 554 0 l 1
 33 0 l 1
EndSplineSet
Substitution2: "'c2sc' +swC7OMeQxdDBHAAA +wYzWFbMAuzjHkLhc lookup 2 subtable" L.sc
EndChar

StartChar: M
Encoding: 77 77 46
Width: 916
GlyphClass: 2
Flags: MW
TeX: 688 0
ItalicCorrection: 108
HStem: 0 31<270 270> 652 31<151 167 146 318 926.5 966 966 988>
AnchorPoint: "Anchor-5" 575 705 basechar 0
AnchorPoint: "Anchor-4" 458 0 basechar 0
LayerCount: 2
Fore
SplineSet
37 0 m 1
 39 10 40 21 42 31 c 1
 144 31 152 76 156 100 c 2
 240 600 l 2
 241 608 243 617 243 624 c 0
 243 645 233 652 167 652 c 2
 146 652 l 1
 147 661 150 675 151 683 c 1
 318 683 l 2
 345 683 346 682 351 659 c 2
 475 101 l 1
 786 663 l 2
 797 683 801 683 825 683 c 2
 993 683 l 1
 988 652 l 1
 966 652 l 2
 887 652 883 641 878 609 c 2
 789 76 l 2
 788 68 787 62 787 59 c 0
 787 37 800 31 863 31 c 2
 884 31 l 1
 883 23 880 9 879 0 c 1
 842 3 775 3 736 3 c 0
 697 3 628 3 592 0 c 1
 597 31 l 1
 619 31 l 2
 700 31 702 43 707 75 c 2
 804 651 l 1
 803 651 l 1
 451 17 l 2
 446 9 440 0 430 0 c 0
 419 0 417 10 414 22 c 2
 277 643 l 1
 276 643 l 1
 186 108 l 2
 185 100 183 91 183 84 c 0
 183 31 252 31 276 31 c 1
 270 0 l 1
 239 1 176 3 154 3 c 0
 121 3 72 1 37 0 c 1
EndSplineSet
Substitution2: "'c2sc' +swC7OMeQxdDBHAAA +wYzWFbMAuzjHkLhc lookup 2 subtable" M.sc
EndChar

StartChar: N
Encoding: 78 78 47
Width: 750
GlyphClass: 2
Flags: MW
TeX: 688 0
ItalicCorrection: 108
HStem: 0 31<266 266> 652 31<147 169 142 313>
AnchorPoint: "Anchor-5" 492 705 basechar 0
AnchorPoint: "Anchor-4" 374 0 basechar 0
LayerCount: 2
Fore
SplineSet
33 0 m 1
 35 10 36 21 38 31 c 1
 140 31 148 75 152 100 c 2
 243 645 l 1
 232 648 215 652 169 652 c 2
 142 652 l 1
 143 661 146 675 147 683 c 1
 313 683 l 2
 336 683 337 682 345 667 c 2
 610 150 l 1
 681 576 l 2
 684 592 684 594 684 599 c 0
 684 652 614 652 591 652 c 1
 597 683 l 1
 628 682 689 680 713 680 c 0
 746 680 795 682 830 683 c 1
 825 652 l 1
 722 652 714 606 710 580 c 2
 617 23 l 2
 614 5 613 0 601 0 c 0
 591 0 590 2 583 16 c 2
 282 603 l 2
 279 608 274 618 269 625 c 1
 182 108 l 2
 181 100 179 91 179 84 c 0
 179 31 248 31 272 31 c 1
 266 0 l 1
 235 1 172 3 150 3 c 0
 117 3 68 1 33 0 c 1
EndSplineSet
Substitution2: "'c2sc' +swC7OMeQxdDBHAAA +wYzWFbMAuzjHkLhc lookup 2 subtable" N.sc
EndChar

StartChar: O
Encoding: 79 79 48
Width: 777
GlyphClass: 2
Flags: MW
TeX: 688 0
ItalicCorrection: 51
HStem: -22 26<339 423.5 339 486> 680 25<470 542.5>
VStem: 107 101<188 265 170.5 386> 685 98<405.5 494.5 290.5 533>
AnchorPoint: "Anchor-5" 506 705 basechar 0
AnchorPoint: "Anchor-4" 389 0 basechar 0
AnchorPoint: "Anchor-1" 389 0 basechar 0
LayerCount: 2
Fore
SplineSet
107 274 m 0
 107 498 299 705 506 705 c 0
 662 705 783 584 783 405 c 0
 783 176 587 -22 385 -22 c 0
 225 -22 107 102 107 274 c 0
208 248 m 0
 208 93 289 4 389 4 c 0
 458 4 538 45 602 142 c 0
 661 234 685 365 685 446 c 0
 685 620 584 680 501 680 c 0
 439 680 353 645 285 543 c 0
 215 435 208 282 208 248 c 0
EndSplineSet
Substitution2: "'c2sc' +swC7OMeQxdDBHAAA +wYzWFbMAuzjHkLhc lookup 2 subtable" O.sc
EndChar

StartChar: P
Encoding: 80 80 49
Width: 680
GlyphClass: 2
Flags: MW
TeX: 688 0
ItalicCorrection: 57
HStem: 0 31<35 62> 316 26<281 417 417 447 280 417> 652 31<149 165 144 500 358 383 383 469>
VStem: 609 100<540 562 466 586>
AnchorPoint: "Anchor-5" 425 705 basechar 0
AnchorPoint: "Anchor-4" 307 0 basechar 0
LayerCount: 2
Fore
SplineSet
35 0 m 1
 40 31 l 1
 62 31 l 2
 143 31 145 43 150 75 c 2
 238 600 l 2
 239 608 241 617 241 624 c 0
 241 645 231 652 165 652 c 2
 144 652 l 1
 145 661 148 675 149 683 c 1
 500 683 l 2
 635 683 709 603 709 521 c 0
 709 411 581 316 447 316 c 2
 280 316 l 1
 240 76 l 2
 239 68 238 62 238 59 c 0
 238 37 251 31 314 31 c 2
 335 31 l 1
 334 23 331 9 330 0 c 1
 294 3 222 3 183 3 c 0
 145 3 70 3 35 0 c 1
281 342 m 1
 417 342 l 2
 508 342 575 377 596 460 c 0
 606 499 609 533 609 547 c 0
 609 625 549 652 469 652 c 2
 383 652 l 2
 333 652 332 644 327 615 c 2
 281 342 l 1
EndSplineSet
Substitution2: "'c2sc' +swC7OMeQxdDBHAAA +wYzWFbMAuzjHkLhc lookup 2 subtable" P.sc
EndChar

StartChar: Q
Encoding: 81 81 50
Width: 777
GlyphClass: 2
Flags: MW
TeX: 688 194
ItalicCorrection: 51
HStem: -194 103<577 622.5 577 635.5> -22 25<374.5 405> 126 22<393 441> 680 25<458.5 542.5>
VStem: 107 97<188 268 178 386> 318 22<44.5 70.5 34 78> 686 97<393.5 494.5 322.5 528> 703 24
AnchorPoint: "Anchor-5" 506 705 basechar 0
AnchorPoint: "Anchor-4" 355 -194 basechar 0
LayerCount: 2
Fore
SplineSet
107 274 m 0xfd
 107 498 299 705 506 705 c 0
 662 705 783 584 783 405 c 0xfe
 783 240 679 75 518 6 c 1
 535 -69 557 -91 597 -91 c 0
 648 -91 691 -52 703 -9 c 0
 707 6 708 11 716 11 c 0
 723 11 727 6 727 -2 c 0
 727 -12 695 -194 576 -194 c 0
 494 -194 483 -121 483 -53 c 2
 483 -7 l 1
 464 -13 425 -22 385 -22 c 0
 225 -22 107 102 107 274 c 0xfd
204 243 m 0
 204 113 259 43 326 15 c 1
 319 25 318 38 318 51 c 0
 318 105 364 148 412 148 c 0
 470 148 495 105 510 42 c 1
 661 141 686 350 686 437 c 0
 686 619 583 680 502 680 c 0
 415 680 335 618 288 545 c 0
 214 433 204 293 204 243 c 0
340 51 m 0
 340 17 360 3 389 3 c 0
 423 3 453 12 482 26 c 1
 479 80 469 126 413 126 c 0
 373 126 340 90 340 51 c 0
EndSplineSet
Substitution2: "'c2sc' +swC7OMeQxdDBHAAA +wYzWFbMAuzjHkLhc lookup 2 subtable" Q.sc
EndChar

StartChar: R
Encoding: 82 82 51
Width: 736
GlyphClass: 2
Flags: MW
TeX: 688 0
HStem: -22 22<618 657> 0 31<35 62 327 327> 331 22<283 392 392 394 279 392> 652 31<149 165 144 461 403 450>
VStem: 488 105<79 104> 507 87<176 235> 594 101<475.5 568 475.5 596.5> 721 26
AnchorPoint: "Anchor-5" 425 705 basechar 0
AnchorPoint: "Anchor-4" 307 0 basechar 0
LayerCount: 2
Fore
SplineSet
35 0 m 1xf7
 40 31 l 1
 62 31 l 2
 143 31 145 43 150 75 c 2
 238 600 l 2
 239 608 241 617 241 624 c 0
 241 645 231 652 165 652 c 2
 144 652 l 1
 149 683 l 1
 461 683 l 2
 597 683 695 613 695 523 c 0
 695 428 589 362 491 340 c 1
 515 332 550 312 569 287 c 0
 594 252 594 228 594 188 c 0xf7
 594 164 593 141 593 117 c 0
 593 41 596 0 640 0 c 0
 674 0 708 34 721 86 c 0
 724 98 725 105 735 105 c 0
 743 105 747 98 747 93 c 0
 747 80 722 -22 635 -22 c 0
 565 -22 488 10 488 96 c 0xfb
 488 112 490 120 496 158 c 0
 507 221 507 226 507 231 c 0
 507 239 507 331 394 331 c 2
 279 331 l 1
 237 76 l 2
 236 68 235 62 235 59 c 0
 235 37 248 31 311 31 c 2
 332 31 l 1
 327 0 l 1
 291 3 220 3 181 3 c 0
 142 3 71 3 35 0 c 1xf7
283 353 m 1
 392 353 l 2
 513 353 594 409 594 541 c 0
 594 652 487 652 413 652 c 0
 393 652 361 652 352 650 c 0
 332 646 331 636 327 615 c 2
 283 353 l 1
EndSplineSet
Substitution2: "'c2sc' +swC7OMeQxdDBHAAA +wYzWFbMAuzjHkLhc lookup 2 subtable" R.sc
EndChar

StartChar: S
Encoding: 83 83 52
Width: 555
GlyphClass: 2
Flags: MW
TeX: 688 0
ItalicCorrection: 58
HStem: -22 31<250.5 348.5 250.5 365.5> 677 28<322.5 407.5 306.5 421.5>
VStem: 139 70<497.5 540.5> 463 70<161 187.5> 525 23<459 482>
AnchorPoint: "Anchor-5" 366 705 basechar 0
AnchorPoint: "Anchor-4" 304 0 basechar 0
LayerCount: 2
Fore
SplineSet
54 -11 m 0xf0
 54 -8 54 -6 56 3 c 2
 90 205 l 2
 93 222 94 227 105 227 c 0
 108 227 117 227 117 216 c 0
 117 204 113 186 113 173 c 0
 113 59 200 9 301 9 c 0
 396 9 463 100 463 179 c 0xf0
 463 196 459 262 395 288 c 1
 315 309 l 2
 234 330 208 336 177 373 c 0
 141 417 139 459 139 481 c 0
 139 600 246 705 367 705 c 0
 448 705 494 667 515 635 c 1
 560 692 l 2
 569 703 570 705 576 705 c 0
 582 705 588 702 588 694 c 2
 548 459 l 2
 545 457 540 456 537 456 c 0
 525 456 525 464 525 474 c 0xe8
 525 490 526 478 526 495 c 0
 526 601 477 677 366 677 c 0
 279 677 209 600 209 523 c 0
 209 472 240 438 273 424 c 0
 280 422 313 413 333 408 c 2
 371 398 l 2
 431 383 463 375 493 337 c 0
 531 291 533 240 533 220 c 0
 533 102 431 -22 300 -22 c 0
 193 -22 149 25 127 48 c 1
 81 -11 l 2
 73 -21 72 -22 65 -22 c 0
 57 -22 54 -17 54 -11 c 0xf0
EndSplineSet
Substitution2: "'c2sc' +swC7OMeQxdDBHAAA +wYzWFbMAuzjHkLhc lookup 2 subtable" S.sc
EndChar

StartChar: T
Encoding: 84 84 53
Width: 722
GlyphClass: 2
Flags: MW
TeX: 688 0
ItalicCorrection: 72
HStem: 0 31<171 214 550 550> 646 31<269 356.5 578 645.5>
VStem: 735 25<452 452>
AnchorPoint: "Anchor-5" 478 705 basechar 0
AnchorPoint: "Anchor-4" 360 0 basechar 0
LayerCount: 2
Fore
SplineSet
111 452 m 1
 168 677 l 1
 779 677 l 1
 760 452 l 1
 735 452 l 1
 738 478 740 502 740 529 c 0
 740 629 704 646 587 646 c 0
 569 646 541 646 532 644 c 0
 512 640 511 630 507 609 c 2
 418 77 l 2
 416 66 416 62 416 61 c 0
 416 39 432 31 517 31 c 2
 555 31 l 1
 550 0 l 1
 509 3 407 3 361 3 c 2
 265 2 l 2
 240 2 196 2 171 0 c 1
 176 31 l 1
 214 31 l 2
 320 31 323 44 328 76 c 2
 416 600 l 2
 417 608 419 617 419 625 c 0
 419 640 414 643 393 645 c 0
 387 646 364 646 349 646 c 0
 189 646 179 607 136 452 c 1
 111 452 l 1
EndSplineSet
Substitution2: "'c2sc' +swC7OMeQxdDBHAAA +wYzWFbMAuzjHkLhc lookup 2 subtable" T.sc
EndChar

StartChar: U
Encoding: 85 85 54
Width: 750
GlyphClass: 2
Flags: MW
TeX: 688 0
ItalicCorrection: 108
HStem: -22 31<369 437 369 451> 652 31<375.5 442 415 442>
VStem: 171 86<125 166 94 194.5>
AnchorPoint: "Anchor-5" 492 705 basechar 0
AnchorPoint: "Anchor-4" 390 0 basechar 0
AnchorPoint: "Anchor-1" 390 0 basechar 0
LayerCount: 2
Fore
SplineSet
142 652 m 1
 143 661 146 675 147 683 c 1
 183 680 255 680 294 680 c 0
 332 680 407 680 442 683 c 1
 437 652 l 1
 415 652 l 2
 336 652 332 641 327 609 c 2
 260 204 l 2
 257 186 257 172 257 160 c 0
 257 28 349 9 389 9 c 0
 485 9 596 89 620 231 c 2
 678 576 l 2
 681 592 681 594 681 599 c 0
 681 652 611 652 588 652 c 1
 594 683 l 1
 624 682 688 680 711 680 c 0
 745 680 792 681 830 683 c 1
 825 652 l 1
 722 652 714 606 710 580 c 2
 651 225 l 2
 630 96 516 -22 386 -22 c 0
 270 -22 171 61 171 189 c 0
 171 200 171 213 174 231 c 2
 236 600 l 2
 237 608 239 617 239 624 c 0
 239 645 229 652 163 652 c 2
 142 652 l 1
EndSplineSet
Substitution2: "'c2sc' +swC7OMeQxdDBHAAA +wYzWFbMAuzjHkLhc lookup 2 subtable" U.sc
EndChar

StartChar: V
Encoding: 86 86 55
Width: 750
GlyphClass: 2
Flags: MW
TeX: 688 0
ItalicCorrection: 127
HStem: -22 21G<363.5 379> 652 31<133 133 133 162>
AnchorPoint: "Anchor-5" 492 705 basechar 0
AnchorPoint: "Anchor-4" 375 0 basechar 0
LayerCount: 2
Fore
SplineSet
128 652 m 1
 133 683 l 1
 156 682 209 680 259 680 c 0
 297 680 368 680 403 683 c 1
 398 652 l 1
 373 652 311 652 311 620 c 0
 311 616 312 613 314 603 c 2
 421 100 l 1
 683 582 l 2
 691 597 693 599 693 609 c 0
 693 626 679 652 627 652 c 1
 632 683 l 1
 656 682 713 680 746 680 c 0
 773 680 813 681 844 683 c 1
 839 652 l 1
 775 652 741 626 719 586 c 2
 398 -2 l 2
 389 -18 387 -22 371 -22 c 0
 356 -22 353 -19 349 1 c 2
 220 611 l 2
 211 652 196 652 128 652 c 1
EndSplineSet
Substitution2: "'c2sc' +swC7OMeQxdDBHAAA +wYzWFbMAuzjHkLhc lookup 2 subtable" V.sc
EndChar

StartChar: W
Encoding: 87 87 56
Width: 1027
GlyphClass: 2
Flags: MW
TeX: 688 0
ItalicCorrection: 127
HStem: -22 21G<318.5 331.5 688.5 701.5> 652 31<132 132 132 159.5>
VStem: 591 80<548.5 635>
AnchorPoint: "Anchor-5" 631 705 basechar 0
AnchorPoint: "Anchor-4" 514 0 basechar 0
LayerCount: 2
Fore
SplineSet
127 652 m 1
 132 683 l 1
 176 681 219 680 253 680 c 0
 291 680 361 680 396 683 c 1
 395 674 392 660 391 652 c 1
 364 652 301 652 301 618 c 0
 301 613 301 611 303 601 c 2
 380 117 l 1
 585 532 l 2
 591 543 591 548 591 549 c 0
 591 558 579 625 575 633 c 0
 567 649 556 652 497 652 c 1
 502 683 l 1
 546 681 589 680 623 680 c 0
 661 680 731 680 766 683 c 1
 765 674 762 660 761 652 c 1
 734 652 671 652 671 618 c 0
 671 617 671 614 673 603 c 2
 750 117 l 1
 978 580 l 2
 983 589 986 596 986 605 c 0
 986 644 930 651 916 652 c 0
 910 653 909 653 909 657 c 2
 913 683 l 1
 931 682 994 680 1031 680 c 0
 1032 680 1085 680 1123 683 c 1
 1121 673 1120 662 1118 652 c 1
 1040 651 1019 608 1007 584 c 2
 718 -2 l 2
 713 -12 708 -22 695 -22 c 0
 682 -22 681 -16 678 3 c 2
 598 506 l 1
 348 -2 l 2
 343 -12 338 -22 325 -22 c 0
 312 -22 310 -14 308 1 c 2
 212 607 l 2
 205 652 192 652 127 652 c 1
EndSplineSet
Substitution2: "'c2sc' +swC7OMeQxdDBHAAA +wYzWFbMAuzjHkLhc lookup 2 subtable" W.sc
EndChar

StartChar: X
Encoding: 88 88 57
Width: 750
GlyphClass: 2
Flags: MW
TeX: 688 0
ItalicCorrection: 99
HStem: 0 31 652 31<422 427>
AnchorPoint: "Anchor-5" 492 705 basechar 0
AnchorPoint: "Anchor-4" 375 0 basechar 0
LayerCount: 2
Fore
SplineSet
24 0 m 1
 26 10 27 21 29 31 c 1
 73 31 137 40 181 92 c 2
 390 339 l 1
 255 611 l 2
 238 645 226 652 162 652 c 2
 146 652 l 1
 147 660 150 674 151 683 c 1
 190 681 253 680 280 680 c 0
 319 680 391 680 427 683 c 1
 422 652 l 1
 379 651 351 634 351 620 c 0
 351 618 351 616 358 604 c 2
 453 414 l 1
 595 583 l 2
 604 593 609 599 609 611 c 0
 609 619 606 644 564 651 c 0
 556 653 555 654 555 657 c 2
 559 683 l 1
 599 680 646 680 686 680 c 0
 719 680 761 682 797 683 c 1
 792 652 l 1
 692 652 652 605 635 585 c 2
 466 386 l 1
 624 68 l 2
 639 38 654 31 714 31 c 2
 731 31 l 1
 729 21 728 10 726 0 c 1
 687 2 624 3 597 3 c 0
 559 3 485 3 450 0 c 1
 451 8 454 22 455 31 c 1
 500 32 525 51 525 62 c 0
 525 63 525 65 519 77 c 2
 404 311 l 1
 226 101 l 2
 213 85 212 75 212 72 c 0
 212 43 246 31 268 30 c 1
 262 0 l 1
 222 3 175 3 135 3 c 0
 102 3 60 1 24 0 c 1
EndSplineSet
Substitution2: "'c2sc' +swC7OMeQxdDBHAAA +wYzWFbMAuzjHkLhc lookup 2 subtable" X.sc
EndChar

StartChar: Y
Encoding: 89 89 58
Width: 750
GlyphClass: 2
Flags: MW
TeX: 688 0
ItalicCorrection: 138
HStem: 0 31<228 249.5 520 520> 652 31<125 125 125 159>
AnchorPoint: "Anchor-5" 492 705 basechar 0
AnchorPoint: "Anchor-4" 374 0 basechar 0
LayerCount: 2
Fore
SplineSet
120 652 m 1
 125 683 l 1
 162 681 224 680 255 680 c 0
 293 680 367 680 402 683 c 1
 397 652 l 1
 371 652 323 652 323 624 c 0
 323 623 323 618 329 605 c 2
 459 315 l 1
 669 584 l 2
 676 593 685 604 685 618 c 0
 685 637 669 652 634 652 c 1
 639 683 l 1
 665 682 723 680 753 680 c 0
 780 680 820 681 851 683 c 1
 846 652 l 1
 807 651 753 645 707 586 c 2
 463 273 l 1
 458 243 428 76 428 60 c 0
 428 39 440 35 462 33 c 0
 482 31 497 31 525 31 c 1
 520 0 l 1
 484 3 413 3 374 3 c 0
 335 3 264 3 228 0 c 1
 233 31 l 1
 266 31 297 31 319 36 c 0
 338 41 341 63 343 75 c 0
 360 167 362 182 376 274 c 1
 224 614 l 2
 209 648 198 652 120 652 c 1
EndSplineSet
Substitution2: "'c2sc' +swC7OMeQxdDBHAAA +wYzWFbMAuzjHkLhc lookup 2 subtable" Y.sc
EndChar

StartChar: Z
Encoding: 90 90 59
Width: 611
GlyphClass: 2
Flags: MW
TeX: 688 0
ItalicCorrection: 86
HStem: 0 34<164 327 327 419> 652 31<339 406 406 561>
VStem: 145 25<458 458>
AnchorPoint: "Anchor-5" 425 705 basechar 0
AnchorPoint: "Anchor-4" 308 0 basechar 0
LayerCount: 2
Fore
SplineSet
58 11 m 0
 58 23 62 28 70 38 c 2
 561 652 l 1
 406 652 l 2
 272 652 201 604 170 458 c 1
 145 458 l 1
 194 683 l 1
 640 683 l 2
 660 683 666 683 666 672 c 0
 666 668 666 660 655 647 c 2
 164 34 l 1
 327 34 l 2
 511 34 548 124 579 267 c 1
 604 267 l 1
 543 0 l 1
 84 0 l 2
 63 0 58 0 58 11 c 0
EndSplineSet
Substitution2: "'c2sc' +swC7OMeQxdDBHAAA +wYzWFbMAuzjHkLhc lookup 2 subtable" Z.sc
EndChar

StartChar: bracketleft
Encoding: 91 91 60
Width: 278
GlyphClass: 2
Flags: MW
TeX: 749 249
ItalicCorrection: 124
HStem: -250 23<133 213> 727 23<292 376 292 292>
VStem: 62 318
LayerCount: 2
Fore
SplineSet
62 -250 m 1
 229 750 l 1
 380 750 l 1
 376 727 l 1
 292 727 l 1
 133 -227 l 1
 217 -227 l 1
 213 -250 l 1
 62 -250 l 1
EndSplineSet
EndChar

StartChar: backslash
Encoding: 92 92 61
Width: 500
GlyphClass: 2
Flags: W
TeX: 749 249
LayerCount: 2
Fore
SplineSet
179 734 m 0
 179 745 185 748 189 748 c 0
 201 748 203 728 204 724 c 2
 400 -222 l 2
 401 -226 402 -230 402 -234 c 0
 402 -245 396 -248 392 -248 c 0
 382 -248 380 -232 378 -224 c 2
 181 722 l 2
 180 726 179 730 179 734 c 0
EndSplineSet
EndChar

StartChar: bracketright
Encoding: 93 93 62
Width: 278
GlyphClass: 2
Flags: MW
TeX: 749 249
ItalicCorrection: 33
HStem: -250 23<-20 68 -16 68 -16 131> 727 23<147 227 143 298>
VStem: -20 318
LayerCount: 2
Fore
SplineSet
-20 -250 m 1
 -16 -227 l 1
 68 -227 l 1
 227 727 l 1
 143 727 l 1
 147 750 l 1
 298 750 l 1
 131 -250 l 1
 -20 -250 l 1
EndSplineSet
EndChar

StartChar: asciicircum
Encoding: 94 94 63
Width: 611
GlyphClass: 2
Flags: MW
TeX: 688 0
ItalicCorrection: 9
HStem: 463 165<409 555>
LayerCount: 2
Fore
SplineSet
198 484 m 1
 409 628 l 1
 573 484 l 1
 573 483 l 1
 555 463 l 1
 401 575 l 1
 400 575 l 1
 209 463 l 1
 198 484 l 1
EndSplineSet
EndChar

StartChar: underscore
Encoding: 95 95 64
Width: 778
GlyphClass: 2
Flags: MW
TeX: 0 232
HStem: -233 40<65 627 78 627 627 628>
LayerCount: 2
Fore
SplineSet
48 -213 m 0
 48 -197 62 -193 78 -193 c 2
 627 -193 l 2
 653 -193 657 -205 657 -213 c 0
 657 -219 653 -232 628 -233 c 2
 77 -233 l 2
 53 -233 48 -221 48 -213 c 0
EndSplineSet
EndChar

StartChar: grave
Encoding: 96 96 65
Width: 500
GlyphClass: 2
Flags: MW
TeX: 641 0
HStem: 490 152<232.5 352>
VStem: 201 169<510 611.5>
LayerCount: 2
Fore
SplineSet
201 600 m 0
 201 623 223 642 242 642 c 0
 261 642 262 636 370 510 c 1
 352 490 l 1
 339 497 327 505 228 567 c 0
 219 573 201 582 201 600 c 0
EndSplineSet
EndChar

StartChar: a
Encoding: 97 97 66
Width: 500
GlyphClass: 2
Flags: MW
TeX: 430 0
HStem: -11 22<187.5 226.5 187.5 246.5> -6 31<399.5 443.5> 240 20 426 22<277 320.5>
VStem: 57 77<59.5 80.5 59.5 128.5> 126 93<326 353 326 355> 346 61<56.5 71 56.5 73> 379 68<324 354>
AnchorPoint: "Anchor-5" 295 448 basechar 0
AnchorPoint: "Anchor-4" 220 0 basechar 0
AnchorPoint: "Anchor-3" 616 694 basechar 0
AnchorPoint: "Anchor-2" 468 -194 basechar 0
AnchorPoint: "Anchor-1" 362 0 basechar 0
LayerCount: 2
Fore
SplineSet
57 82 m 0xba
 57 175 176 254 341 260 c 0
 364 261 366 261 368 262 c 0
 372 265 379 319 379 329 c 0
 379 379 349 426 292 426 c 0
 262 426 208 415 177 380 c 1
 201 379 219 366 219 340 c 0
 219 312 196 288 167 288 c 0
 136 288 126 310 126 327 c 0
 126 383 194 448 295 448 c 0
 379 448 447 398 447 322 c 0xb5
 447 300 424 170 418 138 c 0
 416 125 407 76 407 66 c 0
 407 47 414 25 436 25 c 0
 451 25 470 38 478 68 c 0
 481 77 488 119 492 145 c 1
 517 145 l 1
 511 108 510 100 507 87 c 0
 495 14 439 -6 410 -6 c 0x72
 389 -6 346 4 346 73 c 1
 338 59 291 -11 202 -11 c 0
 154 -11 57 5 57 82 c 0xba
134 80 m 0xb8
 134 39 166 11 209 11 c 0
 244 11 279 28 303 52 c 0
 341 89 346 120 351 150 c 2
 366 240 l 1
 134 230 134 81 134 80 c 0xb8
EndSplineSet
Substitution2: "'smcp' +wYy7OMeQxdDBHAAA +wYzWFQAA +swC7OMeQuFwA lookup 1 subtable" A.sc
EndChar

StartChar: b
Encoding: 98 98 67
Width: 555
GlyphClass: 2
Flags: MW
TeX: 688 0
ItalicCorrection: 21
HStem: -11 22<267 318 253.5 364> 0 21G<106 117.5> 420 22<350.5 397> 652 30 674 20G<288 288>
VStem: 106 28 481 79<279.5 311.5 181 340.5>
AnchorPoint: "Anchor-5" 428 694 basechar 0
AnchorPoint: "Anchor-4" 313 0 basechar 0
AnchorPoint: "Anchor-3" 671 694 basechar 0
AnchorPoint: "Anchor-2" 523 -194 basechar 0
LayerCount: 2
Fore
SplineSet
106 0 m 1x66
 205 594 l 2
 208 612 208 619 208 620 c 0
 208 647 194 652 137 652 c 1
 137 655 141 680 144 682 c 0x76
 145 683 160 684 162 684 c 2
 288 694 l 1
 236 379 l 1
 256 399 308 442 381 442 c 0
 476 442 560 370 560 253 c 0
 560 109 430 -11 298 -11 c 0xae
 236 -11 198 24 178 63 c 1
 140 13 135 6 134 4 c 0
 130 1 129 0 106 0 c 1x66
192 96 m 0
 192 91 212 11 295 11 c 0xa6
 341 11 397 38 434 97 c 0
 476 164 481 271 481 288 c 0
 481 393 418 420 376 420 c 0
 325 420 277 392 248 358 c 0
 232 340 232 338 229 320 c 2
 194 113 l 2
 193 109 192 100 192 96 c 0
EndSplineSet
Substitution2: "'smcp' +wYy7OMeQxdDBHAAA +wYzWFQAA +swC7OMeQuFwA lookup 1 subtable" B.sc
EndChar

StartChar: c
Encoding: 99 99 68
Width: 444
GlyphClass: 2
Flags: MW
TeX: 430 0
ItalicCorrection: 60
HStem: -11 25<234.5 288 234.5 316> 294 92 423 25<272 331>
VStem: 67 81<121 224.5 103 247.5> 368 94<333 338> 407 27
AnchorPoint: "Anchor-5" 324 448 basechar 0
AnchorPoint: "Anchor-4" 251 0 basechar 0
AnchorPoint: "Anchor-3" 560 694 basechar 0
AnchorPoint: "Anchor-2" 412 -194 basechar 0
LayerCount: 2
Fore
SplineSet
67 178 m 0xf4
 67 317 187 448 324 448 c 0
 390 448 462 418 462 353 c 0
 462 313 434 294 409 294 c 0
 378 294 368 316 368 333 c 0xf8
 368 343 373 384 425 386 c 1
 396 421 338 423 324 423 c 0
 220 423 148 292 148 157 c 0
 148 49 210 14 259 14 c 0
 317 14 374 47 407 115 c 0
 413 127 414 129 422 129 c 0
 427 129 434 127 434 119 c 0
 434 110 383 -11 249 -11 c 0
 149 -11 67 64 67 178 c 0xf4
EndSplineSet
Substitution2: "'smcp' +wYy7OMeQxdDBHAAA +wYzWFQAA +swC7OMeQuFwA lookup 1 subtable" C.sc
EndChar

StartChar: d
Encoding: 100 100 69
Width: 555
GlyphClass: 2
Flags: MW
TeX: 688 0
ItalicCorrection: 39
HStem: -11 22<231.5 276 231.5 286.5> 1 30 420 22<311.5 365.5 264 372.5> 652 30 674 20G<565 565>
VStem: 67 79<118.5 152.5 89 251>
AnchorPoint: "Anchor-5" 356 694 basechar 0
AnchorPoint: "Anchor-4" 281 0 basechar 0
AnchorPoint: "Anchor-3" 671 694 basechar 0
AnchorPoint: "Anchor-2" 523 -194 basechar 0
LayerCount: 2
Fore
SplineSet
67 178 m 0xa4
 67 324 199 442 329 442 c 0
 402 442 436 395 446 379 c 1
 482 594 l 2
 485 612 485 619 485 620 c 0
 485 647 471 652 414 652 c 1
 414 655 418 680 421 682 c 0xb4
 422 683 437 684 439 684 c 2
 565 694 l 1
 464 90 l 2
 461 72 461 65 461 63 c 0
 461 36 473 31 532 31 c 1
 532 28 528 3 525 1 c 0x6c
 524 0 509 -1 507 -1 c 2
 378 -11 l 1
 388 53 l 1
 381 46 327 -11 246 -11 c 0
 152 -11 67 59 67 178 c 0xa4
146 143 m 0
 146 35 212 11 251 11 c 0
 301 11 348 40 379 77 c 0
 396 98 396 99 399 118 c 2
 434 325 l 2
 436 336 436 338 436 341 c 0
 436 347 413 420 332 420 c 0
 291 420 238 397 200 345 c 0
 151 275 146 162 146 143 c 0
EndSplineSet
Substitution2: "'smcp' +wYy7OMeQxdDBHAAA +wYzWFQAA +swC7OMeQuFwA lookup 1 subtable" D.sc
EndChar

StartChar: e
Encoding: 101 101 70
Width: 444
GlyphClass: 2
Flags: MW
TeX: 430 0
ItalicCorrection: 56
HStem: -11 25<231 267.5 231 309.5> 231 21<154 390 154 428 150 390> 426 22<296 345 241.5 351.5>
VStem: 61 80<126 166 97 247.5> 395 65<297 318>
AnchorPoint: "Anchor-5" 309 448 basechar 0
AnchorPoint: "Anchor-4" 250 0 basechar 0
AnchorPoint: "Anchor-3" 560 694 basechar 0
AnchorPoint: "Anchor-2" 412 -194 basechar 0
AnchorPoint: "Anchor-1" 250 0 basechar 0
LayerCount: 2
Fore
SplineSet
61 182 m 0
 61 313 174 448 309 448 c 0
 381 448 460 412 460 294 c 0
 460 288 460 272 457 250 c 0
 454 231 452 231 428 231 c 2
 150 231 l 1
 147 216 141 181 141 151 c 0
 141 43 208 14 254 14 c 0
 281 14 360 25 408 117 c 0
 413 127 415 131 423 131 c 0
 432 131 434 124 434 120 c 0
 434 103 371 -11 248 -11 c 0
 143 -11 61 70 61 182 c 0
154 252 m 1
 390 252 l 1
 394 279 395 286 395 308 c 0
 395 328 395 426 308 426 c 0
 284 426 189 411 154 252 c 1
EndSplineSet
Substitution2: "'smcp' +wYy7OMeQxdDBHAAA +wYzWFQAA +swC7OMeQuFwA lookup 1 subtable" E.sc
EndChar

StartChar: f
Encoding: 102 102 71
Width: 305
GlyphClass: 2
Flags: MW
TeX: 688 0
ItalicCorrection: 193
HStem: 0 31<34 72 275 275> 400 31<105 178 100 184 247 359> 683 22<366.5 386.5>
VStem: 375 88<625.5 637>
AnchorPoint: "Anchor-5" 381 694 basechar 0
AnchorPoint: "Anchor-4" 144 0 basechar 0
AnchorPoint: "Anchor-3" 421 694 basechar 0
AnchorPoint: "Anchor-2" 273 -194 basechar 0
LayerCount: 2
Fore
SplineSet
34 0 m 1
 39 31 l 1
 105 31 117 31 124 74 c 2
 178 400 l 1
 100 400 l 1
 105 431 l 1
 184 431 l 1
 191 477 196 509 204 553 c 0
 221 646 306 705 383 705 c 0
 422 705 463 685 463 643 c 0
 463 608 438 591 414 591 c 0
 384 591 375 612 375 628 c 0
 375 646 386 669 414 677 c 1
 406 680 391 683 382 683 c 0
 351 683 323 661 302 635 c 0
 275 599 270 569 262 521 c 2
 247 431 l 1
 364 431 l 1
 359 400 l 1
 245 400 l 1
 191 78 l 2
 188 64 188 62 188 59 c 0
 188 36 205 35 222 33 c 0
 240 31 253 31 280 31 c 1
 275 0 l 1
 243 2 155 3 149 3 c 0
 120 3 74 1 34 0 c 1
EndSplineSet
Substitution2: "'smcp' +wYy7OMeQxdDBHAAA +wYzWFQAA +swC7OMeQuFwA lookup 1 subtable" F.sc
EndChar

StartChar: g
Encoding: 103 103 72
Width: 500
GlyphClass: 2
Flags: MW
TeX: 430 194
ItalicCorrection: 85
HStem: -206 23<171.5 264.5> 7 58<187.5 229 229 268> 149 23<236.5 265.5 234.5 298.5> 419 23<278.5 305> 431 22<505.5 512>
VStem: 14 52<-115 -79.5 -115 -67.5> 93 34<105 118.5> 108 71<219.5 320.5> 363 72<272 374> 407 53<-96.5 -29.5> 512 41<397 431 397 431>
AnchorPoint: "Anchor-5" 297 448 basechar 0
AnchorPoint: "Anchor-4" 219 -194 basechar 0
AnchorPoint: "Anchor-3" 616 694 basechar 0
AnchorPoint: "Anchor-2" 468 -194 basechar 0
LayerCount: 2
Fore
SplineSet
14 -90 m 0xee60
 14 -45 55 3 123 22 c 1
 108 34 93 57 93 91 c 0xee60
 93 146 131 186 139 194 c 1
 123 211 108 238 108 276 c 0
 108 365 197 442 294 442 c 0xf520
 351 442 385 416 395 406 c 1
 429 436 472 453 508 453 c 0
 547 453 553 420 553 410 c 0
 553 384 533 374 520 374 c 0
 501 374 493 389 493 400 c 0
 493 415 507 428 512 430 c 1
 512 431 l 1
 499 431 453 431 409 391 c 1
 426 368 435 343 435 315 c 0xeda0
 435 229 348 149 249 149 c 0
 224 149 186 154 154 180 c 1
 128 154 127 124 127 119 c 0
 127 91 144 66 173 65 c 2
 229 65 l 2
 327 65 460 65 460 -56 c 0
 460 -166 312 -206 217 -206 c 0
 97 -206 14 -155 14 -90 c 0xee60
66 -91 m 0
 66 -139 125 -183 218 -183 c 0
 320 -183 407 -127 407 -66 c 0
 407 7 312 7 224 7 c 0
 151 7 140 7 113 -12 c 0
 79 -35 66 -68 66 -91 c 0
179 249 m 0xf5a0
 179 190 219 172 250 172 c 0
 281 172 317 191 336 226 c 0
 359 265 363 333 363 342 c 0
 363 406 317 419 293 419 c 0
 264 419 230 402 208 368 c 0
 184 330 179 257 179 249 c 0xf5a0
EndSplineSet
Substitution2: "'smcp' +wYy7OMeQxdDBHAAA +wYzWFQAA +swC7OMeQuFwA lookup 1 subtable" G.sc
EndChar

StartChar: h
Encoding: 104 104 73
Width: 555
GlyphClass: 2
Flags: MW
TeX: 688 0
HStem: 0 31<32 38 256 256 534 534> 420 22<368.5 404.5> 652 30 674 20G<292 292>
VStem: 444 67<345.5 376.5>
AnchorPoint: "Anchor-5" 399 694 basechar 0
AnchorPoint: "Anchor-4" 283 0 basechar 0
AnchorPoint: "Anchor-3" 671 694 basechar 0
AnchorPoint: "Anchor-2" 523 -194 basechar 0
LayerCount: 2
Fore
SplineSet
32 0 m 1xd8
 37 31 l 1
 38 31 l 2
 112 31 116 36 122 74 c 2
 209 594 l 2
 212 612 212 619 212 620 c 0
 212 647 198 652 141 652 c 1
 141 655 145 680 148 682 c 0xe8
 149 683 164 684 166 684 c 2
 292 694 l 1
 234 349 l 1
 235 348 l 1
 255 381 308 442 393 442 c 0
 462 442 511 416 511 340 c 0
 511 324 511 321 508 303 c 2
 469 71 l 2
 468 66 467 60 467 56 c 0
 467 31 490 31 540 31 c 1
 534 0 l 1
 502 1 448 3 423 3 c 0
 397 3 344 1 310 0 c 1
 315 31 l 1
 316 31 l 2
 377 31 393 31 399 69 c 2
 433 269 l 2
 442 327 444 338 444 353 c 0
 444 400 424 420 385 420 c 0
 352 420 314 404 284 377 c 0
 235 330 226 282 221 249 c 0
 213 205 206 161 199 117 c 0
 196 97 189 59 189 56 c 0
 189 31 212 31 262 31 c 1
 256 0 l 1
 224 1 170 3 145 3 c 0
 119 3 66 1 32 0 c 1xd8
EndSplineSet
Substitution2: "'smcp' +wYy7OMeQxdDBHAAA +wYzWFQAA +swC7OMeQuFwA lookup 1 subtable" H.sc
EndChar

StartChar: i
Encoding: 105 105 74
Width: 277
GlyphClass: 2
Flags: MW
TeX: 663 0
ItalicCorrection: 52
HStem: 0 31<33 39 246 246> 400 33<128 128 128 131> 422 20G<251 251> 563 106<224 240.5>
VStem: 178 107<607.5 627>
AnchorPoint: "Anchor-5" 251 649 basechar 0
AnchorPoint: "Anchor-4" 143 0 basechar 0
AnchorPoint: "Anchor-3" 393 694 basechar 0
AnchorPoint: "Anchor-2" 245 -194 basechar 0
AnchorPoint: "Anchor-1" 140 0 basechar 0
LayerCount: 2
Fore
SplineSet
33 0 m 1xb8
 38 31 l 1
 39 31 l 2
 113 31 117 36 123 74 c 2
 168 342 l 2
 171 360 171 367 171 368 c 0
 171 395 158 400 104 400 c 1
 104 402 108 422 108 425 c 0
 109 430 110 432 128 433 c 2xd8
 251 442 l 1
 190 78 l 2
 187 62 187 60 187 55 c 0
 187 31 207 31 252 31 c 1
 246 0 l 1
 218 1 180 3 143 3 c 0
 119 3 65 1 33 0 c 1xb8
178 609 m 0
 178 645 210 669 238 669 c 0
 268 669 285 646 285 623 c 0
 285 592 256 563 225 563 c 0
 199 563 178 580 178 609 c 0
EndSplineSet
Substitution2: "'smcp' +wYy7OMeQxdDBHAAA +wYzWFQAA +swC7OMeQuFwA lookup 1 subtable" I.sc
EndChar

StartChar: j
Encoding: 106 106 75
Width: 305
GlyphClass: 2
Flags: MW
TeX: 663 194
ItalicCorrection: 34
HStem: -205 22<36.5 68.5 36.5 79> -170 91 400 30 422 20<284 284> 563 106<250.5 268>
VStem: -62 94<-126 -120> 206 107<606.5 625>
AnchorPoint: "Anchor-4" 76 -194 basechar 0
AnchorPoint: "Anchor-3" 421 694 basechar 0
AnchorPoint: "Anchor-2" 273 -194 basechar 0
LayerCount: 2
Fore
SplineSet
206 609 m 0xce
 206 641 235 669 266 669 c 0
 292 669 313 651 313 623 c 0
 313 590 283 563 253 563 c 0
 225 563 206 585 206 609 c 0xce
-62 -134 m 0xd4
 -62 -106 -42 -79 -9 -79 c 0
 19 -79 32 -99 32 -118 c 0
 32 -134 23 -164 -13 -170 c 1
 10 -183 34 -183 39 -183 c 0
 98 -183 125 -110 135 -51 c 2
 201 342 l 2
 202 350 204 359 204 367 c 0
 204 396 185 400 125 400 c 1
 125 402 129 428 132 430 c 0xe4
 133 431 149 432 150 432 c 2
 284 442 l 1
 202 -51 l 2
 187 -139 117 -205 41 -205 c 0
 -17 -205 -62 -177 -62 -134 c 0xd4
EndSplineSet
Substitution2: "'smcp' +wYy7OMeQxdDBHAAA +wYzWFQAA +swC7OMeQuFwA lookup 1 subtable" J.sc
EndChar

StartChar: k
Encoding: 107 107 76
Width: 527
GlyphClass: 2
Flags: MW
TeX: 688 0
ItalicCorrection: 60
HStem: 0 31<28 34 246 246 510 510> 401 30<378 378 378 379> 652 30 674 20G<288 288>
AnchorPoint: "Anchor-5" 385 694 basechar 0
AnchorPoint: "Anchor-4" 269 0 basechar 0
AnchorPoint: "Anchor-3" 643 694 basechar 0
AnchorPoint: "Anchor-2" 495 -194 basechar 0
LayerCount: 2
Fore
SplineSet
28 0 m 1xd0
 33 31 l 1
 34 31 l 2
 108 31 112 36 118 74 c 2
 205 594 l 2
 208 612 208 619 208 620 c 0
 208 647 194 652 137 652 c 1
 137 655 141 680 144 682 c 0xe0
 145 683 160 684 162 684 c 2
 288 694 l 1
 208 215 l 1
 350 322 l 2
 379 345 398 359 398 379 c 0
 398 392 386 401 372 401 c 1
 378 431 l 1
 400 430 462 428 489 428 c 0
 491 428 529 428 559 431 c 1
 554 400 l 1
 538 399 494 398 427 351 c 0
 416 343 326 277 326 274 c 0
 326 273 331 263 332 261 c 2
 429 84 l 2
 455 37 469 31 516 31 c 1
 510 0 l 1
 483 2 451 3 424 3 c 0
 403 3 343 1 316 0 c 1
 321 31 l 1
 347 31 361 39 361 59 c 0
 361 71 356 81 346 98 c 0
 322 144 287 209 272 234 c 1
 199 179 l 1
 196 163 179 57 179 56 c 0
 179 31 202 31 252 31 c 1
 246 0 l 1
 220 1 160 3 138 3 c 0
 114 3 61 1 28 0 c 1xd0
EndSplineSet
Substitution2: "'smcp' +wYy7OMeQxdDBHAAA +wYzWFQAA +swC7OMeQuFwA lookup 1 subtable" K.sc
EndChar

StartChar: l
Encoding: 108 108 77
Width: 277
GlyphClass: 2
Flags: MW
TeX: 688 0
ItalicCorrection: 39
HStem: 0 31<33 39 254 254> 652 30 674 20G<293 293>
VStem: 33 260
AnchorPoint: "Anchor-5" 259 694 basechar 0
AnchorPoint: "Anchor-4" 144 0 basechar 0
AnchorPoint: "Anchor-3" 393 694 basechar 0
AnchorPoint: "Anchor-2" 245 -194 basechar 0
LayerCount: 2
Fore
SplineSet
33 0 m 1xb0
 38 31 l 1
 39 31 l 2
 113 31 117 36 123 74 c 2
 210 594 l 2
 213 612 213 619 213 620 c 0
 213 647 199 652 142 652 c 1
 142 655 146 680 149 682 c 0xd0
 150 683 165 684 167 684 c 2
 293 694 l 1
 189 71 l 2
 188 66 187 60 187 56 c 0
 187 31 210 31 260 31 c 1
 254 0 l 1
 218 1 168 3 144 3 c 0
 119 3 66 1 33 0 c 1xb0
EndSplineSet
Substitution2: "'smcp' +wYy7OMeQxdDBHAAA +wYzWFQAA +swC7OMeQuFwA lookup 1 subtable" L.sc
EndChar

StartChar: m
Encoding: 109 109 78
Width: 833
GlyphClass: 2
Flags: MW
TeX: 430 0
HStem: 0 31<32 38 256 256 534 534 812 812> 400 30 420 22<368.5 404.5 646.5 682.5>
VStem: 444 68 722 67<345.5 376.5>
AnchorPoint: "Anchor-5" 497 448 basechar 0
AnchorPoint: "Anchor-4" 422 0 basechar 0
AnchorPoint: "Anchor-3" 949 694 basechar 0
AnchorPoint: "Anchor-2" 801 -194 basechar 0
LayerCount: 2
Fore
SplineSet
32 0 m 1xb8
 37 31 l 1
 38 31 l 2
 112 31 116 36 122 74 c 2
 167 342 l 2
 170 360 170 367 170 368 c 0
 170 395 156 400 99 400 c 1
 99 403 103 428 106 430 c 0xd8
 107 431 122 432 124 432 c 2
 247 442 l 1
 230 343 l 1
 231 342 l 1
 246 368 300 442 393 442 c 0
 437 442 508 432 512 345 c 1
 538 389 592 442 671 442 c 0
 740 442 789 416 789 340 c 0
 789 324 789 321 786 303 c 2
 747 71 l 2
 746 66 745 60 745 56 c 0
 745 31 768 31 818 31 c 1
 812 0 l 1
 780 1 726 3 701 3 c 0
 675 3 622 1 588 0 c 1
 593 31 l 1
 594 31 l 2
 655 31 671 31 677 69 c 2
 711 269 l 2
 720 327 722 338 722 353 c 0
 722 400 702 420 663 420 c 0
 630 420 592 404 562 377 c 0
 513 330 504 282 499 249 c 0
 491 205 484 161 477 117 c 0
 474 97 467 59 467 56 c 0
 467 31 490 31 540 31 c 1
 534 0 l 1
 502 1 448 3 423 3 c 0
 397 3 344 1 310 0 c 1
 315 31 l 1
 316 31 l 2
 377 31 393 31 399 69 c 2
 433 269 l 2
 442 327 444 338 444 353 c 0
 444 400 424 420 385 420 c 0
 352 420 314 404 284 377 c 0
 235 330 226 282 221 249 c 0
 213 205 206 161 199 117 c 0
 196 97 189 59 189 56 c 0
 189 31 212 31 262 31 c 1
 256 0 l 1
 224 1 170 3 145 3 c 0
 119 3 66 1 32 0 c 1xb8
EndSplineSet
Substitution2: "'smcp' +wYy7OMeQxdDBHAAA +wYzWFQAA +swC7OMeQuFwA lookup 1 subtable" M.sc
EndChar

StartChar: n
Encoding: 110 110 79
Width: 555
GlyphClass: 2
Flags: MW
TeX: 430 0
HStem: 0 31<32 63 257 257 535 535> 400 31<104 104 104 127.5> 420 22<368.5 404.5>
VStem: 444 67<345.5 376.5>
AnchorPoint: "Anchor-5" 358 448 basechar 0
AnchorPoint: "Anchor-4" 283 0 basechar 0
AnchorPoint: "Anchor-3" 671 694 basechar 0
AnchorPoint: "Anchor-2" 523 -194 basechar 0
LayerCount: 2
Fore
SplineSet
32 0 m 1xb0
 37 31 l 1
 89 31 112 31 119 59 c 0
 120 61 126 95 129 113 c 0
 134 143 170 359 170 368 c 0
 170 395 156 400 99 400 c 1
 104 431 l 1xd0
 247 442 l 1
 230 343 l 1
 231 342 l 1
 246 368 300 442 393 442 c 0
 462 442 511 416 511 340 c 0
 511 323 505 287 501 261 c 2
 486 172 l 2
 483 156 467 61 467 56 c 0
 467 31 490 31 540 31 c 1
 535 0 l 1
 501 1 449 3 423 3 c 0
 397 3 344 1 310 0 c 1
 315 31 l 1
 377 31 393 31 399 69 c 2
 433 269 l 2
 442 327 444 338 444 353 c 0
 444 400 424 420 385 420 c 0
 352 420 314 404 284 377 c 0
 235 330 226 282 221 249 c 0
 213 205 206 161 199 117 c 0
 196 97 189 59 189 56 c 0
 189 31 212 31 262 31 c 1
 257 0 l 1
 223 1 171 3 145 3 c 0
 119 3 66 1 32 0 c 1xb0
EndSplineSet
Substitution2: "'smcp' +wYy7OMeQxdDBHAAA +wYzWFQAA +swC7OMeQuFwA lookup 1 subtable" N.sc
EndChar

StartChar: o
Encoding: 111 111 80
Width: 500
GlyphClass: 2
Flags: MW
TeX: 430 0
ItalicCorrection: 50
HStem: -11 25<238 278 238 314.5> 426 22<311.5 336>
VStem: 60 80<124 162.5 84 242.5> 433 77<287.5 309.5 181.5 355>
AnchorPoint: "Anchor-5" 324 448 basechar 0
AnchorPoint: "Anchor-4" 250 0 basechar 0
AnchorPoint: "Anchor-3" 616 694 basechar 0
AnchorPoint: "Anchor-2" 468 -194 basechar 0
AnchorPoint: "Anchor-1" 250 0 basechar 0
LayerCount: 2
Fore
SplineSet
60 176 m 0
 60 309 182 448 324 448 c 0
 432 448 510 365 510 254 c 0
 510 109 381 -11 248 -11 c 0
 136 -11 60 72 60 176 c 0
140 144 m 0
 140 24 224 14 252 14 c 0
 304 14 359 45 390 102 c 0
 425 168 433 276 433 299 c 0
 433 411 352 426 320 426 c 0
 303 426 233 422 184 342 c 0
 153 291 140 181 140 144 c 0
EndSplineSet
Substitution2: "'smcp' +wYy7OMeQxdDBHAAA +wYzWFQAA +swC7OMeQuFwA lookup 1 subtable" O.sc
EndChar

StartChar: p
Encoding: 112 112 81
Width: 555
GlyphClass: 2
Flags: MW
TeX: 430 194
ItalicCorrection: 30
HStem: -194 31<-4 33 221 221> -11 22<266 337.5 266 363> 400 31<100 100 100 123.5> 417 25<354.5 405>
VStem: 478 82<196 311 180.5 312>
AnchorPoint: "Anchor-5" 387 448 basechar 0
AnchorPoint: "Anchor-4" 280 -194 basechar 0
AnchorPoint: "Anchor-3" 671 694 basechar 0
AnchorPoint: "Anchor-2" 523 -194 basechar 0
LayerCount: 2
Fore
SplineSet
-4 -194 m 1xd8
 1 -163 l 1
 65 -163 78 -163 85 -123 c 2
 164 348 l 2
 165 356 167 365 167 372 c 0
 167 396 152 400 95 400 c 1
 100 431 l 1xe8
 246 442 l 1
 235 377 l 1
 246 389 302 442 383 442 c 0
 481 442 560 368 560 254 c 0
 560 107 428 -11 298 -11 c 0
 228 -11 195 33 184 51 c 1
 180 27 153 -128 153 -138 c 0
 153 -160 163 -163 226 -163 c 1
 221 -194 l 1
 186 -193 135 -191 108 -191 c 0
 82 -191 30 -193 -4 -194 c 1xd8
191 95 m 1
 204 50 238 11 294 11 c 0
 381 11 478 125 478 267 c 0
 478 357 435 417 375 417 c 0xd8
 334 417 275 397 232 336 c 1
 191 95 l 1
EndSplineSet
Substitution2: "'smcp' +wYy7OMeQxdDBHAAA +wYzWFQAA +swC7OMeQuFwA lookup 1 subtable" P.sc
EndChar

StartChar: q
Encoding: 113 113 82
Width: 527
GlyphClass: 2
Flags: MW
TeX: 430 194
ItalicCorrection: 23
HStem: -194 31<494 494> -11 22<216.5 268 216.5 288.5> 417 25<287.5 356 262.5 376.5>
VStem: 67 81<125.5 231.5 125.5 250.5> 493 30<429 442>
AnchorPoint: "Anchor-5" 316 448 basechar 0
AnchorPoint: "Anchor-4" 209 -194 basechar 0
AnchorPoint: "Anchor-3" 643 694 basechar 0
AnchorPoint: "Anchor-2" 495 -194 basechar 0
LayerCount: 2
Fore
SplineSet
67 178 m 0
 67 323 198 442 327 442 c 0
 385 442 426 410 448 350 c 1
 493 429 l 2
 500 441 501 441 503 441 c 0
 504 442 506 442 523 442 c 1
 430 -114 l 2
 429 -122 427 -131 427 -138 c 0
 427 -160 437 -163 500 -163 c 1
 494 -194 l 1
 461 -193 408 -191 382 -191 c 0
 356 -191 304 -193 270 -194 c 1
 271 -185 274 -171 275 -163 c 1
 326 -163 347 -163 356 -140 c 0
 358 -132 383 19 389 59 c 1
 385 54 331 -11 246 -11 c 0
 153 -11 67 58 67 178 c 0
148 162 m 0
 148 89 182 11 251 11 c 0
 285 11 340 26 388 95 c 0
 402 116 402 118 405 135 c 2
 429 276 l 2
 432 291 432 293 432 298 c 0
 432 315 421 417 332 417 c 0
 243 417 148 301 148 162 c 0
EndSplineSet
Substitution2: "'smcp' +wYy7OMeQxdDBHAAA +wYzWFQAA +swC7OMeQuFwA lookup 1 subtable" Q.sc
EndChar

StartChar: r
Encoding: 114 114 83
Width: 391
GlyphClass: 2
Flags: MW
TeX: 430 0
ItalicCorrection: 71
HStem: 0 31<28 34> 400 33<119 119 119 123.5> 420 22<330 368>
VStem: 368 60<372 420 372 420>
AnchorPoint: "Anchor-5" 256 448 basechar 0
AnchorPoint: "Anchor-4" 148 0 basechar 0
AnchorPoint: "Anchor-3" 507 694 basechar 0
AnchorPoint: "Anchor-2" 359 -194 basechar 0
LayerCount: 2
Fore
SplineSet
28 0 m 1xb0
 33 31 l 1
 34 31 l 2
 108 31 112 36 118 74 c 2
 163 342 l 2
 166 360 166 367 166 368 c 0
 166 395 152 400 95 400 c 1
 95 402 99 422 99 425 c 0
 100 430 101 432 119 433 c 2xd0
 241 442 l 1
 224 338 l 1
 225 337 l 1
 249 389 298 442 362 442 c 0
 401 442 428 419 428 387 c 0
 428 357 404 337 379 337 c 0
 366 337 341 344 341 374 c 0
 341 394 352 412 368 419 c 1
 368 420 l 1
 277 420 236 326 219 270 c 0
 214 250 182 73 182 59 c 0
 182 37 194 31 255 31 c 2
 274 31 l 1
 272 21 271 10 269 0 c 1
 237 2 149 3 143 3 c 0
 114 3 68 1 28 0 c 1xb0
EndSplineSet
Substitution2: "'smcp' +wYy7OMeQxdDBHAAA +wYzWFQAA +swC7OMeQuFwA lookup 1 subtable" R.sc
EndChar

StartChar: s
Encoding: 115 115 84
Width: 394
GlyphClass: 2
Flags: MW
TeX: 430 0
ItalicCorrection: 41
HStem: -11 22<179.5 252 174.5 272> 429 19<202.5 272.5 194.5 275.5>
VStem: 58 27<149 149> 86 53<317 334> 330 53<121 146.5> 362 46
AnchorPoint: "Anchor-5" 266 448 basechar 0
AnchorPoint: "Anchor-4" 201 0 basechar 0
AnchorPoint: "Anchor-3" 510 694 basechar 0
AnchorPoint: "Anchor-2" 362 -194 basechar 0
LayerCount: 2
Fore
SplineSet
33 0 m 0xf8
 33 4 33 6 35 15 c 2
 58 149 l 2
 61 167 62 170 72 170 c 0
 84 170 84 165 85 149 c 0
 91 28 150 11 199 11 c 0
 305 11 330 82 330 116 c 0xf8
 330 177 270 189 226 198 c 0
 179 207 149 213 122 236 c 0
 102 253 86 276 86 310 c 0
 86 358 123 448 266 448 c 0
 279 448 323 448 356 420 c 1
 363 426 364 426 376 435 c 0
 391 448 393 448 397 448 c 0
 405 448 408 443 408 437 c 0
 408 434 408 432 406 423 c 2
 389 322 l 2
 386 305 385 299 374 299 c 0
 371 299 362 300 362 309 c 0xf4
 362 312 364 325 364 338 c 0
 364 429 285 429 266 429 c 0
 139 429 139 343 139 342 c 0
 139 292 195 281 240 272 c 0
 294 262 320 257 349 227 c 0
 367 210 383 185 383 147 c 0
 383 95 345 -11 199 -11 c 0
 160 -11 122 -1 96 33 c 1
 91 28 77 15 71 10 c 0
 50 -10 49 -11 44 -11 c 0
 37 -11 33 -7 33 0 c 0xf8
EndSplineSet
Substitution2: "'smcp' +wYy7OMeQxdDBHAAA +wYzWFQAA +swC7OMeQuFwA lookup 1 subtable" S.sc
EndChar

StartChar: t
Encoding: 116 116 85
Width: 388
GlyphClass: 2
Flags: MW
TeX: 614 0
ItalicCorrection: 21
HStem: -11 25<220 256.5> 400 22<86 89 89 89 89 170> 400 31<240 388 245 383>
VStem: 122 67<67.5 87.5 67.5 100.5> 337 25<181 181>
AnchorPoint: "Anchor-5" 241 615 basechar 0
AnchorPoint: "Anchor-4" 213 0 basechar 0
AnchorPoint: "Anchor-3" 504 694 basechar 0
AnchorPoint: "Anchor-2" 356 -194 basechar 0
LayerCount: 2
Fore
SplineSet
86 400 m 1xd8
 89 422 l 1xd8
 181 425 234 521 250 615 c 1
 275 615 l 1
 245 431 l 1
 388 431 l 1
 386 421 385 410 383 400 c 1xb8
 240 400 l 1
 191 104 l 2
 190 97 189 93 189 82 c 0
 189 53 199 14 241 14 c 0
 279 14 302 53 310 68 c 0
 323 94 325 108 337 181 c 1
 362 181 l 1
 349 98 347 85 329 54 c 0
 311 20 280 -11 233 -11 c 0
 203 -11 122 -3 122 94 c 0
 122 107 122 109 125 127 c 2
 170 400 l 1
 86 400 l 1xd8
EndSplineSet
Substitution2: "'smcp' +wYy7OMeQxdDBHAAA +wYzWFQAA +swC7OMeQuFwA lookup 1 subtable" T.sc
EndChar

StartChar: u
Encoding: 117 117 86
Width: 555
GlyphClass: 2
Flags: MW
TeX: 430 0
HStem: -11 22<230.5 282.5 230.5 306.5> 1 30 400 30 422 20G<253 253 531 531>
VStem: 128 65<62.5 70.5 58.5 102.5>
AnchorPoint: "Anchor-5" 357 448 basechar 0
AnchorPoint: "Anchor-4" 283 0 basechar 0
AnchorPoint: "Anchor-3" 671 694 basechar 0
AnchorPoint: "Anchor-2" 523 -194 basechar 0
AnchorPoint: "Anchor-1" 423 0 basechar 0
LayerCount: 2
Fore
SplineSet
99 400 m 1xa8
 99 403 103 428 106 430 c 0xa8
 107 431 122 432 124 432 c 2
 253 442 l 1x18
 195 96 l 2
 194 92 193 73 193 68 c 0
 193 49 194 11 267 11 c 0
 298 11 329 21 361 53 c 0
 404 97 412 149 418 180 c 2
 439 306 l 2
 442 327 448 361 448 368 c 0
 448 395 434 400 377 400 c 1
 377 403 381 428 384 430 c 0xa8
 385 431 400 432 402 432 c 2
 531 442 l 1
 472 90 l 2
 469 72 469 65 469 63 c 0
 469 36 481 31 540 31 c 1
 540 28 536 3 533 1 c 0x58
 532 0 517 -1 515 -1 c 2
 389 -11 l 1
 403 73 l 1
 402 74 l 1
 396 64 351 -11 262 -11 c 0
 159 -11 128 32 128 93 c 0
 128 112 138 168 144 206 c 0
 148 228 170 358 170 368 c 0
 170 395 156 400 99 400 c 1xa8
EndSplineSet
Substitution2: "'smcp' +wYy7OMeQxdDBHAAA +wYzWFQAA +swC7OMeQuFwA lookup 1 subtable" U.sc
EndChar

StartChar: v
Encoding: 118 118 87
Width: 527
GlyphClass: 2
Flags: MW
TeX: 430 0
ItalicCorrection: 85
HStem: -11 21G<255 267> 400 31<92 92 92 115.5>
AnchorPoint: "Anchor-5" 338 448 basechar 0
AnchorPoint: "Anchor-4" 264 0 basechar 0
AnchorPoint: "Anchor-3" 643 694 basechar 0
AnchorPoint: "Anchor-2" 495 -194 basechar 0
LayerCount: 2
Fore
SplineSet
86 400 m 1
 92 431 l 1
 116 430 155 428 187 428 c 0
 210 428 268 430 297 431 c 1
 295 421 294 410 292 400 c 1
 274 400 231 400 231 370 c 0
 231 368 233 357 233 355 c 2
 299 78 l 1
 442 330 l 2
 450 344 454 351 454 364 c 0
 454 399 416 401 413 401 c 1
 419 431 l 1
 433 430 479 428 505 428 c 0
 528 428 557 429 580 431 c 1
 575 400 l 1
 509 399 484 356 472 334 c 2
 287 9 l 2
 278 -7 272 -11 262 -11 c 0
 248 -11 247 -4 243 11 c 2
 161 360 l 2
 153 396 145 400 86 400 c 1
EndSplineSet
Substitution2: "'smcp' +wYy7OMeQxdDBHAAA +wYzWFQAA +swC7OMeQuFwA lookup 1 subtable" V.sc
EndChar

StartChar: w
Encoding: 119 119 88
Width: 722
GlyphClass: 2
Flags: MW
TeX: 430 0
ItalicCorrection: 85
HStem: -11 21G<232 244.5 474 487> 400 31<91 91 91 115>
AnchorPoint: "Anchor-5" 434 448 basechar 0
AnchorPoint: "Anchor-4" 361 0 basechar 0
AnchorPoint: "Anchor-3" 838 694 basechar 0
AnchorPoint: "Anchor-2" 690 -194 basechar 0
LayerCount: 2
Fore
SplineSet
85 400 m 1
 91 431 l 1
 121 429 170 428 183 428 c 0
 199 428 266 430 291 431 c 1
 286 400 l 1
 266 400 223 400 223 368 c 0
 223 366 226 349 227 346 c 2
 276 88 l 1
 402 330 l 1
 398 350 393 381 386 388 c 0
 377 400 353 400 328 400 c 1
 334 431 l 1
 363 429 415 428 421 428 c 0
 447 428 498 430 525 431 c 1
 520 400 l 1
 500 400 457 400 457 368 c 0
 457 367 460 349 461 346 c 2
 512 75 l 1
 646 331 l 2
 649 335 649 337 650 340 c 0
 653 346 653 348 654 356 c 0
 655 357 655 358 655 360 c 0
 655 398 607 401 604 401 c 1
 610 431 l 1
 626 430 671 428 702 428 c 0
 724 428 752 429 774 431 c 1
 772 421 771 410 769 400 c 1
 734 399 701 387 675 336 c 2
 503 8 l 2
 497 -4 493 -11 481 -11 c 0
 467 -11 467 -6 463 12 c 2
 409 292 l 1
 261 9 l 2
 255 -3 251 -11 238 -11 c 0
 226 -11 223 -6 219 13 c 2
 154 357 l 2
 147 394 145 400 85 400 c 1
EndSplineSet
Substitution2: "'smcp' +wYy7OMeQxdDBHAAA +wYzWFQAA +swC7OMeQuFwA lookup 1 subtable" W.sc
EndChar

StartChar: x
Encoding: 120 120 89
Width: 527
GlyphClass: 2
Flags: MW
TeX: 430 0
ItalicCorrection: 68
HStem: 0 31<312 317 515 515> 400 31<89 89 89 112.5>
AnchorPoint: "Anchor-5" 338 448 basechar 0
AnchorPoint: "Anchor-4" 264 0 basechar 0
AnchorPoint: "Anchor-3" 643 694 basechar 0
AnchorPoint: "Anchor-2" 495 -194 basechar 0
LayerCount: 2
Fore
SplineSet
12 0 m 1
 13 9 16 23 17 31 c 1
 94 32 135 71 161 98 c 0
 170 106 264 204 269 210 c 1
 178 362 l 2
 156 398 141 400 84 400 c 1
 89 431 l 1
 113 430 152 428 184 428 c 0
 200 428 266 430 292 431 c 1
 291 422 288 408 287 400 c 1
 258 398 247 383 247 372 c 0
 247 369 247 367 256 354 c 2
 315 256 l 1
 322 264 364 307 367 311 c 0
 395 338 411 354 411 375 c 0
 411 399 394 400 387 401 c 1
 392 431 l 1
 404 430 451 428 487 428 c 0
 515 428 542 429 570 431 c 1
 568 421 567 410 565 400 c 1
 537 400 486 395 433 346 c 1
 327 236 l 1
 381 145 l 2
 404 107 431 63 434 57 c 0
 453 31 474 31 521 31 c 1
 515 0 l 1
 488 2 447 3 421 3 c 0
 398 3 342 1 312 0 c 1
 317 31 l 1
 348 32 357 49 357 59 c 0
 357 63 347 81 340 91 c 2
 281 189 l 1
 191 96 l 2
 183 88 171 72 171 56 c 0
 171 32 188 31 195 30 c 1
 190 0 l 1
 178 1 131 3 95 3 c 0
 67 3 40 2 12 0 c 1
EndSplineSet
Substitution2: "'smcp' +wYy7OMeQxdDBHAAA +wYzWFQAA +swC7OMeQuFwA lookup 1 subtable" X.sc
EndChar

StartChar: y
Encoding: 121 121 90
Width: 527
GlyphClass: 2
Flags: MW
TeX: 430 194
ItalicCorrection: 85
HStem: -205 22<75 101.5 75 117.5> -165 84 400 31<92 92 92 116.5>
VStem: -3 86<-124.5 -116.5>
AnchorPoint: "Anchor-5" 337 448 basechar 0
AnchorPoint: "Anchor-4" 231 -194 basechar 0
AnchorPoint: "Anchor-3" 643 694 basechar 0
AnchorPoint: "Anchor-2" 495 -194 basechar 0
LayerCount: 2
Fore
SplineSet
-3 -135 m 0
 -3 -98 25 -81 47 -81 c 0
 63 -81 83 -89 83 -115 c 0
 83 -134 71 -161 36 -165 c 1
 50 -180 69 -183 81 -183 c 0
 122 -183 156 -150 179 -118 c 0
 197 -94 249 -2 249 1 c 0
 249 3 248 7 246 16 c 2
 160 364 l 2
 152 395 147 400 86 400 c 1
 92 431 l 1
 118 429 158 428 188 428 c 0
 211 428 267 430 297 431 c 1
 296 422 293 408 292 400 c 1
 273 400 231 400 231 370 c 0
 231 366 233 359 234 355 c 2
 300 87 l 1
 441 330 l 2
 446 339 454 352 454 365 c 0
 454 397 420 401 413 401 c 1
 419 431 l 1
 433 430 479 428 505 428 c 0
 534 428 548 428 579 431 c 1
 574 400 l 1
 525 398 496 377 472 336 c 2
 222 -95 l 2
 216 -105 158 -205 77 -205 c 0
 32 -205 -3 -176 -3 -135 c 0
EndSplineSet
Substitution2: "'smcp' +wYy7OMeQxdDBHAAA +wYzWFQAA +swC7OMeQuFwA lookup 1 subtable" Y.sc
EndChar

StartChar: z
Encoding: 122 122 91
Width: 444
GlyphClass: 2
Flags: MW
TeX: 430 0
ItalicCorrection: 55
HStem: 0 25<112 231 231 292> 409 22<222 273 273 388>
AnchorPoint: "Anchor-5" 289 448 basechar 0
AnchorPoint: "Anchor-4" 214 0 basechar 0
AnchorPoint: "Anchor-3" 560 694 basechar 0
AnchorPoint: "Anchor-2" 412 -194 basechar 0
LayerCount: 2
Fore
SplineSet
30 11 m 0
 30 18 31 18 42 31 c 2
 388 409 l 1
 273 409 l 2
 171 409 136 383 112 270 c 1
 87 270 l 1
 125 431 l 1
 443 431 l 2
 462 431 469 431 469 421 c 0
 469 414 466 411 458 402 c 2
 112 25 l 1
 231 25 l 2
 353 25 378 70 407 187 c 1
 432 187 l 1
 384 0 l 1
 56 0 l 2
 35 0 30 0 30 11 c 0
EndSplineSet
Substitution2: "'smcp' +wYy7OMeQxdDBHAAA +wYzWFQAA +swC7OMeQuFwA lookup 1 subtable" Z.sc
EndChar

StartChar: braceleft
Encoding: 123 123 92
Width: 500
GlyphClass: 2
Flags: MW
TeX: 749 249
ItalicCorrection: 80
HStem: -250 24 237 28 718 32
VStem: 194 70<-156 -122.5 -156 -120.5> 237 70<131.5 172>
LayerCount: 2
Fore
SplineSet
115 250 m 0xe8
 115 265 131 259 158 265 c 0
 210 276 257 312 273 360 c 0
 283 391 312 612 325 645 c 0
 355 720 458 750 531 750 c 0
 541 750 549 747 549 738 c 0
 549 722 525 731 486 718 c 0
 448 705 411 679 395 641 c 0
 382 610 353 383 341 350 c 0
 320 292 265 267 207 250 c 1
 254 235 307 207 307 143 c 0xe8
 307 116 264 -109 264 -136 c 0
 264 -176 295 -218 363 -226 c 0
 372 -227 384 -226 386 -238 c 0
 386 -248 376 -250 366 -250 c 0
 312 -250 194 -227 194 -134 c 0xf0
 194 -107 237 119 237 144 c 0
 237 200 188 231 143 237 c 0
 133 238 115 238 115 250 c 0xe8
EndSplineSet
EndChar

StartChar: bar
Encoding: 124 124 93
Width: 278
GlyphClass: 2
Flags: W
TeX: 749 249
ItalicCorrection: 33
LayerCount: 2
Fore
SplineSet
81 -226 m 0
 81 -218 83 -210 84 -202 c 2
 237 713 l 2
 239 726 242 749 260 749 c 0
 265 749 279 745 279 727 c 0
 279 721 278 716 277 710 c 2
 122 -216 l 2
 120 -225 118 -249 100 -249 c 0
 94 -249 81 -244 81 -226 c 0
EndSplineSet
EndChar

StartChar: braceright
Encoding: 125 125 94
Width: 500
GlyphClass: 2
Flags: MW
TeX: 749 249
HStem: -250 32 235 28 730 20<210 251.5>
VStem: 275 70<346.5 370 328 370.5> 318 70<623 636 621 663.5>
LayerCount: 2
Fore
SplineSet
33 -239 m 0xf0
 33 -223 57 -231 96 -218 c 0
 135 -205 170 -179 187 -141 c 0
 201 -110 228 116 241 150 c 0
 261 205 313 232 375 250 c 1
 281 278 275 336 275 357 c 0xf0
 275 384 318 610 318 636 c 0
 318 691 267 721 219 726 c 0
 213 727 206 727 201 730 c 0
 198 732 196 735 196 738 c 0
 196 744 204 750 216 750 c 0
 287 750 387 720 388 636 c 0xe8
 388 606 345 384 345 356 c 0
 345 300 394 269 438 263 c 0
 448 262 467 262 467 250 c 0
 467 235 451 241 424 235 c 0
 374 224 326 190 309 140 c 0
 305 129 308 140 267 -104 c 0
 263 -125 260 -167 208 -204 c 0
 158 -240 90 -250 51 -250 c 0
 41 -250 33 -248 33 -239 c 0xf0
EndSplineSet
EndChar

StartChar: asciitilde
Encoding: 126 126 95
Width: 611
GlyphClass: 2
Flags: MW
TeX: 663 0
ItalicCorrection: 55
HStem: 574 46<482 529> 621 47<287.5 334.5>
LayerCount: 2
Fore
SplineSet
181 589 m 1
 219 625 255 668 320 668 c 0
 388 668 448 620 516 620 c 0
 566 620 593 645 621 668 c 1
 636 653 l 1
 636 652 l 1
 598 616 561 574 497 574 c 0
 429 574 368 621 301 621 c 0
 251 621 220 595 196 574 c 1
 181 589 l 1
EndSplineSet
EndChar

StartChar: exclamdown
Encoding: 161 161 97
Width: 278
GlyphClass: 2
Flags: MW
TeX: 499 194
ItalicCorrection: 24
HStem: 395 105<205 221>
VStem: 58 108<-186.5 -149> 160 106<437.5 456.5> 170 31<281 296>
LayerCount: 2
Fore
SplineSet
58 -173 m 0xd0
 58 -162 61 -150 70 -116 c 2
 170 281 l 2
 172 290 176 312 188 312 c 0
 198 312 201 308 201 296 c 2
 201 289 l 1
 166 -149 l 2
 165 -160 165 -201 120 -214 c 0
 115 -215 110 -216 105 -216 c 0
 82 -216 58 -200 58 -173 c 0xd0
160 440 m 0xa0
 160 473 190 500 220 500 c 0
 244 500 266 481 266 454 c 0
 266 421 236 395 206 395 c 0
 182 395 160 413 160 440 c 0xa0
EndSplineSet
EndChar

StartChar: cent
Encoding: 162 162 98
Width: 500
GlyphClass: 2
Flags: MW
TeX: 523 97
ItalicCorrection: 60
HStem: -10 26<260 265> 294 91 420 26<332 336>
VStem: 66 82<139 208 125.5 243> 425 93<337 340.5>
LayerCount: 2
Fore
SplineSet
66 182 m 0
 66 304 178 436 336 446 c 1
 351 533 l 1
 381 533 l 1
 367 446 l 1
 462 443 518 409 518 353 c 0
 518 321 497 294 465 294 c 0
 440 294 425 311 425 333 c 0
 425 348 434 383 480 385 c 1
 463 400 440 419 363 421 c 1
 295 15 l 1
 448 28 453 129 478 129 c 0
 485 129 489 123 489 120 c 0
 489 99 429 -3 291 -10 c 1
 291 -11 l 1
 276 -97 l 1
 246 -97 l 1
 260 -10 l 1
 126 0 66 96 66 182 c 0
148 167 m 0
 148 84 193 27 265 16 c 1
 332 420 l 1
 189 396 148 249 148 167 c 0
EndSplineSet
EndChar

StartChar: sterling
Encoding: 163 163 99
Width: 726
GlyphClass: 2
Flags: MW
TeX: 688 0
HStem: -11 23<128.5 151 128.5 166.5> -11 44<450.5 514 450.5 517> 94 45<152.5 189> 332 31<239 246 246 297 372 460 460 461> 475 91<614.5 627> 684 23<512 553>
VStem: 62 37<33 52.5 33 61.5> 576 95<518.5 528> 602 29
LayerCount: 2
Fore
SplineSet
62 41 m 0xbe80
 62 82 110 139 195 139 c 0
 208 139 229 137 260 127 c 1
 267 157 l 1
 297 332 l 1
 246 332 l 2
 222 332 214 332 214 347 c 0
 214 356 223 363 239 363 c 2
 302 363 l 1
 307 400 329 528 334 546 c 0
 365 651 458 707 531 707 c 0
 615 707 671 640 671 552 c 0
 671 485 638 475 616 475 c 0
 594 475 576 490 576 514 c 0xbf
 576 542 600 566 629 566 c 0
 635 566 641 565 646 564 c 1
 638 658 573 684 533 684 c 0
 491 684 460 655 445 638 c 0
 398 582 400 515 372 363 c 1
 460 363 l 2
 478 363 483 357 483 350 c 0
 483 343 477 336 474 334 c 0
 470 332 465 332 461 332 c 2
 367 332 l 1
 336 143 338 145 315 101 c 1
 362 73 421 33 480 33 c 0
 548 33 589 85 602 121 c 0
 606 133 607 147 621 147 c 0
 629 147 631 141 631 135 c 0
 631 96 572 -11 462 -11 c 0x7e80
 395 -11 334 33 286 60 c 1
 247 18 195 -11 138 -11 c 0
 92 -11 62 10 62 41 c 0xbe80
99 42 m 0
 99 24 116 12 141 12 c 0
 161 12 210 24 241 82 c 1
 223 89 200 94 178 94 c 0
 126 94 99 63 99 42 c 0
EndSplineSet
EndChar

StartChar: currency
Encoding: 164 164 100
Width: 736
GlyphClass: 2
Flags: MW
TeX: 553 0
ItalicCorrection: 71
HStem: -11 40<338 405> 524 41<422 489 422 515.5>
VStem: 122 40<200.5 244.5> 665 40<308 353.5 308 382>
LayerCount: 2
Fore
SplineSet
41 -26 m 0
 41 -11 64 4 165 90 c 1
 142 128 122 168 122 233 c 0
 122 256 125 369 228 468 c 1
 228 469 l 1
 144 570 144 568 142 579 c 0
 142 591 153 598 162 598 c 0
 176 598 191 575 259 494 c 1
 315 538 386 565 458 565 c 0
 520 565 585 544 635 494 c 1
 636 494 l 1
 755 597 755 598 768 598 c 0
 775 598 785 591 785 580 c 0
 785 565 760 547 662 464 c 1
 685 427 705 386 705 321 c 0
 705 295 702 186 599 86 c 1
 599 85 l 1
 683 -16 685 -15 685 -26 c 0
 685 -37 675 -45 665 -45 c 0
 653 -45 642 -28 568 60 c 1
 512 16 441 -11 369 -11 c 0
 307 -11 241 10 191 60 c 1
 190 60 l 1
 74 -40 71 -45 60 -45 c 0
 49 -45 41 -35 41 -26 c 0
162 233 m 0
 162 112 250 29 368 29 c 0
 524 29 665 170 665 321 c 0
 665 443 573 524 458 524 c 0
 302 524 162 384 162 233 c 0
EndSplineSet
EndChar

StartChar: yen
Encoding: 165 165 101
Width: 750
GlyphClass: 2
Flags: MW
TeX: 688 0
ItalicCorrection: 138
HStem: 0 31<228 238 520 520> 219 23<125.5 371 138 367 458 691 691 694> 413 23<154 303 161 303 161 314 416 535 535 536 416 416 590 725> 652 31<120 125 120 125>
VStem: 374 84<242 278.5>
LayerCount: 2
Fore
SplineSet
108 230 m 0
 108 241 124 242 138 242 c 2
 371 242 l 1
 373 254 374 261 374 268 c 0
 374 289 362 299 314 413 c 1
 161 413 l 2
 147 413 140 419 140 424 c 0
 140 430 148 436 161 436 c 2
 303 436 l 1
 226 608 l 2
 206 652 188 652 124 652 c 2
 120 652 l 1
 125 683 l 1
 176 681 214 680 252 680 c 0
 302 680 352 681 402 683 c 1
 397 652 l 1
 395 652 l 2
 362 652 325 650 325 624 c 0
 325 612 339 586 405 436 c 1
 535 436 l 2
 555 436 557 440 569 455 c 0
 674 590 684 597 684 618 c 0
 684 635 669 650 634 652 c 1
 639 683 l 1
 678 681 716 680 755 680 c 0
 793 680 822 681 851 683 c 1
 846 652 l 1
 756 650 724 608 698 575 c 2
 590 436 l 1
 731 436 l 2
 748 435 750 426 748 421 c 0
 745 413 735 413 725 413 c 2
 585 413 l 2
 577 413 572 411 560 397 c 0
 448 253 465 282 458 242 c 1
 691 242 l 2
 703 242 716 241 716 230 c 0
 716 220 705 219 694 219 c 2
 454 219 l 1
 439 124 428 78 428 62 c 0
 428 31 459 31 511 31 c 2
 525 31 l 1
 520 0 l 1
 478 1 437 3 381 3 c 0
 330 3 279 2 228 0 c 1
 233 31 l 1
 238 31 l 2
 335 31 336 36 346 94 c 0
 353 136 361 177 367 219 c 1
 131 219 l 2
 120 219 108 220 108 230 c 0
416 413 m 1
 459 315 l 1
 536 413 l 1
 416 413 l 1
EndSplineSet
EndChar

StartChar: brokenbar
Encoding: 166 166 102
Width: 167
GlyphClass: 2
Flags: W
TeX: 749 249
ItalicCorrection: 69
LayerCount: 2
Fore
SplineSet
26 -226 m 0
 26 -219 28 -212 29 -205 c 2
 84 129 l 2
 87 143 88 172 109 172 c 0
 123 172 127 161 127 147 c 0
 127 141 126 135 125 129 c 2
 69 -207 l 2
 66 -223 66 -249 45 -249 c 0
 34 -249 26 -238 26 -226 c 0
122 351 m 0
 122 358 124 365 125 372 c 2
 181 707 l 2
 184 725 186 749 205 749 c 0
 216 749 224 738 224 726 c 0
 224 719 222 712 221 705 c 2
 165 370 l 2
 162 354 161 328 141 328 c 0
 130 328 122 339 122 351 c 0
EndSplineSet
EndChar

StartChar: section
Encoding: 167 167 103
Width: 444
GlyphClass: 2
Flags: MW
TeX: 688 194
HStem: -205 22<171.5 227.5 171.5 232.5> -118 69<95 115.5 95 115.5> 548 69<410.5 431> 682 23<297.5 353>
VStem: 67 71<-85.5 -79> 109 47<209.5 250.5 209.5 265.5> 158 47<510.5 564.5 510.5 574.5> 321 47<-64.5 -8.5> 370 47<248.5 289> 388 71<577.5 588.5>
LayerCount: 2
Fore
SplineSet
67 -100 m 0xfb80
 67 -58 92 -49 108 -49 c 0
 123 -49 138 -60 138 -79 c 0xfb80
 138 -92 129 -118 96 -118 c 2
 95 -118 l 1
 112 -169 156 -183 187 -183 c 0
 268 -183 321 -91 321 -38 c 0
 321 21 243 46 215 60 c 0
 158 89 109 147 109 226 c 0
 109 305 157 363 213 391 c 1
 181 427 158 464 158 522 c 0
 158 627 249 705 337 705 c 0
 403 705 459 662 459 599 c 0
 459 556 432 548 418 548 c 0
 403 548 388 559 388 578 c 0xf740
 388 599 404 617 430 617 c 2
 431 617 l 1
 415 668 368 682 338 682 c 0
 257 682 205 590 205 539 c 0
 205 482 276 458 312 440 c 0
 369 411 417 353 417 274 c 0
 417 196 368 137 312 109 c 1
 312 108 l 1
 347 74 368 30 368 -22 c 0
 368 -130 276 -205 189 -205 c 0
 124 -205 67 -163 67 -100 c 0xfb80
156 242 m 0xf780
 156 177 242 160 290 127 c 1
 360 169 370 240 370 257 c 0
 370 321 285 340 236 373 c 1
 166 330 156 259 156 242 c 0xf780
EndSplineSet
EndChar

StartChar: dieresis
Encoding: 168 168 104
Width: 500
GlyphClass: 2
Flags: MW
TeX: 663 0
ItalicCorrection: 37
HStem: 554 105<243.5 260.5 438.5 456>
VStem: 201 106<595 614.5> 395 106<596.5 615>
LayerCount: 2
Fore
SplineSet
395 600 m 0
 395 630 422 659 455 659 c 0
 479 659 501 640 501 613 c 0
 501 580 471 554 441 554 c 0
 416 554 395 573 395 600 c 0
201 600 m 0
 201 629 227 659 260 659 c 0
 284 659 307 640 307 613 c 0
 307 577 274 554 247 554 c 0
 219 554 201 576 201 600 c 0
EndSplineSet
EndChar

StartChar: copyright
Encoding: 169 169 105
Width: 1111
GlyphClass: 2
Flags: MW
TeX: 749 249
HStem: -272 40<397.5 657 397.5 666> -22 31<546 616.5 546 639.5> 469 31<620.5 677.5 562.5 697.5> 732 40<539 791>
VStem: 90 40<53.5 313.5 53.5 325> 314 100<134.5 191.5 106.5 283.5> 776 27 794 35 1064 39<190 451.5>
LayerCount: 2
Fore
SplineSet
314 202 m 0xfe80
 314 365 481 500 644 500 c 0
 711 500 749 476 779 445 c 1
 780 445 l 1
 820 482 838 499 847 499 c 0
 851 499 858 497 858 486 c 0
 858 477 829 308 829 308 c 2
 826 295 820 290 813 290 c 0
 791 290 799 316 794 345 c 0xfd80
 784 407 739 469 656 469 c 0
 585 469 510 432 467 368 c 0
 424 304 414 211 414 172 c 0
 414 41 514 9 578 9 c 0
 655 9 749 60 776 155 c 0
 780 168 781 178 795 178 c 0
 801 178 803 173 803 165 c 0
 803 107 715 -22 564 -22 c 0
 428 -22 314 67 314 202 c 0xfe80
90 164 m 0x9880
 90 486 376 772 681 772 c 0
 915 772 1103 598 1103 336 c 0
 1103 15 819 -272 513 -272 c 0
 279 -272 90 -98 90 164 c 0x9880
130 164 m 0
 130 -57 283 -232 512 -232 c 0
 802 -232 1064 44 1064 336 c 0
 1064 567 901 732 681 732 c 0
 397 732 130 463 130 164 c 0
EndSplineSet
EndChar

StartChar: ordfeminine
Encoding: 170 170 106
Width: 444
GlyphClass: 2
Flags: MW
TeX: 749 0
ItalicCorrection: 87
HStem: 312 23<56 58 58 366> 364 23<162.5 201 162.5 205.5> 370 32 507 21 555 91<157.5 162.5> 743 23<243 276.5>
VStem: 50 79<418 447 418 470> 108 92<593.5 617> 310 69<622.5 658.5> 426 25<455 455>
LayerCount: 2
Fore
SplineSet
37 323 m 0x9cc0
 37 332 47 335 56 335 c 2
 366 335 l 2
 380 335 388 332 388 324 c 0
 388 313 377 312 366 312 c 2
 58 312 l 2
 41 312 37 319 37 323 c 0x9cc0
50 426 m 0xdec0
 50 514 227 527 295 528 c 1
 300 564 310 603 310 642 c 0
 310 675 300 743 253 743 c 0
 233 743 180 731 145 645 c 1
 150 646 155 646 160 646 c 0
 183 646 200 630 200 607 c 0
 200 580 177 555 148 555 c 0
 126 555 108 570 108 593 c 0
 108 641 158 766 258 766 c 0
 330 766 379 702 379 623 c 0
 379 578 348 441 348 422 c 0
 348 410 354 402 380 402 c 2
 381 402 l 2
 421 402 420 417 426 455 c 1
 451 455 l 1
 442 395 441 373 332 370 c 2
 318 370 l 2xbdc0
 291 371 286 383 284 409 c 1
 269 393 239 364 172 364 c 0
 85 364 50 389 50 426 c 0xdec0
129 426 m 0xdec0
 129 410 142 387 183 387 c 0
 219 387 267 404 280 441 c 0
 283 449 288 485 292 507 c 1
 192 503 129 468 129 426 c 0xdec0
EndSplineSet
EndChar

StartChar: guillemotleft
Encoding: 171 171 107
Width: 555
GlyphClass: 2
Flags: MW
TeX: 483 0
ItalicCorrection: 51
VStem: 308 24<22 22> 474 25
LayerCount: 2
Fore
SplineSet
154 242 m 0
 154 251 159 251 190 272 c 0
 346 379 380 481 401 481 c 0
 408 481 410 475 410 472 c 0
 410 455 327 322 225 241 c 1
 267 187 314 116 332 23 c 0
 335 7 330 2 322 2 c 0
 313 2 310 18 308 22 c 0
 251 182 154 222 154 242 c 0
320 241 m 0
 320 252 339 260 356 272 c 0
 512 379 546 481 567 481 c 0
 574 481 576 475 576 472 c 0
 575 455 493 323 391 241 c 1
 480 128 499 31 499 14 c 0
 499 6 496 2 489 2 c 0
 480 2 476 18 474 22 c 0
 417 183 320 221 320 241 c 0
EndSplineSet
Substitution2: "'locl' +rW2sAAAA,+ycDF7QAA +rODHINYV in +t3zS9AAA +x5AA lookup 12 subtable" guillemotleft.lat
AlternateSubs2: "'salt' +wqTQwMd8ua0A +swDFSNYV in +t3zS9AAA +x5AA lookup 9 subtable" guillemotleft.lat
Substitution2: "'locl' +rW2sAAAA,+ycDF7QAA +rODHINYV in +rfi5rQAA +x5AA lookup 4 subtable" guillemotleft.gr
AlternateSubs2: "'salt' +wqTQwMd8ua0A +swDFSNYV in +rfi5rQAA +x5AA lookup 3 subtable" guillemotleft.gr
EndChar

StartChar: logicalnot
Encoding: 172 172 108
Width: 667
GlyphClass: 2
Flags: MW
TeX: 437 0
ItalicCorrection: 43
HStem: 316 40<143 144 144 622>
VStem: 589 76
LayerCount: 2
Fore
SplineSet
112 336 m 0
 112 356 133 356 143 356 c 2
 635 356 l 2
 650 356 665 353 665 333 c 0
 665 324 630 113 627 105 c 0
 623 95 615 91 608 91 c 0
 598 91 589 101 589 111 c 0
 589 120 594 147 622 316 c 1
 144 316 l 2
 129 316 112 319 112 336 c 0
EndSplineSet
EndChar

StartChar: uni00AD
Encoding: 173 173 109
Width: 167
GlyphClass: 2
Flags: MW
TeX: 430 0
ItalicCorrection: 8
HStem: 186 59<41 317 51 307>
VStem: 41 276<186 245>
LayerCount: 2
Fore
SplineSet
41 186 m 1
 51 245 l 1
 317 245 l 1
 307 186 l 1
 41 186 l 1
EndSplineSet
EndChar

StartChar: registered
Encoding: 174 174 110
Width: 1111
GlyphClass: 2
Flags: MW
TeX: 749 249
HStem: -272 40<397.5 657 397.5 666> -22 23<765 816 765 822.5> 0 31<242 258 535 535> 228 22<474 545 545 557 470 545> 447 31<322 331 317 591 538.5 556 556 590> 732 40<539 791>
VStem: 90 40<53.5 313.5 53.5 325> 720 102<319 380.5 319 406> 866 21 1064 39<190 451.5>
LayerCount: 2
Fore
SplineSet
242 0 m 1xbfc0
 247 31 l 1
 258 31 l 2xbfc0
 344 31 351 39 358 80 c 2
 412 402 l 2
 413 407 413 412 413 417 c 0
 413 443 393 447 331 447 c 2
 317 447 l 1
 322 478 l 1
 591 478 l 2
 644 478 686 475 728 459 c 0
 790 436 822 400 822 361 c 0
 822 277 690 245 661 237 c 1
 739 212 737 153 738 134 c 0
 743 48 743 1 787 1 c 0
 845 1 862 85 866 91 c 0
 869 94 872 96 876 96 c 0
 882 96 887 92 887 83 c 0
 887 68 864 -22 781 -22 c 0xdfc0
 715 -22 636 -4 636 70 c 0
 636 93 649 143 649 161 c 0
 649 185 634 228 557 228 c 2
 470 228 l 1
 445 78 443 69 443 61 c 0
 443 34 464 31 529 31 c 2
 540 31 l 1
 535 0 l 1
 485 2 434 3 384 3 c 0
 327 3 284 1 242 0 c 1xbfc0
474 250 m 1
 545 250 l 2
 608 250 720 253 720 373 c 0
 720 439 654 447 590 447 c 2
 556 447 l 2
 521 447 507 444 501 412 c 2
 474 250 l 1
90 164 m 0x8640
 90 486 376 772 681 772 c 0
 915 772 1103 598 1103 336 c 0
 1103 15 819 -272 513 -272 c 0
 279 -272 90 -98 90 164 c 0x8640
130 164 m 0
 130 -57 283 -232 512 -232 c 0
 802 -232 1064 44 1064 336 c 0
 1064 567 901 732 681 732 c 0
 397 732 130 463 130 164 c 0
EndSplineSet
EndChar

StartChar: macron
Encoding: 175 175 111
Width: 500
GlyphClass: 2
Flags: MW
TeX: 663 0
ItalicCorrection: 68
HStem: 649 32<177 543 182 537>
LayerCount: 2
Fore
SplineSet
177 649 m 1
 182 681 l 1
 543 681 l 1
 537 649 l 1
 177 649 l 1
EndSplineSet
EndChar

StartChar: degree
Encoding: 176 176 112
Width: 333
GlyphClass: 2
Flags: MW
TeX: 688 0
HStem: 462 40<229.5 269 229.5 280> 643 40<253 293>
VStem: 149 40<541 579 541 589.5> 333 40<566 602.5>
LayerCount: 2
Fore
SplineSet
149 558 m 0
 149 621 206 683 276 683 c 0
 332 683 373 642 373 587 c 0
 373 522 314 462 246 462 c 0
 190 462 149 503 149 558 c 0
189 558 m 0
 189 524 213 502 246 502 c 0
 292 502 333 545 333 587 c 0
 333 618 310 643 276 643 c 0
 230 643 189 600 189 558 c 0
EndSplineSet
EndChar

StartChar: plusminus
Encoding: 177 177 113
Width: 778
GlyphClass: 2
Flags: MW
TeX: 583 83
ItalicCorrection: 13
HStem: 0 40<88 89 89 374 415 693 693 694> 313 40<136 427 142 420 142 460 467 740> 645 20G<486 503.5>
VStem: 473 42
LayerCount: 2
Fore
SplineSet
59 20 m 0
 61 40 81 40 88 40 c 2
 374 40 l 1
 420 313 l 1
 142 313 l 2
 130 313 112 315 112 333 c 0
 112 351 129 353 142 353 c 2
 427 353 l 1
 431 381 436 409 473 630 c 0
 475 641 476 665 496 665 c 0
 511 665 515 649 515 642 c 0
 515 635 467 355 467 353 c 1
 745 353 l 2
 757 353 775 351 775 333 c 0
 775 314 757 313 740 313 c 2
 460 313 l 1
 415 40 l 1
 693 40 l 2
 703 40 723 40 723 20 c 0
 723 12 718 0 694 0 c 2
 89 0 l 2
 64 0 59 12 59 20 c 0
EndSplineSet
EndChar

StartChar: twosuperior
Encoding: 178 178 114
Width: 444
GlyphClass: 2
Flags: MW
TeX: 749 0
ItalicCorrection: 97
HStem: 347 78<189 320 320 370.5 189 424> 741 31<299 344.5>
VStem: 160 106<655.5 682 655.5 688.5> 409 92<625 680.5>
LayerCount: 2
Fore
SplineSet
107 347 m 1
 117 403 117 406 120 410 c 0
 130 424 274 497 332 538 c 0
 360 558 409 595 409 655 c 0
 409 706 373 741 316 741 c 0
 282 741 251 731 230 717 c 1
 256 710 266 692 266 672 c 0
 266 639 237 613 206 613 c 0
 180 613 160 630 160 658 c 0
 160 719 233 772 336 772 c 0
 415 772 501 739 501 654 c 0
 501 547 375 516 295 478 c 0
 284 473 273 468 189 425 c 1
 320 425 l 2
 421 425 418 425 433 460 c 0
 441 480 448 501 455 522 c 1
 480 522 l 1
 424 347 l 1
 107 347 l 1
EndSplineSet
EndChar

StartChar: threesuperior
Encoding: 179 179 115
Width: 444
GlyphClass: 2
Flags: MW
TeX: 749 0
ItalicCorrection: 97
HStem: 336 29<241.5 315 241.5 338.5> 573 101<218 231 231 233> 747 25<329.5 352.5>
VStem: 113 113<429.5 440> 173 103<615 641> 377 102<462.5 495 437.5 513> 396 92<678.5 712 675 717.5>
LayerCount: 2
Fore
SplineSet
113 422 m 0xf4
 113 458 139 489 177 489 c 0
 204 489 226 471 226 442 c 0
 226 417 212 390 177 379 c 1
 186 376 214 365 269 365 c 0
 361 365 377 442 377 483 c 0xf4
 377 543 324 548 302 548 c 2
 282 548 l 2
 272 548 261 550 261 560 c 0
 261 579 299 568 328 580 c 0
 371 598 396 659 396 698 c 0
 396 737 364 747 341 747 c 0
 318 747 261 738 218 674 c 1
 231 674 l 2
 257 674 276 657 276 631 c 0
 276 599 248 573 218 573 c 0
 194 573 173 590 173 617 c 0
 173 665 231 772 348 772 c 0
 422 772 488 738 488 686 c 0xea
 488 664 473 608 397 574 c 2
 367 562 l 1
 411 554 479 524 479 466 c 0
 479 409 404 336 273 336 c 0
 137 336 113 388 113 422 c 0xf4
EndSplineSet
EndChar

StartChar: acute
Encoding: 180 180 116
Width: 500
GlyphClass: 2
Flags: MW
TeX: 641 0
ItalicCorrection: 23
HStem: 490 152<311 479.5>
VStem: 299 202<510 618.5>
LayerCount: 2
Fore
SplineSet
299 510 m 1
 458 643 452 642 470 642 c 0
 489 642 501 626 501 611 c 0
 501 582 469 571 455 564 c 0
 340 504 326 497 311 490 c 1
 299 510 l 1
EndSplineSet
EndChar

StartChar: uni00B5
Encoding: 181 181 117
Width: 555
GlyphClass: 2
Flags: MW
TeX: 437 194
HStem: -195 31<0 12 225 225> -11 23<240.5 291> 0 31<535 535> 400 30<99 104> 421 20G<254 254 531 531>
LayerCount: 2
Fore
SplineSet
0 -195 m 1xc0
 5 -164 l 1
 12 -164 l 2
 69 -164 82 -159 89 -124 c 2
 165 333 l 2
 167 343 170 356 170 367 c 0
 170 400 138 399 99 400 c 1
 104 430 l 1xd0
 254 441 l 1x88
 204 143 l 2
 200 118 194 87 194 67 c 0
 194 34 214 12 267 12 c 0
 345 12 393 85 409 140 c 0
 415 160 447 355 447 366 c 0
 447 397 417 400 385 400 c 2
 377 400 l 1
 382 430 l 1xd0
 531 441 l 1
 472 85 l 2
 471 78 470 71 470 64 c 0
 470 33 500 31 531 31 c 2
 540 31 l 1
 535 0 l 1xa8
 389 -11 l 1
 402 75 l 1
 365 18 319 -11 263 -11 c 0
 213 -11 188 0 180 3 c 1
 173 -51 158 -123 158 -136 c 0
 158 -159 174 -164 224 -164 c 2
 230 -164 l 1
 225 -195 l 1
 192 -194 160 -192 116 -192 c 0
 77 -192 39 -193 0 -195 c 1xc0
EndSplineSet
EndChar

StartChar: paragraph
Encoding: 182 182 118
Width: 611
GlyphClass: 2
Flags: MW
TeX: 688 194
HStem: -195 40<258 324 277 324 365 434 474 519 519 522> 654 40<499 568 499 499 609 661 661 666.5 432 667 609 609>
LayerCount: 2
Fore
SplineSet
130 433 m 0
 130 541 231 694 432 694 c 2
 661 694 l 2
 672 694 694 694 694 674 c 0
 694 666 689 654 667 654 c 2
 609 654 l 1
 474 -155 l 1
 519 -155 l 2
 533 -155 542 -155 550 -166 c 0
 551 -168 552 -171 552 -174 c 0
 552 -183 545 -195 522 -195 c 2
 268 -195 l 2
 248 -195 239 -184 239 -174 c 0
 239 -156 255 -154 269 -154 c 0
 272 -154 275 -155 277 -155 c 2
 324 -155 l 1
 388 230 l 1
 188 245 130 352 130 433 c 0
365 -155 m 1
 434 -155 l 1
 568 654 l 1
 499 654 l 1
 365 -155 l 1
EndSplineSet
EndChar

StartChar: periodcentered
Encoding: 183 183 119
Width: 278
GlyphClass: 2
Flags: MW
TeX: 437 0
HStem: 189 105<169.5 188.5>
VStem: 126 106<233.5 249.5>
LayerCount: 2
Fore
SplineSet
126 235 m 0
 126 264 153 294 186 294 c 0
 214 294 232 272 232 248 c 0
 232 219 205 189 172 189 c 0
 144 189 126 210 126 235 c 0
EndSplineSet
EndChar

StartChar: cedilla
Encoding: 184 184 120
Width: 444
GlyphClass: 2
Flags: MW
TeX: 0 170
HStem: -204 23<70 93 74 82> -71 71<175 257>
VStem: 249 71<-148.5 -110>
LayerCount: 2
Fore
SplineSet
70 -204 m 1
 74 -181 l 1
 93 -181 l 2
 148 -181 249 -179 249 -118 c 0
 249 -102 237 -74 175 -71 c 1
 187 0 l 1
 257 0 l 1
 248 -54 l 1
 261 -57 320 -66 320 -116 c 0
 320 -186 231 -204 82 -204 c 2
 70 -204 l 1
EndSplineSet
EndChar

StartChar: onesuperior
Encoding: 185 185 121
Width: 444
GlyphClass: 2
Flags: MW
TeX: 749 0
ItalicCorrection: 97
HStem: 347 1<420 420 420 432> 347 31<140 165 145 153 415 432> 666 31<180 185>
VStem: 140 297<347 378>
LayerCount: 2
Fore
SplineSet
140 347 m 1xb0
 145 378 l 1
 165 378 l 2
 241 378 255 383 263 427 c 2
 308 696 l 1
 273 679 240 667 180 666 c 1
 185 697 l 1
 321 699 359 771 380 771 c 0
 390 771 392 764 392 756 c 0
 392 750 390 743 390 741 c 2
 344 465 l 2
 340 440 336 422 336 409 c 0
 336 383 353 378 415 378 c 2
 437 378 l 1
 432 347 l 1
 380 347 l 1x70
 420 348 l 1xb0
 342 349 l 1
 218 349 l 1
 153 347 l 1x70
 140 347 l 1xb0
EndSplineSet
EndChar

StartChar: ordmasculine
Encoding: 186 186 122
Width: 444
GlyphClass: 2
Flags: MW
TeX: 749 0
ItalicCorrection: 87
HStem: 312 23<56 58 58 366> 364 26<206.5 229 206.5 278.5> 743 23<264 299.5>
VStem: 56 79<479 492 451 588> 373 77<643 643.5 532.5 683.5>
LayerCount: 2
Fore
SplineSet
37 323 m 0
 37 332 47 335 56 335 c 2
 366 335 l 2
 380 335 388 332 388 324 c 0
 388 313 377 312 366 312 c 2
 58 312 l 2
 41 312 37 319 37 323 c 0
56 528 m 0
 56 648 165 766 287 766 c 0
 385 766 450 691 450 596 c 0
 450 469 337 364 220 364 c 0
 129 364 56 430 56 528 c 0
135 492 m 1
 135 410 188 390 225 390 c 0
 233 390 274 391 311 428 c 0
 369 488 373 643 373 643 c 1
 373 724 317 743 282 743 c 0
 246 743 215 726 193 702 c 0
 138 643 135 492 135 492 c 1
EndSplineSet
EndChar

StartChar: guillemotright
Encoding: 187 187 123
Width: 555
GlyphClass: 2
Flags: MW
TeX: 483 0
VStem: 136 25 302 25
LayerCount: 2
Fore
SplineSet
59 12 m 0
 59 28 140 159 243 242 c 1
 142 371 136 469 136 469 c 2
 136 476 139 481 145 481 c 0
 154 481 158 470 161 461 c 0
 218 301 315 261 315 242 c 0
 315 222 212 195 86 17 c 0
 80 8 75 2 68 2 c 0
 63 2 59 7 59 12 c 0
225 12 m 0
 225 29 307 159 410 242 c 1
 309 371 302 469 302 469 c 2
 302 476 306 481 312 481 c 0
 321 481 324 470 327 461 c 0
 384 301 482 261 482 242 c 0
 482 222 378 195 252 17 c 0
 246 8 242 2 235 2 c 0
 230 2 225 7 225 12 c 0
EndSplineSet
Substitution2: "'locl' +rW2sAAAA,+ycDF7QAA +rODHINYV in +t3zS9AAA +x5AA lookup 12 subtable" guillemotright.lat
AlternateSubs2: "'salt' +wqTQwMd8ua0A +swDFSNYV in +t3zS9AAA +x5AA lookup 9 subtable" guillemotright.lat
Substitution2: "'locl' +rW2sAAAA,+ycDF7QAA +rODHINYV in +rfi5rQAA +x5AA lookup 4 subtable" guillemotright.gr
AlternateSubs2: "'salt' +wqTQwMd8ua0A +swDFSNYV in +rfi5rQAA +x5AA lookup 3 subtable" guillemotright.gr
EndChar

StartChar: onequarter
Encoding: 188 188 124
Width: 444
GlyphClass: 2
Flags: MW
TeX: 749 194
ItalicCorrection: 97
HStem: -195 31<109 123 381 381> -94 31<48 222 306 401> 258 40<71 448 83 448 448 452> 338 31<139 154 431 431> 701 31<191 211>
LayerCount: 2
Fore
SplineSet
12 -94 m 1
 18 -59 13 -67 40 -40 c 2
 295 219 l 2
 313 237 323 250 340 250 c 0
 352 250 355 244 355 236 c 0
 355 232 355 228 354 225 c 2
 306 -63 l 1
 406 -63 l 1
 401 -94 l 1
 301 -94 l 1
 298 -111 295 -124 295 -134 c 0
 295 -161 313 -164 386 -164 c 1
 381 -195 l 1
 334 -193 288 -192 241 -192 c 0
 215 -192 188 -192 109 -195 c 1
 114 -164 l 1
 123 -164 l 2
 217 -164 212 -154 222 -94 c 1
 12 -94 l 1
48 -63 m 1
 233 -63 l 1
 271 163 l 1
 48 -63 l 1
55 278 m 0
 55 297 75 298 83 298 c 2
 448 298 l 2
 460 298 481 298 481 278 c 0
 481 270 477 258 452 258 c 2
 83 258 l 2
 59 258 55 270 55 278 c 0
139 338 m 1
 144 369 l 1
 154 369 l 2
 241 369 254 372 262 419 c 2
 312 716 l 1
 264 703 236 701 186 701 c 1
 191 732 l 1
 333 732 357 771 379 771 c 0
 390 771 393 764 393 756 c 0
 393 750 392 744 391 740 c 2
 344 458 l 2
 340 432 335 413 335 400 c 0
 335 373 353 369 420 369 c 2
 436 369 l 1
 431 338 l 1
 382 340 332 341 283 341 c 0
 269 341 225 341 139 338 c 1
EndSplineSet
EndChar

StartChar: onehalf
Encoding: 189 189 125
Width: 444
GlyphClass: 2
Flags: MW
TeX: 749 194
ItalicCorrection: 97
HStem: -195 78<127 195 195 217 127 333> -40 20G<365 390 390 390> 209 31<210 254.5> 258 40<71 448 83 448 448 451> 338 31<139 154 430 430> 701 31<191 211>
VStem: 74 106<139.5 160> 323 92<92 157> 365 25<-20 -20>
LayerCount: 2
Fore
SplineSet
17 -195 m 1xfe80
 21 -169 19 -170 49 -147 c 0
 225 -12 323 49 323 135 c 0
 323 179 285 209 224 209 c 0
 196 209 174 204 154 197 c 1
 167 189 180 179 180 156 c 0
 180 123 152 96 119 96 c 0
 94 96 74 112 74 140 c 0
 74 180 112 240 246 240 c 0
 320 240 415 219 415 136 c 0xff
 415 41 302 -3 233 -48 c 2
 127 -117 l 1
 195 -117 l 2
 239 -117 284 -117 306 -115 c 0
 335 -113 337 -103 365 -20 c 1
 390 -20 l 1
 333 -195 l 1
 17 -195 l 1xfe80
55 278 m 0
 55 297 75 298 83 298 c 2
 448 298 l 2
 460 298 481 298 481 278 c 0
 481 270 476 258 451 258 c 2
 83 258 l 2
 59 258 55 270 55 278 c 0
139 338 m 1
 144 369 l 1
 154 369 l 2
 241 369 254 372 262 419 c 2
 311 716 l 1
 263 703 236 701 186 701 c 1
 191 732 l 1
 333 732 356 771 378 771 c 0
 389 771 392 764 392 756 c 0
 392 750 391 744 390 740 c 2xfe80
 344 458 l 2
 340 432 335 413 335 400 c 0
 335 373 352 369 419 369 c 2
 435 369 l 1
 430 338 l 1
 381 340 332 341 283 341 c 0
 269 341 225 341 139 338 c 1
EndSplineSet
EndChar

StartChar: threequarters
Encoding: 190 190 126
Width: 444
GlyphClass: 2
Flags: MW
TeX: 749 194
ItalicCorrection: 97
HStem: -195 31<109 123 381 381> -94 31<48 222 306 401> 258 40<71 448 83 448 448 452> 315 29<238 313 238 331> 746 26<316 353.5>
VStem: 110 113<412 425> 178 103<648 671.5 648 673.5> 375 101<451 473 419.5 502.5> 396 91<673.5 709 671 715.5>
LayerCount: 2
Fore
SplineSet
12 -94 m 1xf8
 18 -59 13 -67 40 -40 c 2
 295 219 l 2
 313 237 323 250 340 250 c 0
 352 250 355 244 355 236 c 0
 355 232 355 228 354 225 c 2
 306 -63 l 1
 406 -63 l 1
 401 -94 l 1
 301 -94 l 1
 298 -111 295 -124 295 -134 c 0
 295 -161 313 -164 386 -164 c 1
 381 -195 l 1
 334 -193 288 -192 241 -192 c 0
 215 -192 188 -192 109 -195 c 1
 114 -164 l 1
 123 -164 l 2
 217 -164 212 -154 222 -94 c 1
 12 -94 l 1xf8
48 -63 m 1
 233 -63 l 1
 271 163 l 1
 48 -63 l 1
55 278 m 0
 55 297 75 298 83 298 c 2
 448 298 l 2
 460 298 481 297 481 277 c 0
 481 267 473 258 452 258 c 2
 83 258 l 2
 59 258 55 270 55 278 c 0
110 403 m 0xfd
 110 447 145 470 175 470 c 0
 202 470 223 452 223 423 c 0
 223 401 210 371 172 360 c 1
 181 357 210 344 266 344 c 0
 360 344 375 431 375 471 c 0xfd
 375 534 322 539 299 539 c 2
 280 539 l 2
 269 539 260 541 260 550 c 0
 260 568 297 561 319 568 c 0
 369 584 396 652 396 695 c 0
 396 736 367 746 340 746 c 0
 292 746 256 725 233 706 c 1
 273 704 281 680 281 663 c 0xfa80
 281 633 256 605 223 605 c 0xfc
 198 605 178 621 178 648 c 0
 178 699 238 772 346 772 c 0
 423 772 487 735 487 683 c 0xfa80
 487 659 473 602 395 565 c 0
 385 560 374 557 364 553 c 1
 438 538 476 494 476 452 c 0
 476 387 393 315 269 315 c 0
 200 315 110 333 110 403 c 0xfd
EndSplineSet
EndChar

StartChar: questiondown
Encoding: 191 191 127
Width: 472
GlyphClass: 2
Flags: MW
TeX: 499 194
HStem: -205 22<159.5 241.5 159.5 258> -115 91<347.5 357> 395 105<287 304>
VStem: 41 80<-114.5 -73 -135 -71.5> 243 106<437.5 456.5> 263 20<297.5 308> 311 93<-82.5 -64>
LayerCount: 2
Fore
SplineSet
41 -92 m 0xf6
 41 -51 60 -6 95 24 c 0
 121 46 214 106 246 231 c 0
 256 270 254 298 263 309 c 0
 268 315 283 312 283 304 c 0
 283 291 274 142 174 26 c 0
 171 22 121 -21 121 -125 c 0
 121 -145 127 -183 192 -183 c 0
 291 -183 339 -135 357 -115 c 1
 317 -115 311 -89 311 -76 c 0
 311 -52 332 -24 363 -24 c 0
 387 -24 404 -40 404 -64 c 0
 404 -125 327 -205 189 -205 c 0
 64 -205 41 -137 41 -92 c 0xf6
243 440 m 0xf8
 243 473 272 500 302 500 c 0
 326 500 349 481 349 454 c 0
 349 421 319 395 289 395 c 0
 265 395 243 413 243 440 c 0xf8
EndSplineSet
EndChar

StartChar: Agrave
Encoding: 192 192 128
Width: 750
GlyphClass: 2
Flags: MW
TeX: 856 0
HStem: 0 31 228 31<276 501 276 507 260 501> 696 20<467 502> 788 74
AnchorPoint: "Anchor-5" 513 831 basechar 0
AnchorPoint: "Anchor-4" 374 0 basechar 0
LayerCount: 2
Fore
SplineSet
371 820 m 0
 371 839 388 862 411 862 c 0
 426 862 432 855 563 765 c 1
 549 741 l 1
 535 745 520 751 406 788 c 0
 390 793 371 798 371 820 c 0
32 0 m 1
 34 10 35 21 37 31 c 1
 104 31 139 57 161 99 c 2
 467 696 l 2
 475 712 479 716 494 716 c 0
 510 716 511 712 514 693 c 2
 626 75 l 2
 632 41 634 31 706 31 c 2
 722 31 l 1
 721 23 718 9 717 0 c 1
 675 2 629 3 586 3 c 0
 548 3 477 3 442 0 c 1
 443 9 446 23 447 31 c 1
 472 31 536 31 536 64 c 0
 536 67 535 76 534 79 c 2
 507 228 l 1
 260 228 l 1
 244 200 220 151 200 112 c 0
 187 86 187 84 187 76 c 0
 187 34 245 30 254 30 c 1
 248 0 l 1
 220 1 154 3 134 3 c 0
 94 3 53 1 32 0 c 1
276 259 m 1
 501 259 l 1
 443 584 l 1
 276 259 l 1
EndSplineSet
Substitution2: "'locl' +rW2sAAAA,+ycDF7QAA +rODHINYV in +t3zS9AAA +x5AA lookup 11 subtable" Agrave.vn
AlternateSubs2: "'ss01' +wqTQwMd8wTjSuAAA-1 lookup 10 subtable" Agrave.vn
AlternateSubs2: "'salt' +wqTQwMd8ua0A +swDFSNYV in +t3zS9AAA +x5AA lookup 9 subtable" Agrave.vn
Substitution2: "'c2sc' +swC7OMeQxdDBHAAA +wYzWFbMAuzjHkLhc lookup 2 subtable" Agrave.sc
EndChar

StartChar: Aacute
Encoding: 193 193 129
Width: 750
GlyphClass: 2
Flags: MW
TeX: 856 0
HStem: 0 31 228 31<276 501 276 507 260 501> 696 20<467 502> 787 75
AnchorPoint: "Anchor-5" 513 831 basechar 0
AnchorPoint: "Anchor-4" 374 0 basechar 0
LayerCount: 2
Fore
SplineSet
413 765 m 1
 582 860 581 862 597 862 c 0
 612 862 626 849 626 831 c 0
 626 798 589 792 574 787 c 0
 450 751 436 745 420 741 c 1
 413 765 l 1
32 0 m 1
 34 10 35 21 37 31 c 1
 104 31 139 57 161 99 c 2
 467 696 l 2
 475 712 479 716 494 716 c 0
 510 716 511 712 514 693 c 2
 626 75 l 2
 632 41 634 31 706 31 c 2
 722 31 l 1
 721 23 718 9 717 0 c 1
 675 2 629 3 586 3 c 0
 548 3 477 3 442 0 c 1
 443 9 446 23 447 31 c 1
 472 31 536 31 536 64 c 0
 536 67 535 76 534 79 c 2
 507 228 l 1
 260 228 l 1
 244 200 220 151 200 112 c 0
 187 86 187 84 187 76 c 0
 187 34 245 30 254 30 c 1
 248 0 l 1
 220 1 154 3 134 3 c 0
 94 3 53 1 32 0 c 1
276 259 m 1
 501 259 l 1
 443 584 l 1
 276 259 l 1
EndSplineSet
Substitution2: "'locl' +rW2sAAAA,+ycDF7QAA +rODHINYV in +t3zS9AAA +x5AA lookup 11 subtable" Aacute.vn
AlternateSubs2: "'ss01' +wqTQwMd8wTjSuAAA-1 lookup 10 subtable" Aacute.vn
AlternateSubs2: "'salt' +wqTQwMd8ua0A +swDFSNYV in +t3zS9AAA +x5AA lookup 9 subtable" Aacute.vn
Substitution2: "'c2sc' +swC7OMeQxdDBHAAA +wYzWFbMAuzjHkLhc lookup 2 subtable" Aacute.sc
EndChar

StartChar: Acircumflex
Encoding: 194 194 130
Width: 750
GlyphClass: 2
Flags: MW
TeX: 891 0
HStem: 0 31 228 31<276 501 276 507 260 501> 696 20<467 502>
AnchorPoint: "Anchor-5" 520 871 basechar 0
AnchorPoint: "Anchor-4" 374 0 basechar 0
LayerCount: 2
Fore
SplineSet
368 762 m 1
 525 902 l 1
 635 762 l 1
 635 761 l 1
 615 744 l 1
 614 744 l 1
 517 849 l 1
 383 744 l 1
 382 744 l 1
 368 762 l 1
32 0 m 1
 34 10 35 21 37 31 c 1
 104 31 139 57 161 99 c 2
 467 696 l 2
 475 712 479 716 494 716 c 0
 510 716 511 712 514 693 c 2
 626 75 l 2
 632 41 634 31 706 31 c 2
 722 31 l 1
 721 23 718 9 717 0 c 1
 675 2 629 3 586 3 c 0
 548 3 477 3 442 0 c 1
 443 9 446 23 447 31 c 1
 472 31 536 31 536 64 c 0
 536 67 535 76 534 79 c 2
 507 228 l 1
 260 228 l 1
 244 200 220 151 200 112 c 0
 187 86 187 84 187 76 c 0
 187 34 245 30 254 30 c 1
 248 0 l 1
 220 1 154 3 134 3 c 0
 94 3 53 1 32 0 c 1
276 259 m 1
 501 259 l 1
 443 584 l 1
 276 259 l 1
EndSplineSet
Substitution2: "'locl' +rW2sAAAA,+ycDF7QAA +rODHINYV in +t3zS9AAA +x5AA lookup 11 subtable" Acircumflex.vn
AlternateSubs2: "'ss01' +wqTQwMd8wTjSuAAA-1 lookup 10 subtable" Acircumflex.vn
AlternateSubs2: "'salt' +wqTQwMd8ua0A +swDFSNYV in +t3zS9AAA +x5AA lookup 9 subtable" Acircumflex.vn
Substitution2: "'c2sc' +swC7OMeQxdDBHAAA +wYzWFbMAuzjHkLhc lookup 2 subtable" Acircumflex.sc
EndChar

StartChar: Atilde
Encoding: 195 195 131
Width: 750
GlyphClass: 2
Flags: MW
TeX: 891 0
HStem: 0 31 228 31<276 501 276 507 260 501> 696 20<467 502> 807 46<582.5 622> 845 46<410 449.5>
AnchorPoint: "Anchor-5" 518 860 basechar 0
AnchorPoint: "Anchor-4" 374 0 basechar 0
LayerCount: 2
Fore
SplineSet
317 821 m 1xf0
 317 822 l 1
 349 853 381 891 439 891 c 0xe8
 498 891 553 853 612 853 c 0xf0
 648 853 673 867 701 891 c 1xe8
 715 877 l 1
 715 876 l 1
 682 844 651 807 593 807 c 0xf0
 534 807 479 845 420 845 c 0xe8
 378 845 356 827 332 807 c 1
 317 821 l 1xf0
32 0 m 1xe0
 34 10 35 21 37 31 c 1
 104 31 139 57 161 99 c 2
 467 696 l 2
 475 712 479 716 494 716 c 0
 510 716 511 712 514 693 c 2
 626 75 l 2
 632 41 634 31 706 31 c 2
 722 31 l 1
 721 23 718 9 717 0 c 1
 675 2 629 3 586 3 c 0
 548 3 477 3 442 0 c 1
 443 9 446 23 447 31 c 1
 472 31 536 31 536 64 c 0
 536 67 535 76 534 79 c 2
 507 228 l 1
 260 228 l 1
 244 200 220 151 200 112 c 0
 187 86 187 84 187 76 c 0
 187 34 245 30 254 30 c 1
 248 0 l 1
 220 1 154 3 134 3 c 0
 94 3 53 1 32 0 c 1xe0
276 259 m 1
 501 259 l 1
 443 584 l 1
 276 259 l 1
EndSplineSet
Substitution2: "'locl' +rW2sAAAA,+ycDF7QAA +rODHINYV in +t3zS9AAA +x5AA lookup 11 subtable" Atilde.vn
AlternateSubs2: "'ss01' +wqTQwMd8wTjSuAAA-1 lookup 10 subtable" Atilde.vn
AlternateSubs2: "'salt' +wqTQwMd8ua0A +swDFSNYV in +t3zS9AAA +x5AA lookup 9 subtable" Atilde.vn
Substitution2: "'c2sc' +swC7OMeQxdDBHAAA +wYzWFbMAuzjHkLhc lookup 2 subtable" Atilde.sc
EndChar

StartChar: Adieresis
Encoding: 196 196 132
Width: 750
GlyphClass: 2
Flags: MW
TeX: 891 0
HStem: 0 31 228 31<276 501 276 507 260 501> 696 20<467 502> 761 105<406 419.5 600 615>
VStem: 360 106<802.5 824.5> 554 106<804 824>
AnchorPoint: "Anchor-5" 514 835 basechar 0
AnchorPoint: "Anchor-4" 374 0 basechar 0
LayerCount: 2
Fore
SplineSet
360 807 m 0
 360 842 392 866 420 866 c 0
 444 866 466 848 466 820 c 0
 466 785 433 761 406 761 c 0
 378 761 360 783 360 807 c 0
554 806 m 0
 554 842 586 866 614 866 c 0
 638 866 660 848 660 820 c 0
 660 788 630 761 600 761 c 0
 575 761 554 780 554 806 c 0
32 0 m 1
 34 10 35 21 37 31 c 1
 104 31 139 57 161 99 c 2
 467 696 l 2
 475 712 479 716 494 716 c 0
 510 716 511 712 514 693 c 2
 626 75 l 2
 632 41 634 31 706 31 c 2
 722 31 l 1
 721 23 718 9 717 0 c 1
 675 2 629 3 586 3 c 0
 548 3 477 3 442 0 c 1
 443 9 446 23 447 31 c 1
 472 31 536 31 536 64 c 0
 536 67 535 76 534 79 c 2
 507 228 l 1
 260 228 l 1
 244 200 220 151 200 112 c 0
 187 86 187 84 187 76 c 0
 187 34 245 30 254 30 c 1
 248 0 l 1
 220 1 154 3 134 3 c 0
 94 3 53 1 32 0 c 1
276 259 m 1
 501 259 l 1
 443 584 l 1
 276 259 l 1
EndSplineSet
Substitution2: "'c2sc' +swC7OMeQxdDBHAAA +wYzWFbMAuzjHkLhc lookup 2 subtable" Adieresis.sc
EndChar

StartChar: Aring
Encoding: 197 197 133
Width: 750
GlyphClass: 2
Flags: MW
TeX: 856 0
HStem: 0 31<32 37 717 717> 228 31<275 501 275 507 259 501> 891 22<498 535.5>
VStem: 411 24<769 797.5 753.5 818.5> 581 25<810 849 805.5 854.5>
LayerCount: 2
Fore
SplineSet
32 0 m 1
 37 31 l 1
 128 33 148 74 171 120 c 2
 467 697 l 1
 420 716 411 755 411 783 c 0
 411 854 470 913 526 913 c 0
 574 913 606 874 606 824 c 0
 606 787 587 722 514 697 c 1
 626 77 l 2
 634 37 642 31 714 31 c 2
 722 31 l 1
 717 0 l 1
 653 3 615 3 589 3 c 0
 540 3 491 2 442 0 c 1
 447 31 l 1
 451 31 l 2
 470 31 534 31 534 65 c 0
 534 80 527 115 507 228 c 1
 259 228 l 1
 192 97 187 91 187 76 c 0
 187 58 200 33 253 31 c 1
 248 0 l 1
 209 2 171 3 132 3 c 0
 122 3 92 3 32 0 c 1
275 259 m 1
 501 259 l 1
 442 584 l 1
 275 259 l 1
435 778 m 0
 435 729 468 717 494 717 c 0
 564 717 581 790 581 830 c 0
 581 879 549 891 522 891 c 0
 452 891 435 817 435 778 c 0
EndSplineSet
Substitution2: "'c2sc' +swC7OMeQxdDBHAAA +wYzWFbMAuzjHkLhc lookup 2 subtable" Aring.sc
EndChar

StartChar: AE
Encoding: 198 198 134
Width: 903
GlyphClass: 2
Flags: MW
TeX: 688 0
ItalicCorrection: 58
HStem: 0 31<32 37 344 350 350 373.5 574 625 625 704.5> 313 31<323 468 307 473 557 617> 652 31<367 932 649 673 673 742>
VStem: 468 84<313 313> 899 24
AnchorPoint: "Anchor-5" 576 705 basechar 0
AnchorPoint: "Anchor-4" 453 0 basechar 0
LayerCount: 2
Fore
SplineSet
32 0 m 1
 37 30 l 1
 37 31 l 1
 126 33 148 73 172 119 c 2
 452 651 l 1
 367 652 l 1
 372 683 l 1
 932 683 l 1
 923 458 l 1
 897 458 l 1
 898 475 899 493 899 510 c 0
 899 626 859 652 742 652 c 2
 673 652 l 2
 625 652 620 649 613 642 c 0
 596 626 593 534 557 344 c 1
 619 344 l 2
 707 344 743 343 763 460 c 1
 789 460 l 1
 745 196 l 1
 719 196 l 1
 722 214 725 232 725 250 c 0
 725 315 671 313 617 313 c 2
 552 313 l 1
 512 74 509 66 509 54 c 0
 509 32 523 31 574 31 c 2
 625 31 l 2
 784 31 829 59 892 258 c 1
 917 258 l 1
 832 0 l 1
 339 0 l 1
 344 31 l 1
 350 31 l 2
 397 31 407 35 415 43 c 0
 423 50 426 41 468 313 c 1
 307 313 l 1
 189 87 188 92 188 76 c 0
 188 58 201 33 254 31 c 1
 248 0 l 1
 209 2 171 3 132 3 c 0
 112 3 82 3 32 0 c 1
323 344 m 1
 473 344 l 1
 487 436 518 608 518 618 c 0
 518 642 499 646 484 649 c 1
 323 344 l 1
EndSplineSet
Substitution2: "'c2sc' +swC7OMeQxdDBHAAA +wYzWFbMAuzjHkLhc lookup 2 subtable" AE.sc
EndChar

StartChar: Ccedilla
Encoding: 199 199 135
Width: 722
GlyphClass: 2
Flags: MW
TeX: 688 170
ItalicCorrection: 86
HStem: -204 23<257 278 278 294 254 278> -20 29<367 367 437 437> 674 31<512.5 535 415 583.5>
VStem: 107 100<202.5 284 161 393> 433 71<-148 -118> 677 28 707 74
AnchorPoint: "Anchor-5" 520 705 basechar 0
LayerCount: 2
Fore
SplineSet
107 281 m 0
 107 505 310 705 520 705 c 0
 550 705 631 702 690 619 c 1
 741 674 756 704 770 704 c 0
 774 704 781 701 781 690 c 0
 781 684 742 452 740 440 c 0
 737 426 736 426 730 421 c 0
 724 418 715 420 710 425 c 0
 706 430 707 445 707 453 c 0
 707 580 639 674 528 674 c 0
 497 674 391 666 303 557 c 0
 227 462 207 323 207 245 c 0
 207 77 313 9 417 9 c 0
 540 9 650 113 677 225 c 0
 679 234 680 244 687 248 c 0
 695 253 706 249 705 235 c 0
 699 163 609 2 437 -20 c 1
 432 -54 l 1
 442 -56 504 -67 504 -116 c 0
 504 -199 368 -204 294 -204 c 2
 254 -204 l 1
 257 -181 l 1
 278 -181 l 2
 334 -181 433 -178 433 -118 c 0
 432 -98 418 -74 359 -71 c 1
 367 -20 l 1
 207 0 107 124 107 281 c 0
EndSplineSet
Substitution2: "'c2sc' +swC7OMeQxdDBHAAA +wYzWFbMAuzjHkLhc lookup 2 subtable" Ccedilla.sc
EndChar

StartChar: Egrave
Encoding: 200 200 136
Width: 680
GlyphClass: 2
Flags: MW
TeX: 856 0
ItalicCorrection: 58
HStem: 0 31<33 60 38 60 60 100.5 281 411 411 489.5> 338 31<287 369 282 375> 649 31<146 163 141 709 360.5 384 384 509> 788 74
VStem: 676 24
AnchorPoint: "Anchor-5" 487 867 basechar 0
AnchorPoint: "Anchor-4" 342 0 basechar 0
LayerCount: 2
Fore
SplineSet
371 820 m 0
 371 839 388 862 411 862 c 0
 426 862 432 855 563 765 c 1
 549 741 l 1
 535 745 520 751 406 788 c 0
 390 793 371 798 371 820 c 0
33 0 m 1
 35 10 36 21 38 31 c 1
 60 31 l 2
 141 31 143 43 148 75 c 2
 237 607 l 2
 239 616 239 618 239 621 c 0
 239 642 227 649 163 649 c 2
 141 649 l 1
 146 680 l 1
 709 680 l 1
 700 455 l 1
 675 455 l 1
 676 467 676 485 676 498 c 0
 676 607 647 649 509 649 c 2
 384 649 l 2
 337 649 332 643 327 611 c 2
 287 369 l 1
 375 369 l 2
 462 369 490 390 504 486 c 1
 529 486 l 1
 485 221 l 1
 460 221 l 1
 463 238 466 253 466 273 c 0
 466 326 436 338 369 338 c 2
 282 338 l 1
 237 72 l 2
 234 57 234 55 234 52 c 0
 234 31 253 31 281 31 c 2
 411 31 l 2
 568 31 617 85 670 258 c 1
 695 258 l 1
 610 0 l 1
 33 0 l 1
EndSplineSet
Substitution2: "'locl' +rW2sAAAA,+ycDF7QAA +rODHINYV in +t3zS9AAA +x5AA lookup 11 subtable" Egrave.vn
AlternateSubs2: "'ss01' +wqTQwMd8wTjSuAAA-1 lookup 10 subtable" Egrave.vn
AlternateSubs2: "'salt' +wqTQwMd8ua0A +swDFSNYV in +t3zS9AAA +x5AA lookup 9 subtable" Egrave.vn
Substitution2: "'c2sc' +swC7OMeQxdDBHAAA +wYzWFbMAuzjHkLhc lookup 2 subtable" Egrave.sc
EndChar

StartChar: Eacute
Encoding: 201 201 137
Width: 680
GlyphClass: 2
Flags: MW
TeX: 856 0
ItalicCorrection: 58
HStem: 0 31<33 60 38 60 60 100.5 281 411 411 489.5> 338 31<287 369 282 375> 649 31<146 163 141 709 360.5 384 384 509> 787 75
VStem: 676 24
AnchorPoint: "Anchor-5" 487 867 basechar 0
AnchorPoint: "Anchor-4" 342 0 basechar 0
LayerCount: 2
Fore
SplineSet
428 765 m 1
 597 860 596 862 612 862 c 0
 627 862 640 849 640 831 c 0
 640 798 603 792 588 787 c 0
 464 751 450 745 434 741 c 1
 428 765 l 1
33 0 m 1
 35 10 36 21 38 31 c 1
 60 31 l 2
 141 31 143 43 148 75 c 2
 237 607 l 2
 239 616 239 618 239 621 c 0
 239 642 227 649 163 649 c 2
 141 649 l 1
 146 680 l 1
 709 680 l 1
 700 455 l 1
 675 455 l 1
 676 467 676 485 676 498 c 0
 676 607 647 649 509 649 c 2
 384 649 l 2
 337 649 332 643 327 611 c 2
 287 369 l 1
 375 369 l 2
 462 369 490 390 504 486 c 1
 529 486 l 1
 485 221 l 1
 460 221 l 1
 463 238 466 253 466 273 c 0
 466 326 436 338 369 338 c 2
 282 338 l 1
 237 72 l 2
 234 57 234 55 234 52 c 0
 234 31 253 31 281 31 c 2
 411 31 l 2
 568 31 617 85 670 258 c 1
 695 258 l 1
 610 0 l 1
 33 0 l 1
EndSplineSet
Substitution2: "'locl' +rW2sAAAA,+ycDF7QAA +rODHINYV in +t3zS9AAA +x5AA lookup 11 subtable" Eacute.vn
AlternateSubs2: "'ss01' +wqTQwMd8wTjSuAAA-1 lookup 10 subtable" Eacute.vn
AlternateSubs2: "'salt' +wqTQwMd8ua0A +swDFSNYV in +t3zS9AAA +x5AA lookup 9 subtable" Eacute.vn
Substitution2: "'c2sc' +swC7OMeQxdDBHAAA +wYzWFbMAuzjHkLhc lookup 2 subtable" Eacute.sc
EndChar

StartChar: Ecircumflex
Encoding: 202 202 138
Width: 680
GlyphClass: 2
Flags: MW
TeX: 891 0
ItalicCorrection: 58
HStem: 0 31<33 60 38 60 60 100.5 281 411 411 489.5> 338 31<287 369 282 375> 649 31<146 163 141 709 360.5 384 384 509>
VStem: 676 24
AnchorPoint: "Anchor-5" 494 907 basechar 0
AnchorPoint: "Anchor-4" 342 0 basechar 0
LayerCount: 2
Fore
SplineSet
340 762 m 1
 497 902 l 1
 608 761 l 1
 588 744 l 1
 587 744 l 1
 489 849 l 1
 356 744 l 1
 355 744 l 1
 340 762 l 1
33 0 m 1
 35 10 36 21 38 31 c 1
 60 31 l 2
 141 31 143 43 148 75 c 2
 237 607 l 2
 239 616 239 618 239 621 c 0
 239 642 227 649 163 649 c 2
 141 649 l 1
 146 680 l 1
 709 680 l 1
 700 455 l 1
 675 455 l 1
 676 467 676 485 676 498 c 0
 676 607 647 649 509 649 c 2
 384 649 l 2
 337 649 332 643 327 611 c 2
 287 369 l 1
 375 369 l 2
 462 369 490 390 504 486 c 1
 529 486 l 1
 485 221 l 1
 460 221 l 1
 463 238 466 253 466 273 c 0
 466 326 436 338 369 338 c 2
 282 338 l 1
 237 72 l 2
 234 57 234 55 234 52 c 0
 234 31 253 31 281 31 c 2
 411 31 l 2
 568 31 617 85 670 258 c 1
 695 258 l 1
 610 0 l 1
 33 0 l 1
EndSplineSet
Substitution2: "'locl' +rW2sAAAA,+ycDF7QAA +rODHINYV in +t3zS9AAA +x5AA lookup 11 subtable" Ecircumflex.vn
AlternateSubs2: "'ss01' +wqTQwMd8wTjSuAAA-1 lookup 10 subtable" Ecircumflex.vn
AlternateSubs2: "'salt' +wqTQwMd8ua0A +swDFSNYV in +t3zS9AAA +x5AA lookup 9 subtable" Ecircumflex.vn
Substitution2: "'c2sc' +swC7OMeQxdDBHAAA +wYzWFbMAuzjHkLhc lookup 2 subtable" Ecircumflex.sc
EndChar

StartChar: Edieresis
Encoding: 203 203 139
Width: 680
GlyphClass: 2
Flags: MW
TeX: 891 0
ItalicCorrection: 58
HStem: 0 31<33 60 38 60 60 100.5 281 411 411 489.5> 338 31<287 369 282 375> 649 31<146 163 141 709 360.5 384 384 509> 761 105<377 395.5 571 588>
VStem: 332 106<805 822.5> 527 106<803.5 823> 676 24
AnchorPoint: "Anchor-5" 488 871 basechar 0
AnchorPoint: "Anchor-4" 342 0 basechar 0
LayerCount: 2
Fore
SplineSet
332 806 m 0
 332 839 362 866 392 866 c 0
 416 866 438 847 438 820 c 0
 438 790 412 761 379 761 c 0
 356 761 332 779 332 806 c 0
527 807 m 0
 527 839 556 866 586 866 c 0
 610 866 633 847 633 820 c 0
 633 787 603 761 573 761 c 0
 545 761 527 782 527 807 c 0
33 0 m 1
 35 10 36 21 38 31 c 1
 60 31 l 2
 141 31 143 43 148 75 c 2
 237 607 l 2
 239 616 239 618 239 621 c 0
 239 642 227 649 163 649 c 2
 141 649 l 1
 146 680 l 1
 709 680 l 1
 700 455 l 1
 675 455 l 1
 676 467 676 485 676 498 c 0
 676 607 647 649 509 649 c 2
 384 649 l 2
 337 649 332 643 327 611 c 2
 287 369 l 1
 375 369 l 2
 462 369 490 390 504 486 c 1
 529 486 l 1
 485 221 l 1
 460 221 l 1
 463 238 466 253 466 273 c 0
 466 326 436 338 369 338 c 2
 282 338 l 1
 237 72 l 2
 234 57 234 55 234 52 c 0
 234 31 253 31 281 31 c 2
 411 31 l 2
 568 31 617 85 670 258 c 1
 695 258 l 1
 610 0 l 1
 33 0 l 1
EndSplineSet
Substitution2: "'c2sc' +swC7OMeQxdDBHAAA +wYzWFbMAuzjHkLhc lookup 2 subtable" Edieresis.sc
EndChar

StartChar: Igrave
Encoding: 204 204 140
Width: 361
GlyphClass: 2
Flags: MW
TeX: 856 0
ItalicCorrection: 99
HStem: 0 31<28 57> 652 31<376 447 418 447> 788 74
AnchorPoint: "Anchor-5" 324 864 basechar 0
AnchorPoint: "Anchor-4" 180 0 basechar 0
LayerCount: 2
Fore
SplineSet
190 820 m 0
 190 843 213 862 230 862 c 0
 246 862 251 857 382 765 c 1
 367 741 l 1
 353 745 338 750 224 788 c 0
 205 794 190 801 190 820 c 0
28 0 m 1
 33 31 l 1
 57 31 l 2
 137 31 143 41 148 74 c 2
 236 600 l 2
 237 608 239 617 239 624 c 0
 239 645 228 652 160 652 c 2
 137 652 l 1
 138 661 141 675 142 683 c 1
 177 680 255 680 294 680 c 0
 333 680 411 680 447 683 c 1
 442 652 l 1
 418 652 l 2
 334 652 332 640 327 608 c 2
 239 84 l 2
 238 76 236 67 236 60 c 0
 236 39 243 31 315 31 c 2
 338 31 l 1
 337 22 334 8 333 0 c 1
 298 3 220 3 181 3 c 0
 142 3 64 3 28 0 c 1
EndSplineSet
Substitution2: "'locl' +rW2sAAAA,+ycDF7QAA +rODHINYV in +t3zS9AAA +x5AA lookup 11 subtable" Igrave.vn
AlternateSubs2: "'ss01' +wqTQwMd8wTjSuAAA-1 lookup 10 subtable" Igrave.vn
AlternateSubs2: "'salt' +wqTQwMd8ua0A +swDFSNYV in +t3zS9AAA +x5AA lookup 9 subtable" Igrave.vn
Substitution2: "'c2sc' +swC7OMeQxdDBHAAA +wYzWFbMAuzjHkLhc lookup 2 subtable" Igrave.sc
EndChar

StartChar: Iacute
Encoding: 205 205 141
Width: 361
GlyphClass: 2
Flags: MW
TeX: 856 0
ItalicCorrection: 99
HStem: 0 31<28 57> 652 31<376 447 418 447> 787 75
AnchorPoint: "Anchor-5" 324 864 basechar 0
AnchorPoint: "Anchor-4" 180 0 basechar 0
LayerCount: 2
Fore
SplineSet
209 765 m 1
 373 858 376 862 392 862 c 0
 407 862 420 849 420 831 c 0
 420 797 378 790 369 787 c 0
 246 751 230 745 215 741 c 1
 209 765 l 1
28 0 m 1
 33 31 l 1
 57 31 l 2
 137 31 143 41 148 74 c 2
 236 600 l 2
 237 608 239 617 239 624 c 0
 239 645 228 652 160 652 c 2
 137 652 l 1
 138 661 141 675 142 683 c 1
 177 680 255 680 294 680 c 0
 333 680 411 680 447 683 c 1
 442 652 l 1
 418 652 l 2
 334 652 332 640 327 608 c 2
 239 84 l 2
 238 76 236 67 236 60 c 0
 236 39 243 31 315 31 c 2
 338 31 l 1
 337 22 334 8 333 0 c 1
 298 3 220 3 181 3 c 0
 142 3 64 3 28 0 c 1
EndSplineSet
Substitution2: "'locl' +rW2sAAAA,+ycDF7QAA +rODHINYV in +t3zS9AAA +x5AA lookup 11 subtable" Iacute.vn
AlternateSubs2: "'ss01' +wqTQwMd8wTjSuAAA-1 lookup 10 subtable" Iacute.vn
AlternateSubs2: "'salt' +wqTQwMd8ua0A +swDFSNYV in +t3zS9AAA +x5AA lookup 9 subtable" Iacute.vn
Substitution2: "'c2sc' +swC7OMeQxdDBHAAA +wYzWFbMAuzjHkLhc lookup 2 subtable" Iacute.sc
EndChar

StartChar: Icircumflex
Encoding: 206 206 142
Width: 361
GlyphClass: 2
Flags: MW
TeX: 891 0
ItalicCorrection: 99
HStem: 0 31<28 57> 652 31<376 447 418 447> 744 158<330 419>
VStem: 173 267<762 762>
AnchorPoint: "Anchor-5" 331 904 basechar 0
AnchorPoint: "Anchor-4" 180 0 basechar 0
LayerCount: 2
Fore
SplineSet
173 762 m 1
 330 902 l 1
 440 762 l 1
 419 744 l 1
 322 849 l 1
 188 743 l 1
 173 762 l 1
28 0 m 1
 33 31 l 1
 57 31 l 2
 137 31 143 41 148 74 c 2
 236 600 l 2
 237 608 239 617 239 624 c 0
 239 645 228 652 160 652 c 2
 137 652 l 1
 138 661 141 675 142 683 c 1
 177 680 255 680 294 680 c 0
 333 680 411 680 447 683 c 1
 442 652 l 1
 418 652 l 2
 334 652 332 640 327 608 c 2
 239 84 l 2
 238 76 236 67 236 60 c 0
 236 39 243 31 315 31 c 2
 338 31 l 1
 337 22 334 8 333 0 c 1
 298 3 220 3 181 3 c 0
 142 3 64 3 28 0 c 1
EndSplineSet
Substitution2: "'c2sc' +swC7OMeQxdDBHAAA +wYzWFbMAuzjHkLhc lookup 2 subtable" Icircumflex.sc
EndChar

StartChar: Idieresis
Encoding: 207 207 143
Width: 361
GlyphClass: 2
Flags: MW
TeX: 891 0
ItalicCorrection: 99
HStem: 0 31<28 57> 652 31<376 447 418 447> 761 105<210 226 402.5 421.5>
VStem: 165 106<803.5 823.5> 359 106<805 822>
AnchorPoint: "Anchor-5" 325 868 basechar 0
AnchorPoint: "Anchor-4" 180 0 basechar 0
LayerCount: 2
Fore
SplineSet
165 807 m 0
 165 840 195 866 225 866 c 0
 249 866 271 847 271 820 c 0
 271 787 241 761 211 761 c 0
 187 761 165 780 165 807 c 0
359 807 m 0
 359 837 386 866 419 866 c 0
 443 866 465 847 465 820 c 0
 465 790 438 761 405 761 c 0
 377 761 359 782 359 807 c 0
28 0 m 1
 33 31 l 1
 57 31 l 2
 137 31 143 41 148 74 c 2
 236 600 l 2
 237 608 239 617 239 624 c 0
 239 645 228 652 160 652 c 2
 137 652 l 1
 138 661 141 675 142 683 c 1
 177 680 255 680 294 680 c 0
 333 680 411 680 447 683 c 1
 442 652 l 1
 418 652 l 2
 334 652 332 640 327 608 c 2
 239 84 l 2
 238 76 236 67 236 60 c 0
 236 39 243 31 315 31 c 2
 338 31 l 1
 337 22 334 8 333 0 c 1
 298 3 220 3 181 3 c 0
 142 3 64 3 28 0 c 1
EndSplineSet
Substitution2: "'c2sc' +swC7OMeQxdDBHAAA +wYzWFbMAuzjHkLhc lookup 2 subtable" Idieresis.sc
EndChar

StartChar: Eth
Encoding: 208 208 144
Width: 764
GlyphClass: 2
Flags: MW
TeX: 688 0
ItalicCorrection: 51
HStem: 0 31<34 48 39 48 48 87.5 304 375 375 385> 320 30<114 190 114 114 282 433> 652 31<148 156 143 500 440.5 449 449 474>
VStem: 673 96<416 432.5 297 490>
LayerCount: 2
Fore
SplineSet
34 0 m 1
 39 31 l 1
 48 31 l 2
 127 31 142 33 150 79 c 2
 190 320 l 1
 114 320 l 2
 100 322 91 321 91 335 c 0
 91 345 98 349 112 350 c 2
 195 350 l 1
 228 550 239 606 239 626 c 0
 239 650 212 652 156 652 c 2
 143 652 l 1
 148 683 l 1
 500 683 l 2
 540 683 641 682 713 584 c 0
 752 531 769 465 769 400 c 0
 769 194 608 24 438 2 c 0
 421 0 403 0 385 0 c 2
 34 0 l 1
234 54 m 0
 234 31 250 31 304 31 c 2
 375 31 l 2
 476 31 547 83 586 133 c 0
 660 226 673 389 673 443 c 0
 673 537 633 652 474 652 c 2
 449 652 l 2
 432 652 416 653 399 653 c 0
 352 653 346 651 338 644 c 0
 330 637 328 645 282 350 c 1
 440 350 l 2
 462 350 463 348 467 341 c 0
 468 339 468 338 468 336 c 0
 468 327 459 319 443 319 c 0
 439 319 436 320 433 320 c 2
 277 320 l 1
 268 259 234 66 234 54 c 0
EndSplineSet
Substitution2: "'c2sc' +swC7OMeQxdDBHAAA +wYzWFbMAuzjHkLhc lookup 2 subtable" Eth.sc
EndChar

StartChar: Ntilde
Encoding: 209 209 145
Width: 750
GlyphClass: 2
Flags: MW
TeX: 891 0
ItalicCorrection: 108
HStem: 0 31<266 266> 652 31<147 169 142 313> 807 46<582.5 622> 845 46<410 449.5>
LayerCount: 2
Fore
SplineSet
318 821 m 1xe0
 318 822 l 1
 350 853 381 891 439 891 c 0xd0
 498 891 553 853 612 853 c 0xe0
 648 853 673 867 701 891 c 1xd0
 715 877 l 1
 715 876 l 1
 682 844 651 807 593 807 c 0xe0
 534 807 479 845 420 845 c 0xd0
 378 845 356 827 332 807 c 1
 318 821 l 1xe0
33 0 m 1xc0
 35 10 36 21 38 31 c 1
 140 31 148 75 152 100 c 2
 243 645 l 1
 232 648 215 652 169 652 c 2
 142 652 l 1
 143 661 146 675 147 683 c 1
 313 683 l 2
 336 683 337 682 345 667 c 2
 610 150 l 1
 681 576 l 2
 684 592 684 594 684 599 c 0
 684 652 614 652 591 652 c 1
 597 683 l 1
 628 682 689 680 713 680 c 0
 746 680 795 682 830 683 c 1
 825 652 l 1
 722 652 714 606 710 580 c 2
 617 23 l 2
 614 5 613 0 601 0 c 0
 591 0 590 2 583 16 c 2
 282 603 l 2
 279 608 274 618 269 625 c 1
 182 108 l 2
 181 100 179 91 179 84 c 0
 179 31 248 31 272 31 c 1
 266 0 l 1
 235 1 172 3 150 3 c 0
 117 3 68 1 33 0 c 1xc0
EndSplineSet
Substitution2: "'c2sc' +swC7OMeQxdDBHAAA +wYzWFbMAuzjHkLhc lookup 2 subtable" Ntilde.sc
EndChar

StartChar: Ograve
Encoding: 210 210 146
Width: 777
GlyphClass: 2
Flags: MW
TeX: 856 0
ItalicCorrection: 51
HStem: -22 26<339 423.5 339 486> 680 25<470 542.5> 788 74
VStem: 107 101<188 265 170.5 386> 685 98<405.5 494.5 290.5 533>
AnchorPoint: "Anchor-5" 529 842 basechar 0
AnchorPoint: "Anchor-4" 389 0 basechar 0
LayerCount: 2
Fore
SplineSet
412 820 m 0
 412 839 429 862 452 862 c 0
 467 862 473 855 604 765 c 1
 590 741 l 1
 576 745 561 751 447 788 c 0
 431 793 412 798 412 820 c 0
107 274 m 0
 107 498 299 705 506 705 c 0
 662 705 783 584 783 405 c 0
 783 176 587 -22 385 -22 c 0
 225 -22 107 102 107 274 c 0
208 248 m 0
 208 93 289 4 389 4 c 0
 458 4 538 45 602 142 c 0
 661 234 685 365 685 446 c 0
 685 620 584 680 501 680 c 0
 439 680 353 645 285 543 c 0
 215 435 208 282 208 248 c 0
EndSplineSet
Substitution2: "'locl' +rW2sAAAA,+ycDF7QAA +rODHINYV in +t3zS9AAA +x5AA lookup 11 subtable" Ograve.vn
AlternateSubs2: "'ss01' +wqTQwMd8wTjSuAAA-1 lookup 10 subtable" Ograve.vn
AlternateSubs2: "'salt' +wqTQwMd8ua0A +swDFSNYV in +t3zS9AAA +x5AA lookup 9 subtable" Ograve.vn
Substitution2: "'c2sc' +swC7OMeQxdDBHAAA +wYzWFbMAuzjHkLhc lookup 2 subtable" Ograve.sc
EndChar

StartChar: Oacute
Encoding: 211 211 147
Width: 777
GlyphClass: 2
Flags: MW
TeX: 856 0
ItalicCorrection: 51
HStem: -22 26<339 423.5 339 486> 680 25<470 542.5> 787 75
VStem: 107 101<188 265 170.5 386> 685 98<405.5 494.5 290.5 533>
AnchorPoint: "Anchor-5" 529 842 basechar 0
AnchorPoint: "Anchor-4" 389 0 basechar 0
LayerCount: 2
Fore
SplineSet
427 765 m 1
 596 860 595 862 611 862 c 0
 626 862 640 849 640 831 c 0
 640 798 603 792 588 787 c 0
 464 751 450 745 434 741 c 1
 427 765 l 1
107 274 m 0
 107 498 299 705 506 705 c 0
 662 705 783 584 783 405 c 0
 783 176 587 -22 385 -22 c 0
 225 -22 107 102 107 274 c 0
208 248 m 0
 208 93 289 4 389 4 c 0
 458 4 538 45 602 142 c 0
 661 234 685 365 685 446 c 0
 685 620 584 680 501 680 c 0
 439 680 353 645 285 543 c 0
 215 435 208 282 208 248 c 0
EndSplineSet
Substitution2: "'locl' +rW2sAAAA,+ycDF7QAA +rODHINYV in +t3zS9AAA +x5AA lookup 11 subtable" Oacute.vn
AlternateSubs2: "'ss01' +wqTQwMd8wTjSuAAA-1 lookup 10 subtable" Oacute.vn
AlternateSubs2: "'salt' +wqTQwMd8ua0A +swDFSNYV in +t3zS9AAA +x5AA lookup 9 subtable" Oacute.vn
Substitution2: "'c2sc' +swC7OMeQxdDBHAAA +wYzWFbMAuzjHkLhc lookup 2 subtable" Oacute.sc
EndChar

StartChar: Ocircumflex
Encoding: 212 212 148
Width: 777
GlyphClass: 2
Flags: MW
TeX: 891 0
ItalicCorrection: 51
HStem: -22 26<339 423.5 339 486> 680 25<470 542.5>
VStem: 107 101<188 265 170.5 386> 685 98<405.5 494.5 290.5 533>
AnchorPoint: "Anchor-5" 535 882 basechar 0
AnchorPoint: "Anchor-4" 389 0 basechar 0
LayerCount: 2
Fore
SplineSet
381 762 m 1
 538 902 l 1
 649 761 l 1
 629 744 l 1
 628 744 l 1
 530 849 l 1
 396 744 l 1
 381 762 l 1
107 274 m 0
 107 498 299 705 506 705 c 0
 662 705 783 584 783 405 c 0
 783 176 587 -22 385 -22 c 0
 225 -22 107 102 107 274 c 0
208 248 m 0
 208 93 289 4 389 4 c 0
 458 4 538 45 602 142 c 0
 661 234 685 365 685 446 c 0
 685 620 584 680 501 680 c 0
 439 680 353 645 285 543 c 0
 215 435 208 282 208 248 c 0
EndSplineSet
Substitution2: "'locl' +rW2sAAAA,+ycDF7QAA +rODHINYV in +t3zS9AAA +x5AA lookup 11 subtable" Ocircumflex.vn
AlternateSubs2: "'ss01' +wqTQwMd8wTjSuAAA-1 lookup 10 subtable" Ocircumflex.vn
AlternateSubs2: "'salt' +wqTQwMd8ua0A +swDFSNYV in +t3zS9AAA +x5AA lookup 9 subtable" Ocircumflex.vn
Substitution2: "'c2sc' +swC7OMeQxdDBHAAA +wYzWFbMAuzjHkLhc lookup 2 subtable" Ocircumflex.sc
EndChar

StartChar: Otilde
Encoding: 213 213 149
Width: 777
GlyphClass: 2
Flags: MW
TeX: 891 0
ItalicCorrection: 51
HStem: -22 26<339 423.5 339 486> 680 25<470 542.5> 807 46<595.5 636> 845 46<424 463.5>
VStem: 107 101<188 265 170.5 386> 685 98<405.5 494.5 290.5 533>
AnchorPoint: "Anchor-5" 534 871 basechar 0
AnchorPoint: "Anchor-4" 389 0 basechar 0
LayerCount: 2
Fore
SplineSet
331 821 m 1xec
 331 822 l 1
 363 853 395 891 453 891 c 0xdc
 512 891 566 853 625 853 c 0xec
 661 853 686 867 714 891 c 1xdc
 728 877 l 1
 728 876 l 1
 695 844 665 807 607 807 c 0xec
 548 807 493 845 434 845 c 0xdc
 392 845 370 827 346 807 c 1
 331 821 l 1xec
107 274 m 0xcc
 107 498 299 705 506 705 c 0
 662 705 783 584 783 405 c 0
 783 176 587 -22 385 -22 c 0
 225 -22 107 102 107 274 c 0xcc
208 248 m 0
 208 93 289 4 389 4 c 0
 458 4 538 45 602 142 c 0
 661 234 685 365 685 446 c 0
 685 620 584 680 501 680 c 0
 439 680 353 645 285 543 c 0
 215 435 208 282 208 248 c 0
EndSplineSet
Substitution2: "'locl' +rW2sAAAA,+ycDF7QAA +rODHINYV in +t3zS9AAA +x5AA lookup 11 subtable" Otilde.vn
AlternateSubs2: "'ss01' +wqTQwMd8wTjSuAAA-1 lookup 10 subtable" Otilde.vn
AlternateSubs2: "'salt' +wqTQwMd8ua0A +swDFSNYV in +t3zS9AAA +x5AA lookup 9 subtable" Otilde.vn
Substitution2: "'c2sc' +swC7OMeQxdDBHAAA +wYzWFbMAuzjHkLhc lookup 2 subtable" Otilde.sc
EndChar

StartChar: Odieresis
Encoding: 214 214 150
Width: 777
GlyphClass: 2
Flags: MW
TeX: 891 0
ItalicCorrection: 51
HStem: -22 26<339 423.5 339 486> 680 25<470 542.5> 761 105<416.5 435 611.5 627.5>
VStem: 107 101<188 265 170.5 386> 374 106<803.5 822> 568 106<802.5 821.5> 685 98<405.5 494.5 290.5 533>
AnchorPoint: "Anchor-5" 529 846 basechar 0
AnchorPoint: "Anchor-4" 389 0 basechar 0
LayerCount: 2
Fore
SplineSet
374 807 m 0
 374 837 400 866 433 866 c 0
 457 866 480 847 480 820 c 0
 480 787 450 761 420 761 c 0
 396 761 374 780 374 807 c 0
568 807 m 0
 568 836 595 866 628 866 c 0
 656 866 674 845 674 820 c 0
 674 785 641 761 614 761 c 0
 586 761 568 782 568 807 c 0
107 274 m 0
 107 498 299 705 506 705 c 0
 662 705 783 584 783 405 c 0
 783 176 587 -22 385 -22 c 0
 225 -22 107 102 107 274 c 0
208 248 m 0
 208 93 289 4 389 4 c 0
 458 4 538 45 602 142 c 0
 661 234 685 365 685 446 c 0
 685 620 584 680 501 680 c 0
 439 680 353 645 285 543 c 0
 215 435 208 282 208 248 c 0
EndSplineSet
Substitution2: "'c2sc' +swC7OMeQxdDBHAAA +wYzWFbMAuzjHkLhc lookup 2 subtable" Odieresis.sc
EndChar

StartChar: multiply
Encoding: 215 215 151
Width: 778
GlyphClass: 2
Flags: W
TeX: 583 83
ItalicCorrection: 13
LayerCount: 2
Fore
SplineSet
153 28 m 0
 154 41 162 47 177 60 c 2
 402 253 l 1
 228 462 227 458 227 472 c 0
 227 483 238 490 245 490 c 2
 246 490 l 2
 260 490 258 489 432 279 c 1
 433 279 l 1
 657 471 l 2
 664 477 675 490 687 490 c 0
 696 490 707 484 707 471 c 0
 707 459 686 443 683 440 c 2
 458 248 l 1
 458 247 l 1
 474 229 490 210 615 60 c 0
 623 51 633 41 633 28 c 0
 633 18 623 10 615 10 c 0
 603 10 594 22 584 34 c 0
 459 184 443 203 428 222 c 1
 202 28 l 2
 194 21 183 11 174 10 c 0
 163 9 153 16 153 28 c 0
EndSplineSet
EndChar

StartChar: Oslash
Encoding: 216 216 152
Width: 778
GlyphClass: 2
Flags: MW
TeX: 731 48
ItalicCorrection: 51
HStem: -22 23<347.5 432.5 343 486> 683 22<458 547.5>
VStem: 106 85<226 264.5 191 386.5> 699 84<415.5 443.5 290.5 489.5>
LayerCount: 2
Fore
SplineSet
105 -42 m 1
 189 58 l 1
 142 105 106 178 106 274 c 0
 106 499 300 705 506 705 c 0
 599 705 652 665 684 641 c 1
 766 739 l 1
 785 725 l 1
 701 625 l 1
 760 562 783 482 783 405 c 0
 783 176 588 -22 384 -22 c 0
 311 -22 256 1 206 41 c 1
 124 -55 l 1
 105 -42 l 1
191 232 m 0
 191 150 216 108 222 96 c 1
 634 582 l 2
 644 594 650 600 650 607 c 0
 650 621 593 683 502 683 c 0
 414 683 333 630 281 557 c 0
 208 453 191 297 191 232 c 0
235 75 m 1
 251 55 297 1 389 1 c 0
 476 1 557 52 607 121 c 0
 682 224 699 383 699 448 c 0
 699 531 674 574 668 586 c 1
 235 75 l 1
EndSplineSet
Substitution2: "'c2sc' +swC7OMeQxdDBHAAA +wYzWFbMAuzjHkLhc lookup 2 subtable" Oslash.sc
EndChar

StartChar: Ugrave
Encoding: 217 217 153
Width: 750
GlyphClass: 2
Flags: MW
TeX: 856 0
ItalicCorrection: 108
HStem: -22 31<369 437 369 451> 652 31<375.5 442 415 442> 788 74
VStem: 171 86<125 166 94 194.5>
AnchorPoint: "Anchor-5" 518 864 basechar 0
AnchorPoint: "Anchor-4" 390 0 basechar 0
LayerCount: 2
Fore
SplineSet
398 820 m 0
 398 839 415 862 438 862 c 0
 453 862 459 855 590 765 c 1
 576 741 l 1
 562 745 547 751 433 788 c 0
 417 793 398 798 398 820 c 0
142 652 m 1
 143 661 146 675 147 683 c 1
 183 680 255 680 294 680 c 0
 332 680 407 680 442 683 c 1
 437 652 l 1
 415 652 l 2
 336 652 332 641 327 609 c 2
 260 204 l 2
 257 186 257 172 257 160 c 0
 257 28 349 9 389 9 c 0
 485 9 596 89 620 231 c 2
 678 576 l 2
 681 592 681 594 681 599 c 0
 681 652 611 652 588 652 c 1
 594 683 l 1
 624 682 688 680 711 680 c 0
 745 680 792 681 830 683 c 1
 825 652 l 1
 722 652 714 606 710 580 c 2
 651 225 l 2
 630 96 516 -22 386 -22 c 0
 270 -22 171 61 171 189 c 0
 171 200 171 213 174 231 c 2
 236 600 l 2
 237 608 239 617 239 624 c 0
 239 645 229 652 163 652 c 2
 142 652 l 1
EndSplineSet
Substitution2: "'locl' +rW2sAAAA,+ycDF7QAA +rODHINYV in +t3zS9AAA +x5AA lookup 11 subtable" Ugrave.vn
AlternateSubs2: "'ss01' +wqTQwMd8wTjSuAAA-1 lookup 10 subtable" Ugrave.vn
AlternateSubs2: "'salt' +wqTQwMd8ua0A +swDFSNYV in +t3zS9AAA +x5AA lookup 9 subtable" Ugrave.vn
Substitution2: "'c2sc' +swC7OMeQxdDBHAAA +wYzWFbMAuzjHkLhc lookup 2 subtable" Ugrave.sc
EndChar

StartChar: Uacute
Encoding: 218 218 154
Width: 750
GlyphClass: 2
Flags: MW
TeX: 856 0
ItalicCorrection: 108
HStem: -22 31<369 437 369 451> 652 31<375.5 442 415 442> 787 75
VStem: 171 86<125 166 94 194.5>
AnchorPoint: "Anchor-5" 518 864 basechar 0
AnchorPoint: "Anchor-4" 390 0 basechar 0
LayerCount: 2
Fore
SplineSet
455 765 m 1
 624 860 623 862 639 862 c 0
 654 862 667 849 667 831 c 0
 667 798 631 792 616 787 c 0
 492 751 477 745 461 741 c 1
 455 765 l 1
142 652 m 1
 143 661 146 675 147 683 c 1
 183 680 255 680 294 680 c 0
 332 680 407 680 442 683 c 1
 437 652 l 1
 415 652 l 2
 336 652 332 641 327 609 c 2
 260 204 l 2
 257 186 257 172 257 160 c 0
 257 28 349 9 389 9 c 0
 485 9 596 89 620 231 c 2
 678 576 l 2
 681 592 681 594 681 599 c 0
 681 652 611 652 588 652 c 1
 594 683 l 1
 624 682 688 680 711 680 c 0
 745 680 792 681 830 683 c 1
 825 652 l 1
 722 652 714 606 710 580 c 2
 651 225 l 2
 630 96 516 -22 386 -22 c 0
 270 -22 171 61 171 189 c 0
 171 200 171 213 174 231 c 2
 236 600 l 2
 237 608 239 617 239 624 c 0
 239 645 229 652 163 652 c 2
 142 652 l 1
EndSplineSet
Substitution2: "'locl' +rW2sAAAA,+ycDF7QAA +rODHINYV in +t3zS9AAA +x5AA lookup 11 subtable" Uacute.vn
AlternateSubs2: "'ss01' +wqTQwMd8wTjSuAAA-1 lookup 10 subtable" Uacute.vn
AlternateSubs2: "'salt' +wqTQwMd8ua0A +swDFSNYV in +t3zS9AAA +x5AA lookup 9 subtable" Uacute.vn
Substitution2: "'c2sc' +swC7OMeQxdDBHAAA +wYzWFbMAuzjHkLhc lookup 2 subtable" Uacute.sc
EndChar

StartChar: Ucircumflex
Encoding: 219 219 155
Width: 750
GlyphClass: 2
Flags: MW
TeX: 891 0
ItalicCorrection: 108
HStem: -22 31<369 437 369 451> 652 31<375.5 442 415 442>
VStem: 171 86<125 166 94 194.5>
AnchorPoint: "Anchor-5" 525 904 basechar 0
AnchorPoint: "Anchor-4" 390 0 basechar 0
LayerCount: 2
Fore
SplineSet
382 762 m 1
 539 902 l 1
 649 762 l 1
 649 761 l 1
 629 744 l 1
 628 744 l 1
 531 849 l 1
 397 744 l 1
 396 744 l 1
 382 762 l 1
142 652 m 1
 143 661 146 675 147 683 c 1
 183 680 255 680 294 680 c 0
 332 680 407 680 442 683 c 1
 437 652 l 1
 415 652 l 2
 336 652 332 641 327 609 c 2
 260 204 l 2
 257 186 257 172 257 160 c 0
 257 28 349 9 389 9 c 0
 485 9 596 89 620 231 c 2
 678 576 l 2
 681 592 681 594 681 599 c 0
 681 652 611 652 588 652 c 1
 594 683 l 1
 624 682 688 680 711 680 c 0
 745 680 792 681 830 683 c 1
 825 652 l 1
 722 652 714 606 710 580 c 2
 651 225 l 2
 630 96 516 -22 386 -22 c 0
 270 -22 171 61 171 189 c 0
 171 200 171 213 174 231 c 2
 236 600 l 2
 237 608 239 617 239 624 c 0
 239 645 229 652 163 652 c 2
 142 652 l 1
EndSplineSet
Substitution2: "'c2sc' +swC7OMeQxdDBHAAA +wYzWFbMAuzjHkLhc lookup 2 subtable" Ucircumflex.sc
EndChar

StartChar: Udieresis
Encoding: 220 220 156
Width: 750
GlyphClass: 2
Flags: MW
TeX: 891 0
ItalicCorrection: 108
HStem: -22 31<369 437 369 451> 652 31<375.5 442 415 442> 761 105<406 419.5 600 615>
VStem: 171 86<125 166 94 194.5> 360 106<802.5 824.5> 554 106<804 824>
AnchorPoint: "Anchor-5" 519 868 basechar 0
AnchorPoint: "Anchor-4" 390 0 basechar 0
LayerCount: 2
Fore
SplineSet
360 807 m 0
 360 842 392 866 420 866 c 0
 444 866 466 848 466 820 c 0
 466 785 433 761 406 761 c 0
 378 761 360 783 360 807 c 0
554 806 m 0
 554 842 586 866 614 866 c 0
 638 866 660 848 660 820 c 0
 660 788 630 761 600 761 c 0
 575 761 554 780 554 806 c 0
142 652 m 1
 143 661 146 675 147 683 c 1
 183 680 255 680 294 680 c 0
 332 680 407 680 442 683 c 1
 437 652 l 1
 415 652 l 2
 336 652 332 641 327 609 c 2
 260 204 l 2
 257 186 257 172 257 160 c 0
 257 28 349 9 389 9 c 0
 485 9 596 89 620 231 c 2
 678 576 l 2
 681 592 681 594 681 599 c 0
 681 652 611 652 588 652 c 1
 594 683 l 1
 624 682 688 680 711 680 c 0
 745 680 792 681 830 683 c 1
 825 652 l 1
 722 652 714 606 710 580 c 2
 651 225 l 2
 630 96 516 -22 386 -22 c 0
 270 -22 171 61 171 189 c 0
 171 200 171 213 174 231 c 2
 236 600 l 2
 237 608 239 617 239 624 c 0
 239 645 229 652 163 652 c 2
 142 652 l 1
EndSplineSet
Substitution2: "'c2sc' +swC7OMeQxdDBHAAA +wYzWFbMAuzjHkLhc lookup 2 subtable" Udieresis.sc
EndChar

StartChar: Yacute
Encoding: 221 221 157
Width: 750
GlyphClass: 2
Flags: MW
TeX: 856 0
ItalicCorrection: 138
HStem: 0 31<228 249.5 520 520> 652 31<125 125 125 159> 787 75
AnchorPoint: "Anchor-5" 518 864 basechar 0
AnchorPoint: "Anchor-4" 374 0 basechar 0
LayerCount: 2
Fore
SplineSet
455 765 m 1
 624 860 623 862 639 862 c 0
 654 862 667 849 667 831 c 0
 667 798 631 792 616 787 c 0
 492 751 477 745 461 741 c 1
 455 765 l 1
120 652 m 1
 125 683 l 1
 162 681 224 680 255 680 c 0
 293 680 367 680 402 683 c 1
 397 652 l 1
 371 652 323 652 323 624 c 0
 323 623 323 618 329 605 c 2
 459 315 l 1
 669 584 l 2
 676 593 685 604 685 618 c 0
 685 637 669 652 634 652 c 1
 639 683 l 1
 665 682 723 680 753 680 c 0
 780 680 820 681 851 683 c 1
 846 652 l 1
 807 651 753 645 707 586 c 2
 463 273 l 1
 458 243 428 76 428 60 c 0
 428 39 440 35 462 33 c 0
 482 31 497 31 525 31 c 1
 520 0 l 1
 484 3 413 3 374 3 c 0
 335 3 264 3 228 0 c 1
 233 31 l 1
 266 31 297 31 319 36 c 0
 338 41 341 63 343 75 c 0
 360 167 362 182 376 274 c 1
 224 614 l 2
 209 648 198 652 120 652 c 1
EndSplineSet
Substitution2: "'locl' +rW2sAAAA,+ycDF7QAA +rODHINYV in +t3zS9AAA +x5AA lookup 11 subtable" Yacute.vn
AlternateSubs2: "'ss01' +wqTQwMd8wTjSuAAA-1 lookup 10 subtable" Yacute.vn
AlternateSubs2: "'salt' +wqTQwMd8ua0A +swDFSNYV in +t3zS9AAA +x5AA lookup 9 subtable" Yacute.vn
Substitution2: "'c2sc' +swC7OMeQxdDBHAAA +wYzWFbMAuzjHkLhc lookup 2 subtable" Yacute.sc
EndChar

StartChar: Thorn
Encoding: 222 222 158
Width: 625
GlyphClass: 2
Flags: MW
TeX: 688 0
ItalicCorrection: 57
HStem: 0 31<35 51 325 325> 178 31<257 357 357 379 251 357> 521 31<314 405 309 444> 652 31<149 149 149 160 144 149>
VStem: 531 100<357.5 420.5>
LayerCount: 2
Fore
SplineSet
35 0 m 1
 40 31 l 1
 51 31 l 2
 150 31 144 40 153 94 c 2
 236 592 l 2
 238 604 240 615 240 623 c 0
 240 649 221 652 160 652 c 2
 144 652 l 1
 149 683 l 1
 199 681 248 680 298 680 c 0
 346 680 391 681 438 683 c 1
 433 652 l 1
 423 652 l 2
 320 652 329 644 314 552 c 1
 444 552 l 2
 582 552 631 460 631 392 c 0
 631 300 544 178 379 178 c 2
 251 178 l 1
 242 116 233 78 233 61 c 0
 233 34 254 31 319 31 c 2
 330 31 l 1
 325 0 l 1
 276 2 226 3 177 3 c 2
 174 3 l 2
 158 3 115 3 35 0 c 1
257 209 m 1
 357 209 l 2
 473 209 531 317 531 398 c 0
 531 443 513 522 425 522 c 0
 419 522 411 521 405 521 c 2
 309 521 l 1
 257 209 l 1
EndSplineSet
Substitution2: "'c2sc' +swC7OMeQxdDBHAAA +wYzWFbMAuzjHkLhc lookup 2 subtable" Thorn.sc
EndChar

StartChar: germandbls
Encoding: 223 223 159
Width: 500
GlyphClass: 2
Flags: MW
TeX: 688 0
ItalicCorrection: 60
HStem: -11 23<320 374 313 393> 0 31<27 37> 400 30<99 171 94 177> 682 23<339.5 392.5>
VStem: 229 49 279 55<297 326.5> 435 54<121 139.5> 460 25<590.5 630.5 580 631>
LayerCount: 2
Fore
SplineSet
27 0 m 1x7d
 32 31 l 1
 37 31 l 2
 106 31 111 40 118 80 c 2
 171 400 l 1
 94 400 l 1
 99 430 l 1
 177 430 l 1
 181 461 200 570 204 585 c 0
 230 678 308 705 371 705 c 0
 443 705 485 665 485 596 c 0x7d
 485 564 468 444 417 429 c 0
 412 427 334 427 334 331 c 0
 334 263 388 278 426 260 c 0
 466 242 489 201 489 153 c 0
 489 89 449 -11 337 -11 c 0
 303 -11 287 1 273 16 c 1
 265 8 250 -9 239 -9 c 0
 235 -9 229 -7 229 3 c 0
 229 10 228 4 250 139 c 0
 253 156 259 165 266 165 c 0
 269 165 272 163 275 160 c 0
 278 157 278 154 278 146 c 0
 278 138 277 125 277 106 c 0
 277 48 289 12 337 12 c 0
 411 12 435 81 435 121 c 0xbe
 435 158 416 176 406 183 c 0
 377 203 339 189 306 225 c 0
 288 245 279 273 279 300 c 0
 279 353 308 437 398 446 c 0
 412 448 420 450 430 469 c 0
 454 514 460 584 460 597 c 0
 460 665 412 682 373 682 c 0
 282 682 271 592 262 540 c 2
 172 0 l 1
 158 2 142 3 125 3 c 0
 105 3 86 2 27 0 c 1x7d
EndSplineSet
Substitution2: "'smcp' +wYy7OMeQxdDBHAAA +wYzWFQAA +swC7OMeQuFwA lookup 1 subtable" Germandbls.sc
EndChar

StartChar: agrave
Encoding: 224 224 160
Width: 500
GlyphClass: 2
Flags: MW
TeX: 641 0
HStem: -11 22<187.5 226.5 187.5 246.5> -6 31<399.5 443.5> 240 20 426 22<277 320.5> 490 152<286.5 406>
VStem: 57 77<59.5 80.5 59.5 128.5> 126 93<326 353 326 355> 255 169<510 611.5> 346 61<56.5 71 56.5 73> 379 68<324 354>
AnchorPoint: "Anchor-5" 324 622 basechar 0
AnchorPoint: "Anchor-4" 220 0 basechar 0
LayerCount: 2
Fore
SplineSet
255 600 m 0x09
 255 623 277 642 296 642 c 0
 315 642 316 636 424 510 c 1
 406 490 l 1
 393 497 381 505 282 567 c 0
 273 573 255 582 255 600 c 0x09
57 82 m 0xb480
 57 175 176 254 341 260 c 0
 364 261 366 261 368 262 c 0
 372 265 379 319 379 329 c 0
 379 379 349 426 292 426 c 0
 262 426 208 415 177 380 c 1
 201 379 219 366 219 340 c 0
 219 312 196 288 167 288 c 0
 136 288 126 310 126 327 c 0
 126 383 194 448 295 448 c 0
 379 448 447 398 447 322 c 0xb240
 447 300 424 170 418 138 c 0
 416 125 407 76 407 66 c 0
 407 47 414 25 436 25 c 0
 451 25 470 38 478 68 c 0
 481 77 488 119 492 145 c 1
 517 145 l 1
 511 108 510 100 507 87 c 0
 495 14 439 -6 410 -6 c 0x7080
 389 -6 346 4 346 73 c 1
 338 59 291 -11 202 -11 c 0
 154 -11 57 5 57 82 c 0xb480
134 80 m 0xb4
 134 39 166 11 209 11 c 0
 244 11 279 28 303 52 c 0
 341 89 346 120 351 150 c 2
 366 240 l 1
 134 230 134 81 134 80 c 0xb4
EndSplineSet
Substitution2: "'locl' +rW2sAAAA,+ycDF7QAA +rODHINYV in +t3zS9AAA +x5AA lookup 11 subtable" agrave.vn
AlternateSubs2: "'ss01' +wqTQwMd8wTjSuAAA-1 lookup 10 subtable" agrave.vn
AlternateSubs2: "'salt' +wqTQwMd8ua0A +swDFSNYV in +t3zS9AAA +x5AA lookup 9 subtable" agrave.vn
Substitution2: "'smcp' +wYy7OMeQxdDBHAAA +wYzWFQAA +swC7OMeQuFwA lookup 1 subtable" Agrave.sc
EndChar

StartChar: aacute
Encoding: 225 225 161
Width: 500
GlyphClass: 2
Flags: MW
TeX: 641 0
HStem: -11 22<187.5 226.5 187.5 246.5> -6 31<399.5 443.5> 240 20 426 22<277 320.5> 490 152<255 423.5>
VStem: 57 77<59.5 80.5 59.5 128.5> 126 93<326 353 326 355> 243 202<510 618.5> 346 61<56.5 71 56.5 73> 379 68<324 354>
AnchorPoint: "Anchor-5" 324 622 basechar 0
AnchorPoint: "Anchor-4" 220 0 basechar 0
LayerCount: 2
Fore
SplineSet
243 510 m 1x09
 402 643 396 642 414 642 c 0
 433 642 445 626 445 611 c 0
 445 582 413 571 399 564 c 0
 284 504 270 497 255 490 c 1
 243 510 l 1x09
57 82 m 0xb480
 57 175 176 254 341 260 c 0
 364 261 366 261 368 262 c 0
 372 265 379 319 379 329 c 0
 379 379 349 426 292 426 c 0
 262 426 208 415 177 380 c 1
 201 379 219 366 219 340 c 0
 219 312 196 288 167 288 c 0
 136 288 126 310 126 327 c 0
 126 383 194 448 295 448 c 0
 379 448 447 398 447 322 c 0xb240
 447 300 424 170 418 138 c 0
 416 125 407 76 407 66 c 0
 407 47 414 25 436 25 c 0
 451 25 470 38 478 68 c 0
 481 77 488 119 492 145 c 1
 517 145 l 1
 511 108 510 100 507 87 c 0
 495 14 439 -6 410 -6 c 0x7080
 389 -6 346 4 346 73 c 1
 338 59 291 -11 202 -11 c 0
 154 -11 57 5 57 82 c 0xb480
134 80 m 0xb4
 134 39 166 11 209 11 c 0
 244 11 279 28 303 52 c 0
 341 89 346 120 351 150 c 2
 366 240 l 1
 134 230 134 81 134 80 c 0xb4
EndSplineSet
Substitution2: "'locl' +rW2sAAAA,+ycDF7QAA +rODHINYV in +t3zS9AAA +x5AA lookup 11 subtable" aacute.vn
AlternateSubs2: "'ss01' +wqTQwMd8wTjSuAAA-1 lookup 10 subtable" aacute.vn
AlternateSubs2: "'salt' +wqTQwMd8ua0A +swDFSNYV in +t3zS9AAA +x5AA lookup 9 subtable" aacute.vn
Substitution2: "'smcp' +wYy7OMeQxdDBHAAA +wYzWFQAA +swC7OMeQuFwA lookup 1 subtable" Aacute.sc
EndChar

StartChar: acircumflex
Encoding: 226 226 162
Width: 500
GlyphClass: 2
Flags: MW
TeX: 641 0
HStem: -11 22<187.5 226.5 187.5 246.5> -6 31<399.5 443.5> 240 20 426 22<277 320.5> 482 168<185 329 329 417>
VStem: 57 77<59.5 80.5 59.5 128.5> 126 93<326 353 326 355> 170 268<500 500> 346 61<56.5 71 56.5 73> 379 68<324 354>
AnchorPoint: "Anchor-5" 325 630 basechar 0
AnchorPoint: "Anchor-4" 220 0 basechar 0
LayerCount: 2
Fore
SplineSet
170 500 m 1x09
 329 650 l 1
 438 500 l 1
 417 482 l 1
 320 596 l 1
 185 482 l 1
 170 500 l 1x09
57 82 m 0xb480
 57 175 176 254 341 260 c 0
 364 261 366 261 368 262 c 0
 372 265 379 319 379 329 c 0
 379 379 349 426 292 426 c 0
 262 426 208 415 177 380 c 1
 201 379 219 366 219 340 c 0
 219 312 196 288 167 288 c 0
 136 288 126 310 126 327 c 0
 126 383 194 448 295 448 c 0
 379 448 447 398 447 322 c 0xb240
 447 300 424 170 418 138 c 0
 416 125 407 76 407 66 c 0
 407 47 414 25 436 25 c 0
 451 25 470 38 478 68 c 0
 481 77 488 119 492 145 c 1
 517 145 l 1
 511 108 510 100 507 87 c 0
 495 14 439 -6 410 -6 c 0x7080
 389 -6 346 4 346 73 c 1
 338 59 291 -11 202 -11 c 0
 154 -11 57 5 57 82 c 0xb480
134 80 m 0xb4
 134 39 166 11 209 11 c 0
 244 11 279 28 303 52 c 0
 341 89 346 120 351 150 c 2
 366 240 l 1
 134 230 134 81 134 80 c 0xb4
EndSplineSet
Substitution2: "'locl' +rW2sAAAA,+ycDF7QAA +rODHINYV in +t3zS9AAA +x5AA lookup 11 subtable" acircumflex.vn
AlternateSubs2: "'ss01' +wqTQwMd8wTjSuAAA-1 lookup 10 subtable" acircumflex.vn
AlternateSubs2: "'salt' +wqTQwMd8ua0A +swDFSNYV in +t3zS9AAA +x5AA lookup 9 subtable" acircumflex.vn
Substitution2: "'smcp' +wYy7OMeQxdDBHAAA +wYzWFQAA +swC7OMeQuFwA lookup 1 subtable" Acircumflex.sc
EndChar

StartChar: atilde
Encoding: 227 227 163
Width: 500
GlyphClass: 2
Flags: MW
TeX: 641 0
HStem: -11 22<187.5 226.5 187.5 246.5> -6 31<399.5 443.5> 240 20 426 22<277 320.5> 519 46<360.5 389> 566 46<239 269.5>
VStem: 57 77<59.5 80.5 59.5 128.5> 126 93<326 353 326 355> 346 61<56.5 71 56.5 73> 379 68<324 354>
AnchorPoint: "Anchor-5" 319 593 basechar 0
AnchorPoint: "Anchor-4" 220 0 basechar 0
LayerCount: 2
Fore
SplineSet
143 534 m 1x0c
 169 558 214 612 264 612 c 0
 310 612 337 565 384 565 c 0
 419 565 449 592 472 613 c 1
 473 613 l 1
 487 598 l 1
 462 574 413 519 365 519 c 0
 320 519 293 566 246 566 c 0
 211 566 181 539 158 519 c 1
 143 534 l 1x0c
57 82 m 0xb280
 57 175 176 254 341 260 c 0
 364 261 366 261 368 262 c 0
 372 265 379 319 379 329 c 0
 379 379 349 426 292 426 c 0
 262 426 208 415 177 380 c 1
 201 379 219 366 219 340 c 0
 219 312 196 288 167 288 c 0
 136 288 126 310 126 327 c 0
 126 383 194 448 295 448 c 0
 379 448 447 398 447 322 c 0xb140
 447 300 424 170 418 138 c 0
 416 125 407 76 407 66 c 0
 407 47 414 25 436 25 c 0
 451 25 470 38 478 68 c 0
 481 77 488 119 492 145 c 1
 517 145 l 1
 511 108 510 100 507 87 c 0
 495 14 439 -6 410 -6 c 0x7080
 389 -6 346 4 346 73 c 1
 338 59 291 -11 202 -11 c 0
 154 -11 57 5 57 82 c 0xb280
134 80 m 0xb2
 134 39 166 11 209 11 c 0
 244 11 279 28 303 52 c 0
 341 89 346 120 351 150 c 2
 366 240 l 1
 134 230 134 81 134 80 c 0xb2
EndSplineSet
Substitution2: "'locl' +rW2sAAAA,+ycDF7QAA +rODHINYV in +t3zS9AAA +x5AA lookup 11 subtable" atilde.vn
AlternateSubs2: "'ss01' +wqTQwMd8wTjSuAAA-1 lookup 10 subtable" atilde.vn
AlternateSubs2: "'salt' +wqTQwMd8ua0A +swDFSNYV in +t3zS9AAA +x5AA lookup 9 subtable" atilde.vn
Substitution2: "'smcp' +wYy7OMeQxdDBHAAA +wYzWFQAA +swC7OMeQuFwA lookup 1 subtable" Atilde.sc
EndChar

StartChar: adieresis
Encoding: 228 228 164
Width: 500
GlyphClass: 2
Flags: MW
TeX: 663 0
HStem: -11 22<187.5 226.5 187.5 246.5> -6 31<399.5 443.5> 240 20 426 22<277 320.5> 554 105<242.5 259.5 439 455>
VStem: 57 77<59.5 80.5 59.5 128.5> 126 93<326 353 326 355> 200 106<595 614.5> 346 61<56.5 71 56.5 73> 379 68<324 354> 394 106<596.5 616>
AnchorPoint: "Anchor-5" 327 639 basechar 0
AnchorPoint: "Anchor-4" 220 0 basechar 0
LayerCount: 2
Fore
SplineSet
394 600 m 0x3820
 394 632 424 659 454 659 c 0
 478 659 500 640 500 613 c 0
 500 580 470 554 440 554 c 0
 415 554 394 573 394 600 c 0x3820
200 600 m 0x09
 200 629 226 659 259 659 c 0
 283 659 306 640 306 613 c 0
 306 577 273 554 246 554 c 0
 218 554 200 576 200 600 c 0x09
57 82 m 0xb480
 57 175 176 254 341 260 c 0
 364 261 366 261 368 262 c 0
 372 265 379 319 379 329 c 0
 379 379 349 426 292 426 c 0
 262 426 208 415 177 380 c 1
 201 379 219 366 219 340 c 0
 219 312 196 288 167 288 c 0
 136 288 126 310 126 327 c 0
 126 383 194 448 295 448 c 0
 379 448 447 398 447 322 c 0xb240
 447 300 424 170 418 138 c 0
 416 125 407 76 407 66 c 0
 407 47 414 25 436 25 c 0
 451 25 470 38 478 68 c 0
 481 77 488 119 492 145 c 1
 517 145 l 1
 511 108 510 100 507 87 c 0
 495 14 439 -6 410 -6 c 0x7080
 389 -6 346 4 346 73 c 1
 338 59 291 -11 202 -11 c 0
 154 -11 57 5 57 82 c 0xb480
134 80 m 0xb4
 134 39 166 11 209 11 c 0
 244 11 279 28 303 52 c 0
 341 89 346 120 351 150 c 2
 366 240 l 1
 134 230 134 81 134 80 c 0xb4
EndSplineSet
Substitution2: "'smcp' +wYy7OMeQxdDBHAAA +wYzWFQAA +swC7OMeQuFwA lookup 1 subtable" Adieresis.sc
EndChar

StartChar: aring
Encoding: 229 229 165
Width: 500
GlyphClass: 2
Flags: MW
TeX: 641 0
HStem: -11 22<187.5 226.5 187.5 246.5> -6 31<399.5 443.5> 240 20 426 22<277 320.5> 500 22<286 336.5> 638 23<300 346.5>
VStem: 57 77<59.5 80.5 59.5 128.5> 126 93<326 353 326 355> 221 25<554 581 554 592.5> 346 61<56.5 71 56.5 73> 379 68<324 354> 389 26<581.5 608.5>
LayerCount: 2
Fore
SplineSet
221 570 m 0x3c90
 221 615 269 661 331 661 c 0
 378 661 415 633 415 591 c 0
 415 547 368 500 305 500 c 0
 258 500 221 528 221 570 c 0x3c90
246 568 m 0
 246 540 264 522 308 522 c 0
 380 522 389 571 389 592 c 0
 389 625 365 638 328 638 c 0
 259 638 246 594 246 568 c 0
57 82 m 0xb240
 57 175 176 254 341 260 c 0
 364 261 366 261 368 262 c 0
 372 265 379 319 379 329 c 0
 379 379 349 426 292 426 c 0
 262 426 208 415 177 380 c 1
 201 379 219 366 219 340 c 0
 219 312 196 288 167 288 c 0
 136 288 126 310 126 327 c 0
 126 383 194 448 295 448 c 0
 379 448 447 398 447 322 c 0xb120
 447 300 424 170 418 138 c 0
 416 125 407 76 407 66 c 0
 407 47 414 25 436 25 c 0
 451 25 470 38 478 68 c 0
 481 77 488 119 492 145 c 1
 517 145 l 1
 511 108 510 100 507 87 c 0
 495 14 439 -6 410 -6 c 0x7040
 389 -6 346 4 346 73 c 1
 338 59 291 -11 202 -11 c 0
 154 -11 57 5 57 82 c 0xb240
134 80 m 0xb2
 134 39 166 11 209 11 c 0
 244 11 279 28 303 52 c 0
 341 89 346 120 351 150 c 2
 366 240 l 1
 134 230 134 81 134 80 c 0xb2
EndSplineSet
Substitution2: "'smcp' +wYy7OMeQxdDBHAAA +wYzWFQAA +swC7OMeQuFwA lookup 1 subtable" Aring.sc
EndChar

StartChar: ae
Encoding: 230 230 166
Width: 722
GlyphClass: 2
Flags: MW
TeX: 430 0
ItalicCorrection: 56
HStem: -11 26<523.5 571.5 519.5 585.5> 230 22<439 669 439 713 434 669> 424 23<257.5 309 243 320 581 612.5>
VStem: 58 79<57.5 86.5 57.5 113> 126 92<329 347.5 329 354.5> 360 67<112 151> 368 71 674 65<303 357 265.5 359.5>
AnchorPoint: "Anchor-5" 443 448 basechar 0
AnchorPoint: "Anchor-4" 369 0 basechar 0
LayerCount: 2
Fore
SplineSet
58 79 m 0xf5
 58 147 142 248 368 250 c 1
 373 285 378 306 378 329 c 0
 378 380 348 424 292 424 c 0
 223 424 182 385 177 380 c 1
 213 376 218 354 218 341 c 0
 218 317 197 289 166 289 c 0
 139 289 126 306 126 329 c 0xeb
 126 380 191 447 295 447 c 0
 323 447 399 441 437 370 c 1
 480 413 531 447 599 447 c 0
 659 447 739 417 739 297 c 0
 739 234 729 230 713 230 c 2
 434 230 l 1
 430 209 427 187 427 159 c 0
 427 50 495 15 544 15 c 0
 599 15 651 52 680 106 c 0
 684 114 691 127 697 129 c 0
 708 133 715 123 710 110 c 0
 696 71 633 -11 538 -11 c 0
 509 -11 430 -2 385 77 c 1
 384 77 l 1
 344 19 275 -11 202 -11 c 0
 121 -11 58 21 58 79 c 0xf5
137 78 m 0xf5
 137 37 169 12 210 12 c 0
 285 12 360 78 360 146 c 0
 360 156 359 166 359 180 c 0
 359 196 361 213 363 229 c 1
 266 223 187 195 151 128 c 0
 143 113 137 95 137 78 c 0xf5
439 252 m 1xe3
 669 252 l 1
 672 272 674 293 674 313 c 0
 674 406 628 424 597 424 c 0
 565 424 479 404 439 252 c 1xe3
EndSplineSet
Substitution2: "'smcp' +wYy7OMeQxdDBHAAA +wYzWFQAA +swC7OMeQuFwA lookup 1 subtable" AE.sc
EndChar

StartChar: ccedilla
Encoding: 231 231 167
Width: 444
GlyphClass: 2
Flags: MW
TeX: 430 170
ItalicCorrection: 60
HStem: -204 23<100 109 97 120> 294 91 421 26<267 357>
VStem: 65 82<131 215.5 113.5 247> 276 71<-148.5 -118> 369 93<336.5 341>
AnchorPoint: "Anchor-5" 324 448 basechar 0
LayerCount: 2
Fore
SplineSet
65 178 m 0
 65 316 185 447 324 447 c 0
 402 447 462 410 462 353 c 0
 462 320 441 294 409 294 c 0
 387 294 369 310 369 333 c 0
 369 349 379 384 425 385 c 1
 417 392 390 421 324 421 c 0
 210 421 147 275 147 156 c 0
 147 71 192 15 259 15 c 0
 291 15 359 28 402 106 c 0
 408 117 410 129 424 129 c 0
 430 129 438 121 430 106 c 0
 420 83 380 12 282 -8 c 1
 275 -54 l 1
 288 -57 347 -66 347 -116 c 0
 347 -186 258 -204 109 -204 c 2
 97 -204 l 1
 100 -181 l 1
 120 -181 l 2
 175 -181 276 -179 276 -118 c 0
 275 -98 261 -74 202 -71 c 1
 213 -8 l 1
 122 10 65 84 65 178 c 0
EndSplineSet
Substitution2: "'smcp' +wYy7OMeQxdDBHAAA +wYzWFQAA +swC7OMeQuFwA lookup 1 subtable" Ccedilla.sc
EndChar

StartChar: egrave
Encoding: 232 232 168
Width: 444
GlyphClass: 2
Flags: MW
TeX: 641 0
ItalicCorrection: 56
HStem: -11 25<231 267.5 231 309.5> 231 21<154 390 154 428 150 390> 426 22<296 345 241.5 351.5> 490 152<286.5 406>
VStem: 61 80<126 166 97 247.5> 255 169<510 611.5> 395 65<297 318>
AnchorPoint: "Anchor-5" 338 622 basechar 0
AnchorPoint: "Anchor-4" 250 0 basechar 0
LayerCount: 2
Fore
SplineSet
255 600 m 0x14
 255 623 277 642 296 642 c 0
 315 642 316 636 424 510 c 1
 406 490 l 1
 393 497 381 505 282 567 c 0
 273 573 255 582 255 600 c 0x14
61 182 m 0xea
 61 313 174 448 309 448 c 0
 381 448 460 412 460 294 c 0
 460 288 460 272 457 250 c 0
 454 231 452 231 428 231 c 2
 150 231 l 1
 147 216 141 181 141 151 c 0
 141 43 208 14 254 14 c 0
 281 14 360 25 408 117 c 0
 413 127 415 131 423 131 c 0
 432 131 434 124 434 120 c 0
 434 103 371 -11 248 -11 c 0
 143 -11 61 70 61 182 c 0xea
154 252 m 1
 390 252 l 1
 394 279 395 286 395 308 c 0
 395 328 395 426 308 426 c 0
 284 426 189 411 154 252 c 1
EndSplineSet
Substitution2: "'locl' +rW2sAAAA,+ycDF7QAA +rODHINYV in +t3zS9AAA +x5AA lookup 11 subtable" egrave.vn
AlternateSubs2: "'ss01' +wqTQwMd8wTjSuAAA-1 lookup 10 subtable" egrave.vn
AlternateSubs2: "'salt' +wqTQwMd8ua0A +swDFSNYV in +t3zS9AAA +x5AA lookup 9 subtable" egrave.vn
Substitution2: "'smcp' +wYy7OMeQxdDBHAAA +wYzWFQAA +swC7OMeQuFwA lookup 1 subtable" Egrave.sc
EndChar

StartChar: eacute
Encoding: 233 233 169
Width: 444
GlyphClass: 2
Flags: MW
TeX: 641 0
ItalicCorrection: 56
HStem: -11 25<231 267.5 231 309.5> 231 21<154 390 154 428 150 390> 426 22<296 345 241.5 351.5> 490 152<227 395.5>
VStem: 61 80<126 166 97 247.5> 215 202<510 618.5> 395 65<297 318>
AnchorPoint: "Anchor-5" 338 622 basechar 0
AnchorPoint: "Anchor-4" 250 0 basechar 0
LayerCount: 2
Fore
SplineSet
215 510 m 1x14
 374 643 368 642 386 642 c 0
 405 642 417 626 417 611 c 0
 417 582 385 571 371 564 c 0
 256 504 242 497 227 490 c 1
 215 510 l 1x14
61 182 m 0xea
 61 313 174 448 309 448 c 0
 381 448 460 412 460 294 c 0
 460 288 460 272 457 250 c 0
 454 231 452 231 428 231 c 2
 150 231 l 1
 147 216 141 181 141 151 c 0
 141 43 208 14 254 14 c 0
 281 14 360 25 408 117 c 0
 413 127 415 131 423 131 c 0
 432 131 434 124 434 120 c 0
 434 103 371 -11 248 -11 c 0
 143 -11 61 70 61 182 c 0xea
154 252 m 1
 390 252 l 1
 394 279 395 286 395 308 c 0
 395 328 395 426 308 426 c 0
 284 426 189 411 154 252 c 1
EndSplineSet
Substitution2: "'locl' +rW2sAAAA,+ycDF7QAA +rODHINYV in +t3zS9AAA +x5AA lookup 11 subtable" eacute.vn
AlternateSubs2: "'ss01' +wqTQwMd8wTjSuAAA-1 lookup 10 subtable" eacute.vn
AlternateSubs2: "'salt' +wqTQwMd8ua0A +swDFSNYV in +t3zS9AAA +x5AA lookup 9 subtable" eacute.vn
Substitution2: "'smcp' +wYy7OMeQxdDBHAAA +wYzWFQAA +swC7OMeQuFwA lookup 1 subtable" Eacute.sc
EndChar

StartChar: ecircumflex
Encoding: 234 234 170
Width: 444
GlyphClass: 2
Flags: MW
TeX: 641 0
ItalicCorrection: 56
HStem: -11 25<231 267.5 231 309.5> 231 21<154 390 154 428 150 390> 426 22<296 345 241.5 351.5> 482 168<185 329 329 417>
VStem: 61 80<126 166 97 247.5> 170 268<500 500> 395 65<297 318>
AnchorPoint: "Anchor-5" 339 630 basechar 0
AnchorPoint: "Anchor-4" 250 0 basechar 0
LayerCount: 2
Fore
SplineSet
170 500 m 1x14
 329 650 l 1
 438 500 l 1
 417 482 l 1
 320 596 l 1
 185 482 l 1
 170 500 l 1x14
61 182 m 0xea
 61 313 174 448 309 448 c 0
 381 448 460 412 460 294 c 0
 460 288 460 272 457 250 c 0
 454 231 452 231 428 231 c 2
 150 231 l 1
 147 216 141 181 141 151 c 0
 141 43 208 14 254 14 c 0
 281 14 360 25 408 117 c 0
 413 127 415 131 423 131 c 0
 432 131 434 124 434 120 c 0
 434 103 371 -11 248 -11 c 0
 143 -11 61 70 61 182 c 0xea
154 252 m 1
 390 252 l 1
 394 279 395 286 395 308 c 0
 395 328 395 426 308 426 c 0
 284 426 189 411 154 252 c 1
EndSplineSet
Substitution2: "'locl' +rW2sAAAA,+ycDF7QAA +rODHINYV in +t3zS9AAA +x5AA lookup 11 subtable" ecircumflex.vn
AlternateSubs2: "'ss01' +wqTQwMd8wTjSuAAA-1 lookup 10 subtable" ecircumflex.vn
AlternateSubs2: "'salt' +wqTQwMd8ua0A +swDFSNYV in +t3zS9AAA +x5AA lookup 9 subtable" ecircumflex.vn
Substitution2: "'smcp' +wYy7OMeQxdDBHAAA +wYzWFQAA +swC7OMeQuFwA lookup 1 subtable" Ecircumflex.sc
EndChar

StartChar: edieresis
Encoding: 235 235 171
Width: 444
GlyphClass: 2
Flags: MW
TeX: 663 0
ItalicCorrection: 56
HStem: -11 25<231 267.5 231 309.5> 231 21<154 390 154 428 150 390> 426 22<296 345 241.5 351.5> 554 105<215.5 232 411 428.5>
VStem: 61 80<126 166 97 247.5> 172 106<595.5 614> 366 106<598 616> 395 65<297 318>
AnchorPoint: "Anchor-5" 341 639 basechar 0
AnchorPoint: "Anchor-4" 250 0 basechar 0
LayerCount: 2
Fore
SplineSet
172 599 m 0xfc
 172 629 199 659 232 659 c 0
 260 659 278 637 278 613 c 0
 278 578 246 554 218 554 c 0
 195 554 172 571 172 599 c 0xfc
366 600 m 0xfe
 366 632 396 659 426 659 c 0
 450 659 472 641 472 613 c 0
 472 583 445 554 412 554 c 0
 387 554 366 573 366 600 c 0xfe
61 182 m 0xe9
 61 313 174 448 309 448 c 0
 381 448 460 412 460 294 c 0
 460 288 460 272 457 250 c 0
 454 231 452 231 428 231 c 2
 150 231 l 1
 147 216 141 181 141 151 c 0
 141 43 208 14 254 14 c 0
 281 14 360 25 408 117 c 0
 413 127 415 131 423 131 c 0
 432 131 434 124 434 120 c 0
 434 103 371 -11 248 -11 c 0
 143 -11 61 70 61 182 c 0xe9
154 252 m 1
 390 252 l 1
 394 279 395 286 395 308 c 0
 395 328 395 426 308 426 c 0
 284 426 189 411 154 252 c 1
EndSplineSet
Substitution2: "'smcp' +wYy7OMeQxdDBHAAA +wYzWFQAA +swC7OMeQuFwA lookup 1 subtable" Edieresis.sc
EndChar

StartChar: igrave
Encoding: 236 236 172
Width: 277
GlyphClass: 3
Flags: MW
TeX: 641 0
ItalicCorrection: 30
HStem: 0 31 400 31<110 110 110 131> 422 20<251 251>
VStem: 33 218
AnchorPoint: "Anchor-5" 248 628 basechar 0
AnchorPoint: "Anchor-4" 144 0 basechar 0
LayerCount: 2
Fore
SplineSet
33 0 m 1xb0
 35 10 36 21 38 31 c 1
 90 31 113 31 120 59 c 0
 121 61 127 95 130 113 c 0
 135 143 171 359 171 368 c 0
 171 395 158 400 104 400 c 1
 105 406 106 413 110 431 c 1xd0
 251 442 l 1
 187 55 l 2
 187 31 207 31 252 31 c 1
 251 22 248 8 247 0 c 1
 213 1 178 3 143 3 c 0
 119 3 65 1 33 0 c 1xb0
95 600 m 0x90
 95 623 117 642 136 642 c 0
 155 642 157 634 264 510 c 1
 246 490 l 1
 233 497 220 505 121 567 c 0
 104 578 95 587 95 600 c 0x90
EndSplineSet
Substitution2: "'locl' +rW2sAAAA,+ycDF7QAA +rODHINYV in +t3zS9AAA +x5AA lookup 11 subtable" igrave.vn
AlternateSubs2: "'ss01' +wqTQwMd8wTjSuAAA-1 lookup 10 subtable" igrave.vn
AlternateSubs2: "'salt' +wqTQwMd8ua0A +swDFSNYV in +t3zS9AAA +x5AA lookup 9 subtable" igrave.vn
Ligature2: "'liga' +1FzJAAAA +1WnHTMeQ in +t3zS9AAA +x5AA lookup 6 subtable" i gravecomb
Substitution2: "'smcp' +wYy7OMeQxdDBHAAA +wYzWFQAA +swC7OMeQuFwA lookup 1 subtable" Igrave.sc
EndChar

StartChar: iacute
Encoding: 237 237 173
Width: 277
GlyphClass: 3
Flags: MW
TeX: 641 0
ItalicCorrection: 30
HStem: 0 31 400 31<110 110 110 131> 422 20<251 251> 490 152<177 345.5>
VStem: 33 218 165 202<510 618.5>
AnchorPoint: "Anchor-5" 248 628 basechar 0
AnchorPoint: "Anchor-4" 144 0 basechar 0
LayerCount: 2
Fore
SplineSet
165 510 m 1x14
 324 643 318 642 336 642 c 0
 355 642 367 626 367 611 c 0
 367 582 335 571 321 564 c 0
 206 504 192 497 177 490 c 1
 165 510 l 1x14
33 0 m 1xa8
 35 10 36 21 38 31 c 1
 90 31 113 31 120 59 c 0
 121 61 127 95 130 113 c 0
 135 143 171 359 171 368 c 0
 171 395 158 400 104 400 c 1
 105 406 106 413 110 431 c 1xc8
 251 442 l 1
 187 55 l 2
 187 31 207 31 252 31 c 1
 251 22 248 8 247 0 c 1
 213 1 178 3 143 3 c 0
 119 3 65 1 33 0 c 1xa8
EndSplineSet
Substitution2: "'locl' +rW2sAAAA,+ycDF7QAA +rODHINYV in +t3zS9AAA +x5AA lookup 11 subtable" iacute.vn
AlternateSubs2: "'ss01' +wqTQwMd8wTjSuAAA-1 lookup 10 subtable" iacute.vn
AlternateSubs2: "'salt' +wqTQwMd8ua0A +swDFSNYV in +t3zS9AAA +x5AA lookup 9 subtable" iacute.vn
Ligature2: "'liga' +1FzJAAAA +1WnHTMeQ in +0KS5tMeQ lookup 8 subtable" afii10103 acutecomb
Ligature2: "'liga' +1FzJAAAA +1WnHTMeQ in +t3zS9AAA +x5AA lookup 6 subtable" i acutecomb
Substitution2: "'smcp' +wYy7OMeQxdDBHAAA +wYzWFQAA +swC7OMeQuFwA lookup 1 subtable" Iacute.sc
EndChar

StartChar: icircumflex
Encoding: 238 238 174
Width: 277
GlyphClass: 3
Flags: MW
TeX: 641 0
ItalicCorrection: 30
HStem: 0 31 400 31<110 110 110 131> 422 20<251 251>
VStem: 33 218
AnchorPoint: "Anchor-5" 249 636 basechar 0
AnchorPoint: "Anchor-4" 144 0 basechar 0
LayerCount: 2
Fore
SplineSet
33 0 m 1xb0
 35 10 36 21 38 31 c 1
 90 31 113 31 120 59 c 0
 121 61 127 95 130 113 c 0
 135 143 171 359 171 368 c 0
 171 395 158 400 104 400 c 1
 105 406 106 413 110 431 c 1xd0
 251 442 l 1
 187 55 l 2
 187 31 207 31 252 31 c 1
 251 22 248 8 247 0 c 1
 213 1 178 3 143 3 c 0
 119 3 65 1 33 0 c 1xb0
93 500 m 1x90
 252 650 l 1
 361 500 l 1
 340 483 l 1
 339 483 l 1
 242 596 l 1
 108 482 l 1
 93 500 l 1x90
EndSplineSet
Ligature2: "'liga' +1FzJAAAA +1WnHTMeQ in +t3zS9AAA +x5AA lookup 6 subtable" i uni0302
Substitution2: "'smcp' +wYy7OMeQxdDBHAAA +wYzWFQAA +swC7OMeQuFwA lookup 1 subtable" Icircumflex.sc
EndChar

StartChar: idieresis
Encoding: 239 239 175
Width: 333
GlyphClass: 3
Flags: MW
TeX: 663 0
ItalicCorrection: 30
HStem: 0 31 400 31<138 138 138 159> 422 20<279 279> 553 105<166 183 360 378.5>
VStem: 61 218 121 106<595.5 615.5> 316 106<597 615.5>
AnchorPoint: "Anchor-5" 278 638 basechar 0
LayerCount: 2
Fore
SplineSet
121 599 m 0x16
 121 632 151 658 181 658 c 0
 206 658 227 640 227 612 c 0
 227 579 198 553 168 553 c 0
 144 553 121 572 121 599 c 0x16
316 599 m 0
 316 632 345 658 375 658 c 0
 403 658 422 637 422 612 c 0
 422 582 395 553 362 553 c 0
 337 553 316 572 316 599 c 0
61 0 m 1xa8
 63 10 64 21 66 31 c 1
 118 31 141 31 148 59 c 0
 149 61 155 95 158 113 c 0
 163 143 199 359 199 368 c 0
 199 395 186 400 132 400 c 1
 133 406 134 413 138 431 c 1xc8
 279 442 l 1
 215 55 l 2
 215 31 235 31 280 31 c 1
 279 22 276 8 275 0 c 1
 241 1 206 3 171 3 c 0
 147 3 93 1 61 0 c 1xa8
EndSplineSet
Ligature2: "'liga' +1FzJAAAA +1WnHTMeQ in +t3zS9AAA +x5AA lookup 6 subtable" i uni0308
Substitution2: "'smcp' +wYy7OMeQxdDBHAAA +wYzWFQAA +swC7OMeQuFwA lookup 1 subtable" Idieresis.sc
EndChar

StartChar: eth
Encoding: 240 240 176
Width: 500
GlyphClass: 2
Flags: MW
TeX: 688 0
ItalicCorrection: 71
HStem: -11 26<229 307 229 307.5> 424 23<296 351> 673 20G<188 205>
VStem: 60 81<120.5 167.5 96.5 247.5> 428 92<300.5 318.5>
LayerCount: 2
Fore
SplineSet
60 177 m 0
 60 318 190 447 320 447 c 0
 388 447 419 396 434 366 c 1
 421 475 370 538 335 579 c 1
 218 517 l 1
 202 511 l 2
 195 511 192 515 191 521 c 2
 192 525 l 1
 194 529 l 1
 232 555 276 574 317 597 c 1
 211 682 176 661 176 682 c 0
 176 688 182 693 194 693 c 0
 216 693 278 679 334 647 c 0
 353 636 359 628 369 628 c 0
 389 628 488 692 503 692 c 0
 511 692 516 683 512 676 c 0
 507 667 429 629 390 607 c 1
 462 546 520 446 520 323 c 0
 520 278 508 207 502 186 c 0
 472 76 365 -11 250 -11 c 0
 146 -11 60 64 60 177 c 0
141 150 m 0
 141 43 207 15 251 15 c 0
 363 15 428 148 428 270 c 0
 428 367 381 424 321 424 c 0
 271 424 222 388 195 350 c 0
 150 287 141 185 141 150 c 0
EndSplineSet
Substitution2: "'smcp' +wYy7OMeQxdDBHAAA +wYzWFQAA +swC7OMeQuFwA lookup 1 subtable" Eth.sc
EndChar

StartChar: ntilde
Encoding: 241 241 177
Width: 555
GlyphClass: 2
Flags: MW
TeX: 641 0
HStem: 0 31<32 63 257 257 535 535> 400 31<104 104 104 127.5> 420 22<368.5 404.5> 519 46<423.5 452> 566 46<302 332.5>
VStem: 444 67<345.5 376.5>
AnchorPoint: "Anchor-5" 383 599 basechar 0
AnchorPoint: "Anchor-4" 283 0 basechar 0
LayerCount: 2
Fore
SplineSet
206 534 m 1x18
 232 558 277 612 327 612 c 0
 373 612 400 565 447 565 c 0
 482 565 512 592 535 613 c 1
 536 613 l 1
 550 598 l 1
 525 574 476 519 428 519 c 0
 383 519 356 566 309 566 c 0
 274 566 244 539 221 519 c 1
 206 534 l 1x18
32 0 m 1xa4
 37 31 l 1
 89 31 112 31 119 59 c 0
 120 61 126 95 129 113 c 0
 134 143 170 359 170 368 c 0
 170 395 156 400 99 400 c 1
 104 431 l 1xc4
 247 442 l 1
 230 343 l 1
 231 342 l 1
 246 368 300 442 393 442 c 0
 462 442 511 416 511 340 c 0
 511 323 505 287 501 261 c 2
 486 172 l 2
 483 156 467 61 467 56 c 0
 467 31 490 31 540 31 c 1
 535 0 l 1
 501 1 449 3 423 3 c 0
 397 3 344 1 310 0 c 1
 315 31 l 1
 377 31 393 31 399 69 c 2
 433 269 l 2
 442 327 444 338 444 353 c 0
 444 400 424 420 385 420 c 0
 352 420 314 404 284 377 c 0
 235 330 226 282 221 249 c 0
 213 205 206 161 199 117 c 0
 196 97 189 59 189 56 c 0
 189 31 212 31 262 31 c 1
 257 0 l 1
 223 1 171 3 145 3 c 0
 119 3 66 1 32 0 c 1xa4
EndSplineSet
Substitution2: "'smcp' +wYy7OMeQxdDBHAAA +wYzWFQAA +swC7OMeQuFwA lookup 1 subtable" Ntilde.sc
EndChar

StartChar: ograve
Encoding: 242 242 178
Width: 500
GlyphClass: 2
Flags: MW
TeX: 641 0
ItalicCorrection: 50
HStem: -11 25<238 278 238 314.5> 426 22<311.5 336> 490 152<287.5 407>
VStem: 60 80<124 162.5 84 242.5> 256 169<510 611.5> 433 77<287.5 309.5 181.5 355>
AnchorPoint: "Anchor-5" 353 622 basechar 0
AnchorPoint: "Anchor-4" 250 0 basechar 0
LayerCount: 2
Fore
SplineSet
256 600 m 0
 256 623 278 642 297 642 c 0
 316 642 317 636 425 510 c 1
 407 490 l 1
 394 497 382 505 283 567 c 0
 274 573 256 582 256 600 c 0
60 176 m 0
 60 309 182 448 324 448 c 0
 432 448 510 365 510 254 c 0
 510 109 381 -11 248 -11 c 0
 136 -11 60 72 60 176 c 0
140 144 m 0
 140 24 224 14 252 14 c 0
 304 14 359 45 390 102 c 0
 425 168 433 276 433 299 c 0
 433 411 352 426 320 426 c 0
 303 426 233 422 184 342 c 0
 153 291 140 181 140 144 c 0
EndSplineSet
Substitution2: "'locl' +rW2sAAAA,+ycDF7QAA +rODHINYV in +t3zS9AAA +x5AA lookup 11 subtable" ograve.vn
AlternateSubs2: "'ss01' +wqTQwMd8wTjSuAAA-1 lookup 10 subtable" ograve.vn
AlternateSubs2: "'salt' +wqTQwMd8ua0A +swDFSNYV in +t3zS9AAA +x5AA lookup 9 subtable" ograve.vn
Substitution2: "'smcp' +wYy7OMeQxdDBHAAA +wYzWFQAA +swC7OMeQuFwA lookup 1 subtable" Ograve.sc
EndChar

StartChar: oacute
Encoding: 243 243 179
Width: 500
GlyphClass: 2
Flags: MW
TeX: 641 0
ItalicCorrection: 50
HStem: -11 25<238 278 238 314.5> 426 22<311.5 336> 490 152<256 424.5>
VStem: 60 80<124 162.5 84 242.5> 244 202<510 618.5> 433 77<287.5 309.5 181.5 355>
AnchorPoint: "Anchor-5" 353 622 basechar 0
AnchorPoint: "Anchor-4" 250 0 basechar 0
LayerCount: 2
Fore
SplineSet
244 510 m 1x28
 403 643 397 642 415 642 c 0
 434 642 446 626 446 611 c 0
 446 582 414 571 400 564 c 0
 285 504 271 497 256 490 c 1
 244 510 l 1x28
60 176 m 0xd4
 60 309 182 448 324 448 c 0
 432 448 510 365 510 254 c 0
 510 109 381 -11 248 -11 c 0
 136 -11 60 72 60 176 c 0xd4
140 144 m 0
 140 24 224 14 252 14 c 0
 304 14 359 45 390 102 c 0
 425 168 433 276 433 299 c 0
 433 411 352 426 320 426 c 0
 303 426 233 422 184 342 c 0
 153 291 140 181 140 144 c 0
EndSplineSet
Substitution2: "'locl' +rW2sAAAA,+ycDF7QAA +rODHINYV in +t3zS9AAA +x5AA lookup 11 subtable" oacute.vn
AlternateSubs2: "'ss01' +wqTQwMd8wTjSuAAA-1 lookup 10 subtable" oacute.vn
AlternateSubs2: "'salt' +wqTQwMd8ua0A +swDFSNYV in +t3zS9AAA +x5AA lookup 9 subtable" oacute.vn
Substitution2: "'smcp' +wYy7OMeQxdDBHAAA +wYzWFQAA +swC7OMeQuFwA lookup 1 subtable" Oacute.sc
EndChar

StartChar: ocircumflex
Encoding: 244 244 180
Width: 500
GlyphClass: 2
Flags: MW
TeX: 641 0
ItalicCorrection: 50
HStem: -11 25<238 278 238 314.5> 426 22<311.5 336> 482 168<214 358 358 446>
VStem: 60 80<124 162.5 84 242.5> 199 268<500 500> 433 77<287.5 309.5 181.5 355>
AnchorPoint: "Anchor-5" 354 630 basechar 0
AnchorPoint: "Anchor-4" 250 0 basechar 0
LayerCount: 2
Fore
SplineSet
199 500 m 1x28
 358 650 l 1
 467 500 l 1
 446 482 l 1
 349 596 l 1
 214 482 l 1
 199 500 l 1x28
60 176 m 0xd4
 60 309 182 448 324 448 c 0
 432 448 510 365 510 254 c 0
 510 109 381 -11 248 -11 c 0
 136 -11 60 72 60 176 c 0xd4
140 144 m 0
 140 24 224 14 252 14 c 0
 304 14 359 45 390 102 c 0
 425 168 433 276 433 299 c 0
 433 411 352 426 320 426 c 0
 303 426 233 422 184 342 c 0
 153 291 140 181 140 144 c 0
EndSplineSet
Substitution2: "'locl' +rW2sAAAA,+ycDF7QAA +rODHINYV in +t3zS9AAA +x5AA lookup 11 subtable" ocircumflex.vn
AlternateSubs2: "'ss01' +wqTQwMd8wTjSuAAA-1 lookup 10 subtable" ocircumflex.vn
AlternateSubs2: "'salt' +wqTQwMd8ua0A +swDFSNYV in +t3zS9AAA +x5AA lookup 9 subtable" ocircumflex.vn
Substitution2: "'smcp' +wYy7OMeQxdDBHAAA +wYzWFQAA +swC7OMeQuFwA lookup 1 subtable" Ocircumflex.sc
EndChar

StartChar: otilde
Encoding: 245 245 181
Width: 500
GlyphClass: 2
Flags: MW
TeX: 641 0
ItalicCorrection: 50
HStem: -11 25<238 278 238 314.5> 426 22<311.5 336> 519 46<389.5 418> 566 46<268 298.5>
VStem: 60 80<124 162.5 84 242.5> 433 77<287.5 309.5 181.5 355>
AnchorPoint: "Anchor-5" 348 593 basechar 0
AnchorPoint: "Anchor-4" 250 0 basechar 0
LayerCount: 2
Fore
SplineSet
172 534 m 1
 198 558 243 612 293 612 c 0
 339 612 366 565 413 565 c 0
 448 565 478 592 501 613 c 1
 502 613 l 1
 516 598 l 1
 491 574 442 519 394 519 c 0
 349 519 322 566 275 566 c 0
 240 566 210 539 187 519 c 1
 172 534 l 1
60 176 m 0
 60 309 182 448 324 448 c 0
 432 448 510 365 510 254 c 0
 510 109 381 -11 248 -11 c 0
 136 -11 60 72 60 176 c 0
140 144 m 0
 140 24 224 14 252 14 c 0
 304 14 359 45 390 102 c 0
 425 168 433 276 433 299 c 0
 433 411 352 426 320 426 c 0
 303 426 233 422 184 342 c 0
 153 291 140 181 140 144 c 0
EndSplineSet
Substitution2: "'locl' +rW2sAAAA,+ycDF7QAA +rODHINYV in +t3zS9AAA +x5AA lookup 11 subtable" otilde.vn
AlternateSubs2: "'ss01' +wqTQwMd8wTjSuAAA-1 lookup 10 subtable" otilde.vn
AlternateSubs2: "'salt' +wqTQwMd8ua0A +swDFSNYV in +t3zS9AAA +x5AA lookup 9 subtable" otilde.vn
Substitution2: "'smcp' +wYy7OMeQxdDBHAAA +wYzWFQAA +swC7OMeQuFwA lookup 1 subtable" Otilde.sc
EndChar

StartChar: odieresis
Encoding: 246 246 182
Width: 500
GlyphClass: 2
Flags: MW
TeX: 663 0
ItalicCorrection: 50
HStem: -11 25<238 278 238 314.5> 426 22<311.5 336> 554 105<243.5 260.5 440 456>
VStem: 60 80<124 162.5 84 242.5> 201 106<595 614.5> 395 106<596.5 616> 433 77<287.5 309.5 181.5 355>
AnchorPoint: "Anchor-5" 356 639 basechar 0
AnchorPoint: "Anchor-4" 250 0 basechar 0
LayerCount: 2
Fore
SplineSet
395 600 m 0xfc
 395 632 425 659 455 659 c 0
 479 659 501 640 501 613 c 0
 501 580 471 554 441 554 c 0
 416 554 395 573 395 600 c 0xfc
201 600 m 0x28
 201 629 227 659 260 659 c 0
 284 659 307 640 307 613 c 0
 307 577 274 554 247 554 c 0
 219 554 201 576 201 600 c 0x28
60 176 m 0xd2
 60 309 182 448 324 448 c 0
 432 448 510 365 510 254 c 0
 510 109 381 -11 248 -11 c 0
 136 -11 60 72 60 176 c 0xd2
140 144 m 0
 140 24 224 14 252 14 c 0
 304 14 359 45 390 102 c 0
 425 168 433 276 433 299 c 0
 433 411 352 426 320 426 c 0
 303 426 233 422 184 342 c 0
 153 291 140 181 140 144 c 0
EndSplineSet
Substitution2: "'smcp' +wYy7OMeQxdDBHAAA +wYzWFQAA +swC7OMeQuFwA lookup 1 subtable" Odieresis.sc
EndChar

StartChar: divide
Encoding: 247 247 183
Width: 778
GlyphClass: 2
Flags: MW
TeX: 583 83
ItalicCorrection: 13
HStem: -28 125<383 404> 230 40<115 730 130 730 730 733> 403 125<453.5 478.5>
VStem: 331 127<21.5 46.5> 403 126<454.5 476.5>
CounterMasks: 1 e0
LayerCount: 2
Fore
SplineSet
98 250 m 0xe0
 98 268 114 270 130 270 c 2
 730 270 l 2
 741 270 762 270 762 250 c 0
 762 234 746 230 733 230 c 2
 127 230 l 2
 103 230 98 242 98 250 c 0xe0
331 28 m 0xf0
 331 65 365 97 401 97 c 0
 436 97 458 69 458 41 c 0
 458 2 421 -28 387 -28 c 0
 353 -28 331 -1 331 28 c 0xf0
403 459 m 0xe8
 403 494 434 528 473 528 c 0
 507 528 529 502 529 472 c 0
 529 437 498 403 459 403 c 0
 425 403 403 430 403 459 c 0xe8
EndSplineSet
EndChar

StartChar: oslash
Encoding: 248 248 184
Width: 500
GlyphClass: 2
Flags: MW
TeX: 533 97
ItalicCorrection: 1
HStem: -11 23<233.5 248> 424 23<298.5 338.5>
VStem: 66 67<145 166.5> 437 66<269 283 184.5 307>
LayerCount: 2
Fore
SplineSet
44 -92 m 1
 133 28 l 1
 89 65 66 116 66 174 c 0
 66 310 187 447 323 447 c 0
 363 447 393 436 423 418 c 1
 508 533 l 1
 526 522 l 1
 439 405 l 1
 483 367 503 311 503 255 c 0
 503 114 382 -10 248 -11 c 0
 209 -11 184 -3 149 15 c 1
 62 -103 l 1
 44 -92 l 1
133 144 m 0
 133 93 149 69 156 59 c 1
 402 390 l 1
 402 391 l 1
 382 410 357 424 320 424 c 0
 277 424 234 402 205 371 c 0
 146 308 133 189 133 144 c 0
170 42 m 1
 191 25 215 12 252 12 c 0
 300 12 347 37 377 74 c 0
 428 137 437 252 437 286 c 0
 437 328 428 350 416 373 c 1
 415 373 l 1
 170 42 l 1
EndSplineSet
Substitution2: "'smcp' +wYy7OMeQxdDBHAAA +wYzWFQAA +swC7OMeQuFwA lookup 1 subtable" Oslash.sc
EndChar

StartChar: ugrave
Encoding: 249 249 185
Width: 555
GlyphClass: 2
Flags: MW
TeX: 641 0
HStem: -11 22<230.5 282.5 230.5 306.5> 1 30 400 30 422 20<253 253 531 531> 490 152<306.5 426>
VStem: 128 65<62.5 70.5 58.5 102.5> 275 169<510 611.5>
AnchorPoint: "Anchor-5" 387 628 basechar 0
AnchorPoint: "Anchor-4" 283 0 basechar 0
LayerCount: 2
Fore
SplineSet
275 600 m 0x0a
 275 623 297 642 316 642 c 0
 335 642 336 636 444 510 c 1
 426 490 l 1
 413 497 401 505 302 567 c 0
 293 573 275 582 275 600 c 0x0a
99 400 m 1xa4
 99 403 103 428 106 430 c 0xa4
 107 431 122 432 124 432 c 2
 253 442 l 1x14
 195 96 l 2
 194 92 193 73 193 68 c 0
 193 49 194 11 267 11 c 0
 298 11 329 21 361 53 c 0
 404 97 412 149 418 180 c 2
 439 306 l 2
 442 327 448 361 448 368 c 0
 448 395 434 400 377 400 c 1
 377 403 381 428 384 430 c 0xa4
 385 431 400 432 402 432 c 2
 531 442 l 1
 472 90 l 2
 469 72 469 65 469 63 c 0
 469 36 481 31 540 31 c 1
 540 28 536 3 533 1 c 0x54
 532 0 517 -1 515 -1 c 2
 389 -11 l 1
 403 73 l 1
 402 74 l 1
 396 64 351 -11 262 -11 c 0
 159 -11 128 32 128 93 c 0
 128 112 138 168 144 206 c 0
 148 228 170 358 170 368 c 0
 170 395 156 400 99 400 c 1xa4
EndSplineSet
Substitution2: "'locl' +rW2sAAAA,+ycDF7QAA +rODHINYV in +t3zS9AAA +x5AA lookup 11 subtable" ugrave.vn
AlternateSubs2: "'ss01' +wqTQwMd8wTjSuAAA-1 lookup 10 subtable" ugrave.vn
AlternateSubs2: "'salt' +wqTQwMd8ua0A +swDFSNYV in +t3zS9AAA +x5AA lookup 9 subtable" ugrave.vn
Substitution2: "'smcp' +wYy7OMeQxdDBHAAA +wYzWFQAA +swC7OMeQuFwA lookup 1 subtable" Ugrave.sc
EndChar

StartChar: uacute
Encoding: 250 250 186
Width: 555
GlyphClass: 2
Flags: MW
TeX: 641 0
HStem: -11 22<230.5 282.5 230.5 306.5> 1 30 400 30 422 20<253 253 531 531> 490 152<289 457.5>
VStem: 128 65<62.5 70.5 58.5 102.5> 277 202<510 618.5>
AnchorPoint: "Anchor-5" 387 628 basechar 0
AnchorPoint: "Anchor-4" 283 0 basechar 0
LayerCount: 2
Fore
SplineSet
277 510 m 1x0a
 436 643 430 642 448 642 c 0
 467 642 479 626 479 611 c 0
 479 582 447 571 433 564 c 0
 318 504 304 497 289 490 c 1
 277 510 l 1x0a
99 400 m 1xa4
 99 403 103 428 106 430 c 0xa4
 107 431 122 432 124 432 c 2
 253 442 l 1x14
 195 96 l 2
 194 92 193 73 193 68 c 0
 193 49 194 11 267 11 c 0
 298 11 329 21 361 53 c 0
 404 97 412 149 418 180 c 2
 439 306 l 2
 442 327 448 361 448 368 c 0
 448 395 434 400 377 400 c 1
 377 403 381 428 384 430 c 0xa4
 385 431 400 432 402 432 c 2
 531 442 l 1
 472 90 l 2
 469 72 469 65 469 63 c 0
 469 36 481 31 540 31 c 1
 540 28 536 3 533 1 c 0x54
 532 0 517 -1 515 -1 c 2
 389 -11 l 1
 403 73 l 1
 402 74 l 1
 396 64 351 -11 262 -11 c 0
 159 -11 128 32 128 93 c 0
 128 112 138 168 144 206 c 0
 148 228 170 358 170 368 c 0
 170 395 156 400 99 400 c 1xa4
EndSplineSet
Substitution2: "'locl' +rW2sAAAA,+ycDF7QAA +rODHINYV in +t3zS9AAA +x5AA lookup 11 subtable" uacute.vn
AlternateSubs2: "'ss01' +wqTQwMd8wTjSuAAA-1 lookup 10 subtable" uacute.vn
AlternateSubs2: "'salt' +wqTQwMd8ua0A +swDFSNYV in +t3zS9AAA +x5AA lookup 9 subtable" uacute.vn
Substitution2: "'smcp' +wYy7OMeQxdDBHAAA +wYzWFQAA +swC7OMeQuFwA lookup 1 subtable" Uacute.sc
EndChar

StartChar: ucircumflex
Encoding: 251 251 187
Width: 555
GlyphClass: 2
Flags: MW
TeX: 641 0
HStem: -11 22<230.5 282.5 230.5 306.5> 1 30 400 30 422 20<253 253 531 531> 482 168<247 391 391 479>
VStem: 128 65<62.5 70.5 58.5 102.5> 232 268<500 500>
AnchorPoint: "Anchor-5" 388 636 basechar 0
AnchorPoint: "Anchor-4" 283 0 basechar 0
LayerCount: 2
Fore
SplineSet
232 500 m 1x0a
 391 650 l 1
 500 500 l 1
 479 482 l 1
 382 596 l 1
 247 482 l 1
 232 500 l 1x0a
99 400 m 1xa4
 99 403 103 428 106 430 c 0xa4
 107 431 122 432 124 432 c 2
 253 442 l 1x14
 195 96 l 2
 194 92 193 73 193 68 c 0
 193 49 194 11 267 11 c 0
 298 11 329 21 361 53 c 0
 404 97 412 149 418 180 c 2
 439 306 l 2
 442 327 448 361 448 368 c 0
 448 395 434 400 377 400 c 1
 377 403 381 428 384 430 c 0xa4
 385 431 400 432 402 432 c 2
 531 442 l 1
 472 90 l 2
 469 72 469 65 469 63 c 0
 469 36 481 31 540 31 c 1
 540 28 536 3 533 1 c 0x54
 532 0 517 -1 515 -1 c 2
 389 -11 l 1
 403 73 l 1
 402 74 l 1
 396 64 351 -11 262 -11 c 0
 159 -11 128 32 128 93 c 0
 128 112 138 168 144 206 c 0
 148 228 170 358 170 368 c 0
 170 395 156 400 99 400 c 1xa4
EndSplineSet
Substitution2: "'smcp' +wYy7OMeQxdDBHAAA +wYzWFQAA +swC7OMeQuFwA lookup 1 subtable" Ucircumflex.sc
EndChar

StartChar: udieresis
Encoding: 252 252 188
Width: 555
GlyphClass: 2
Flags: MW
TeX: 663 0
HStem: -11 22<230.5 282.5 230.5 306.5> 1 30 400 30 422 20<253 253 531 531> 554 105<276.5 297 473 489>
VStem: 128 65<62.5 70.5 58.5 102.5> 234 106<598.5 614.5> 428 106<596.5 616>
AnchorPoint: "Anchor-5" 390 645 basechar 0
AnchorPoint: "Anchor-4" 283 0 basechar 0
LayerCount: 2
Fore
SplineSet
234 600 m 0x0f
 234 629 260 659 293 659 c 0
 317 659 340 640 340 613 c 0
 340 584 314 554 280 554 c 0
 252 554 234 575 234 600 c 0x0f
428 600 m 0
 428 632 458 659 488 659 c 0
 512 659 534 640 534 613 c 0
 534 580 504 554 474 554 c 0
 450 554 428 573 428 600 c 0
99 400 m 1xa4
 99 403 103 428 106 430 c 0xa4
 107 431 122 432 124 432 c 2
 253 442 l 1x14
 195 96 l 2
 194 92 193 73 193 68 c 0
 193 49 194 11 267 11 c 0
 298 11 329 21 361 53 c 0
 404 97 412 149 418 180 c 2
 439 306 l 2
 442 327 448 361 448 368 c 0
 448 395 434 400 377 400 c 1
 377 403 381 428 384 430 c 0xa4
 385 431 400 432 402 432 c 2
 531 442 l 1
 472 90 l 2
 469 72 469 65 469 63 c 0
 469 36 481 31 540 31 c 1
 540 28 536 3 533 1 c 0x54
 532 0 517 -1 515 -1 c 2
 389 -11 l 1
 403 73 l 1
 402 74 l 1
 396 64 351 -11 262 -11 c 0
 159 -11 128 32 128 93 c 0
 128 112 138 168 144 206 c 0
 148 228 170 358 170 368 c 0
 170 395 156 400 99 400 c 1xa4
EndSplineSet
Substitution2: "'smcp' +wYy7OMeQxdDBHAAA +wYzWFQAA +swC7OMeQuFwA lookup 1 subtable" Udieresis.sc
EndChar

StartChar: yacute
Encoding: 253 253 189
Width: 527
GlyphClass: 2
Flags: MW
TeX: 641 194
ItalicCorrection: 85
HStem: -205 22<75 101.5 75 117.5> -165 84 400 31<92 92 92 116.5> 490 152<325 493.5>
VStem: -3 86<-124.5 -116.5> 313 202<510 618.5>
AnchorPoint: "Anchor-5" 369 639 basechar 0
AnchorPoint: "Anchor-4" 231 -194 basechar 0
LayerCount: 2
Fore
SplineSet
313 510 m 1
 472 643 466 642 484 642 c 0
 503 642 515 626 515 611 c 0
 515 582 483 571 469 564 c 0
 354 504 340 497 325 490 c 1
 313 510 l 1
-3 -135 m 0
 -3 -98 25 -81 47 -81 c 0
 63 -81 83 -89 83 -115 c 0
 83 -134 71 -161 36 -165 c 1
 50 -180 69 -183 81 -183 c 0
 122 -183 156 -150 179 -118 c 0
 197 -94 249 -2 249 1 c 0
 249 3 248 7 246 16 c 2
 160 364 l 2
 152 395 147 400 86 400 c 1
 92 431 l 1
 118 429 158 428 188 428 c 0
 211 428 267 430 297 431 c 1
 296 422 293 408 292 400 c 1
 273 400 231 400 231 370 c 0
 231 366 233 359 234 355 c 2
 300 87 l 1
 441 330 l 2
 446 339 454 352 454 365 c 0
 454 397 420 401 413 401 c 1
 419 431 l 1
 433 430 479 428 505 428 c 0
 534 428 548 428 579 431 c 1
 574 400 l 1
 525 398 496 377 472 336 c 2
 222 -95 l 2
 216 -105 158 -205 77 -205 c 0
 32 -205 -3 -176 -3 -135 c 0
EndSplineSet
Substitution2: "'locl' +rW2sAAAA,+ycDF7QAA +rODHINYV in +t3zS9AAA +x5AA lookup 11 subtable" yacute.vn
AlternateSubs2: "'ss01' +wqTQwMd8wTjSuAAA-1 lookup 10 subtable" yacute.vn
AlternateSubs2: "'salt' +wqTQwMd8ua0A +swDFSNYV in +t3zS9AAA +x5AA lookup 9 subtable" yacute.vn
Substitution2: "'smcp' +wYy7OMeQxdDBHAAA +wYzWFQAA +swC7OMeQuFwA lookup 1 subtable" Yacute.sc
EndChar

StartChar: thorn
Encoding: 254 254 190
Width: 555
GlyphClass: 2
Flags: MW
TeX: 688 194
ItalicCorrection: 30
HStem: -195 31<-5 4 220 220> -11 23<265 340.5 258 363> 416 25<350 410.5> 663 31<143 143 143 157.5> 685 20G<290 290>
VStem: 478 83<199.5 301.5>
LayerCount: 2
Fore
SplineSet
-5 -195 m 1xec
 0 -164 l 1
 4 -164 l 2
 78 -164 79 -155 87 -109 c 2
 207 611 l 2
 208 617 209 624 209 630 c 0
 209 664 177 663 138 663 c 1
 143 694 l 1xf4
 290 705 l 1
 235 378 l 1
 269 410 317 441 383 441 c 0
 490 441 561 357 561 254 c 0
 561 105 426 -11 300 -11 c 0
 230 -11 201 27 184 51 c 1
 163 -82 153 -122 153 -139 c 0
 153 -159 171 -164 217 -164 c 2
 225 -164 l 1
 220 -195 l 1
 187 -194 155 -192 111 -192 c 0
 72 -192 34 -193 -5 -195 c 1xec
192 98 m 0
 192 76 222 12 294 12 c 0
 387 12 478 133 478 266 c 0
 478 337 448 416 373 416 c 0
 303 416 243 359 232 334 c 0
 226 320 192 99 192 98 c 0
EndSplineSet
Substitution2: "'smcp' +wYy7OMeQxdDBHAAA +wYzWFQAA +swC7OMeQuFwA lookup 1 subtable" Thorn.sc
EndChar

StartChar: ydieresis
Encoding: 255 255 191
Width: 527
GlyphClass: 2
Flags: MW
TeX: 663 194
ItalicCorrection: 85
HStem: -205 22<75 101.5 75 117.5> -165 84 400 31<92 92 92 116.5> 554 105<260 276 454.5 471.5>
VStem: -3 86<-124.5 -116.5> 215 106<596.5 615.5> 409 106<597 616.5>
AnchorPoint: "Anchor-5" 372 656 basechar 0
AnchorPoint: "Anchor-4" 231 -194 basechar 0
LayerCount: 2
Fore
SplineSet
215 599 m 0
 215 632 245 659 275 659 c 0
 299 659 321 640 321 613 c 0
 321 580 291 554 261 554 c 0
 237 554 215 572 215 599 c 0
409 600 m 0
 409 633 440 659 469 659 c 0
 497 659 515 637 515 612 c 0
 515 582 488 554 455 554 c 0
 427 554 409 575 409 600 c 0
-3 -135 m 0
 -3 -98 25 -81 47 -81 c 0
 63 -81 83 -89 83 -115 c 0
 83 -134 71 -161 36 -165 c 1
 50 -180 69 -183 81 -183 c 0
 122 -183 156 -150 179 -118 c 0
 197 -94 249 -2 249 1 c 0
 249 3 248 7 246 16 c 2
 160 364 l 2
 152 395 147 400 86 400 c 1
 92 431 l 1
 118 429 158 428 188 428 c 0
 211 428 267 430 297 431 c 1
 296 422 293 408 292 400 c 1
 273 400 231 400 231 370 c 0
 231 366 233 359 234 355 c 2
 300 87 l 1
 441 330 l 2
 446 339 454 352 454 365 c 0
 454 397 420 401 413 401 c 1
 419 431 l 1
 433 430 479 428 505 428 c 0
 534 428 548 428 579 431 c 1
 574 400 l 1
 525 398 496 377 472 336 c 2
 222 -95 l 2
 216 -105 158 -205 77 -205 c 0
 32 -205 -3 -176 -3 -135 c 0
EndSplineSet
Substitution2: "'smcp' +wYy7OMeQxdDBHAAA +wYzWFQAA +swC7OMeQuFwA lookup 1 subtable" Ydieresis.sc
EndChar

StartChar: Amacron
Encoding: 256 256 192
Width: 750
GlyphClass: 2
Flags: MW
TeX: 830 0
HStem: 0 31 228 31<276 501 276 507 260 501> 696 20<467 502> 797 33<313 707 318 701>
AnchorPoint: "Anchor-5" 508 799 basechar 0
AnchorPoint: "Anchor-4" 374 0 basechar 0
LayerCount: 2
Fore
SplineSet
313 797 m 1
 318 830 l 1
 707 830 l 1
 701 797 l 1
 313 797 l 1
32 0 m 1
 34 10 35 21 37 31 c 1
 104 31 139 57 161 99 c 2
 467 696 l 2
 475 712 479 716 494 716 c 0
 510 716 511 712 514 693 c 2
 626 75 l 2
 632 41 634 31 706 31 c 2
 722 31 l 1
 721 23 718 9 717 0 c 1
 675 2 629 3 586 3 c 0
 548 3 477 3 442 0 c 1
 443 9 446 23 447 31 c 1
 472 31 536 31 536 64 c 0
 536 67 535 76 534 79 c 2
 507 228 l 1
 260 228 l 1
 244 200 220 151 200 112 c 0
 187 86 187 84 187 76 c 0
 187 34 245 30 254 30 c 1
 248 0 l 1
 220 1 154 3 134 3 c 0
 94 3 53 1 32 0 c 1
276 259 m 1
 501 259 l 1
 443 584 l 1
 276 259 l 1
EndSplineSet
EndChar

StartChar: amacron
Encoding: 257 257 193
Width: 500
GlyphClass: 2
Flags: MW
TeX: 582 11
HStem: -11 22<187.5 226.5 187.5 246.5> -6 31<399.5 443.5> 240 20 426 22<277 320.5> 550 32<132 498 137 492>
VStem: 57 77<59.5 80.5 59.5 128.5> 126 93<326 353 326 355> 346 61<56.5 71 56.5 73> 379 68<324 354>
AnchorPoint: "Anchor-5" 314 562 basechar 0
AnchorPoint: "Anchor-4" 220 0 basechar 0
LayerCount: 2
Fore
SplineSet
132 550 m 1x08
 137 582 l 1
 498 582 l 1
 492 550 l 1
 132 550 l 1x08
57 82 m 0xb5
 57 175 176 254 341 260 c 0
 364 261 366 261 368 262 c 0
 372 265 379 319 379 329 c 0
 379 379 349 426 292 426 c 0
 262 426 208 415 177 380 c 1
 201 379 219 366 219 340 c 0
 219 312 196 288 167 288 c 0
 136 288 126 310 126 327 c 0
 126 383 194 448 295 448 c 0
 379 448 447 398 447 322 c 0xb280
 447 300 424 170 418 138 c 0
 416 125 407 76 407 66 c 0
 407 47 414 25 436 25 c 0
 451 25 470 38 478 68 c 0
 481 77 488 119 492 145 c 1
 517 145 l 1
 511 108 510 100 507 87 c 0
 495 14 439 -6 410 -6 c 0x71
 389 -6 346 4 346 73 c 1
 338 59 291 -11 202 -11 c 0
 154 -11 57 5 57 82 c 0xb5
134 80 m 0xb4
 134 39 166 11 209 11 c 0
 244 11 279 28 303 52 c 0
 341 89 346 120 351 150 c 2
 366 240 l 1
 134 230 134 81 134 80 c 0xb4
EndSplineSet
EndChar

StartChar: Abreve
Encoding: 258 258 194
Width: 750
GlyphClass: 2
Flags: MW
TeX: 891 0
HStem: 0 31 228 31<276 501 276 507 260 501> 696 20<467 502> 753 38<476 530>
VStem: 372 23<851 872.5> 651 22<891 891>
AnchorPoint: "Anchor-5" 518 860 basechar 0
AnchorPoint: "Anchor-4" 374 0 basechar 0
LayerCount: 2
Fore
SplineSet
372 869 m 0
 372 876 372 884 373 891 c 1
 396 891 l 1
 396 886 395 882 395 877 c 0
 395 825 445 791 507 791 c 0
 555 791 632 814 651 891 c 1
 673 891 l 1
 651 790 560 753 500 753 c 0
 429 753 372 799 372 869 c 0
32 0 m 1
 34 10 35 21 37 31 c 1
 104 31 139 57 161 99 c 2
 467 696 l 2
 475 712 479 716 494 716 c 0
 510 716 511 712 514 693 c 2
 626 75 l 2
 632 41 634 31 706 31 c 2
 722 31 l 1
 721 23 718 9 717 0 c 1
 675 2 629 3 586 3 c 0
 548 3 477 3 442 0 c 1
 443 9 446 23 447 31 c 1
 472 31 536 31 536 64 c 0
 536 67 535 76 534 79 c 2
 507 228 l 1
 260 228 l 1
 244 200 220 151 200 112 c 0
 187 86 187 84 187 76 c 0
 187 34 245 30 254 30 c 1
 248 0 l 1
 220 1 154 3 134 3 c 0
 94 3 53 1 32 0 c 1
276 259 m 1
 501 259 l 1
 443 584 l 1
 276 259 l 1
EndSplineSet
Substitution2: "'locl' +rW2sAAAA,+ycDF7QAA +rODHINYV in +t3zS9AAA +x5AA lookup 11 subtable" Abreve.vn
AlternateSubs2: "'ss01' +wqTQwMd8wTjSuAAA-1 lookup 10 subtable" Abreve.vn
AlternateSubs2: "'salt' +wqTQwMd8ua0A +swDFSNYV in +t3zS9AAA +x5AA lookup 9 subtable" Abreve.vn
Substitution2: "'c2sc' +swC7OMeQxdDBHAAA +wYzWFbMAuzjHkLhc lookup 2 subtable" Abreve.sc
EndChar

